<mxfile host="app.diagrams.net" modified="2024-04-15T11:02:15.265Z" agent="Mozilla/5.0 (Macintosh; Intel Mac OS X 10_15_7) AppleWebKit/537.36 (KHTML, like Gecko) Chrome/122.0.0.0 Safari/537.36 OPR/108.0.0.0" etag="tg8DZsKEC221B28HGBVH" version="24.2.5" type="github">
  <diagram name="Page-1" id="90a13364-a465-7bf4-72fc-28e22215d7a0">
    <mxGraphModel dx="1952" dy="1420" grid="1" gridSize="10" guides="1" tooltips="1" connect="1" arrows="1" fold="1" page="1" pageScale="1.5" pageWidth="1169" pageHeight="826" background="none" math="0" shadow="0">
      <root>
        <mxCell id="0" style=";html=1;" />
        <mxCell id="1" style=";html=1;" parent="0" />
        <mxCell id="MYPHkp6U98748ym2PTXX-1" value="WRC-1, SRC-1 (PLC)" style="shape=image;verticalLabelPosition=bottom;verticalAlign=top;imageAspect=0;aspect=fixed;image=data:image/png,iVBORw0KGgoAAAANSUhEUgAAA1wAAAFYCAYAAABH6/37AAAAAXNSR0IArs4c6QAAIABJREFUeF7snQWYFEfTx/+HQ3B31+AuAYIECCS4u7sfbkEPO9zdLbi7uwUS3N3dD+f7qo/e293bvdu97dmd4a1+njxkb2a6a35Ts9vVJe317du3b+DGBJgAE2ACTIAJMAEmwASYABNgAsoJeLHBpZwpd8gEmAATYAJMgAkwASbABJgAExAE2OBiRWACTIAJMAEmwASYABNgAkyACWhEgA0ujcByt0yACTABJsAEmAATYAJMgAkwATa4WAeYABNgAkyACTABJsAEmAATYAIaEWCDSyOw3C0TYAJMgAkwASbABJgAE2ACTIANLtYBJsAEmAATYAJMgAkwASbABJiARgTY4NIILHfLBJgAE2ACTIAJMAEmwASYABNgg4t1gAkwASbABJgAE2ACTIAJMAEmoBEBNrg0AsvdMgEmwASYABNgAkyACTABJsAE2OBiHWACTIAJMAEmwASYABNgAkyACWhEgA0ujcByt0yACTABJsAEmAATYAJMgAkwATa4WAeYABNgAkyACTABJsAEmAATYAIaEWCDSyOw3C0TYAJMgAkwASbABJgAE2ACTIANLtYBJsAEmAATYAJMgAkwASbABJiARgTY4NIILHfLBJgAE2ACTIAJMAEmwASYABNgg4t1gAkwASbABJgAE2ACTIAJMAEmoBEBNrg0AsvdMgEmwASYABNgAkyACTABJsAE2OBiHWACTIAJMAEmwASYABNgAkyACWhEgA0ujcByt0yACTABJsAEmAATYAJMgAkwATa4WAeYABNgAkyACTABJsAEmAATYAIaEWCDSyOw3C0TYAJMgAkwASbABJgAE2ACTIANLtYBJsAEmAATYAJMgAkwASbABJiARgTY4NIILHfLBJgAE2ACTIAJMAEmwASYABNgg4t1gAkwASbABJgAE2ACTIAJMAEmoBEBNrg0AsvdMgEmwASYABNgAkyACTABJsAE2OBiHWACTIAJMAEmwASYABNgAkyACWhEgA0ujcByt0yACTABJsAEmAATYAJMgAkwATa4WAeYABNgAkyACTABJsAEmAATYAIaEWCDSyOw3C0TYAJMgAkwASbABJgAE2ACTIANLtYBJsAEmAATYAJMgAkwASbABJiARgTY4NIILHfLBJgAE2ACTIAJMAEmwASYABNgg4t1gAkwASbABJgAE2ACTIAJMAEmoBEBNrg0AsvdMgEmwASYABNgAkyACTABJsAE2OBiHWACTIAJMAEmwASYABNgAkyACWhEgA0ujcByt0yACTABJsAEmAATYAJMgAkwATa4WAeYABNgAkyACTABJsAEmAATYAIaEWCDSyOw3C0TYAJMgAkwASbABJgAE2ACTIANLtYBJsAEmAATYAJMgAkwASbABJiARgTY4NIILHfLBJgAE2ACTIAJMAEmwASYABNgg4t1gAkwASbABJgAE2ACTIAJMAEmoBEBNrg0AsvdMgEmwASYABNgAkyACTABJsAE2OBiHWACTIAJMAEmwASYABNgAkyACWhEgA0ujcByt0yACTABJsAEmAATYAJMgAkwATa4WAeYABNgAkyACTABJsAEmAATYAIaEWCDSyOw3C0TYAJMgAkwASbABJgAE2ACTIANLtYBJsAEmAATYAJMgAkwASbABJiARgTY4NIILHfLBJgAE2ACTIAJMAEmwASYABPwuMGV+5eipqdw7MAufiJMgAkYkMDJs5cNJXX2jGmEvEaT21CQbQhrVO4st3s1j3kzb0cIsJ44QkndOUblLQlI+dURca4nNrgAfPnyBaFDh3aOHJ/NBJiAiYDRDBej/3AYVfWMyp3ldq/GMW/m7QgB1hNHKKk7x6i82eD6TsDTHq7Va9bBu0s3DBs8CFWrVHJaMw8fOQr6L0OG9ChV4jenr+cLmMCPQIANrh/hKWp/D0b9wWa5tdcN8xGYN/N2hADriSOU1J1jVN5scIXQ4CpSvBRu3b6N9OnSYeO6VRaadOfuXRQuWkL8rXnTxujWpVOwmjZ8xChMmTYDjRrUQ++e3YM93/qESVOmYcSoMahWtTKG+gx0+nq+gAn8CATY4PoRnqL292DUH2yWW3vdYIPLvYyZN/N2loBRvwfZ4AqhwVWgcDE8ePBAXL1u9Qpk/DmDSWcmTp6KkaPHis/NmjRC966dg9Wnjx8/4r9Tp5E5U0ZEiBAh2PPZ4HIaEV/wP0CADa7/gYes4BaN+oPNcit4+E50wbydgKXgVOatAKITXTBvJ2ApPJVzuJwsmmFucNWvWxt9+/QSj+Pr169InT6T6dFIg4v+vnT5Ciz5exmuXruOuHHioHixoujs3R7hwoXD7LnzsWz5SlSsUA5NGzfEzNlzsGLlGpQv9yfIY7Z5y1b8FOkntGndAlUqVQz06KWHi44lSBAfy1asQtw4sVG+XFk0rF/XJFtQMlAO2fQZs7B2/UZcuHgRmTL+jIoVyqNBvTrw8vISfZw4cRKz5s7Dnr37kSplChQrWgStWzbn3DOFLyN3FXICbHA5zu7t27e4du0qYseOLS6KEiUqIkeO7HgHBj7TlYnGs6dPce3aNcSPHx8JEyVCqFChBInPnz/j0sWLiBo1KkKHCY3w4SMgZsyYJkqfPn3CkyePES9efNM1dJC+dx89eoi4ceMF+z3qitzBPa5v377h2tWr+PL1C9KkSWv6zg/uOkeOaym3HP/B/fuIGi0aIkWK5IhIDp2jpdykD9evXwO9h8Rb5buntdx3bt/Gp8+fkCxpMoQPwQKxPfhayi3HfPXqFd6+fYNYsWKLuZeKppXcb968wevXryxEtP5ecUV+reSWMt2/fw93795F8uQpTL8zrsgrr9VC7k+fPuLJkyeBxKPvd/rOVtnY4HLB4KIHcf70SYQPH17kUdWq28D0bKTBtW79BrT37iL+niVzJpw6fUb8vww5lCGFjRs2QK8eXTF4qC9mzJpt8xmfO3UikBdMGly2Lhg+1EcYacHJMHf+QvQf6INYsWLilwIFsGPnLvFjIPPKyAgrU9bf2KN7IMORjteuWR0D+/dVqY/cFxMIEQE2uBzHtmP7NkyaOMHiggw//4yu3bojatRojndkwDND8oP97t07DOzfD5cuXUS0aNHw8uVLpEyZCt2690DsOHFw7+5dtG3TyoJGrFix0LV7D6ROnQY0SW3frg3mzFuAKFGimM57+PABWrVoLha7YsaKFSTNkMjtyOPxe/cOXbt0wvPnz8Xp9PyHDvcVxqOKppXcJBtNSqdOnoSDBw+gTdt2KFqsuAqRRR9ayf348SP07dMH79/7IUKEiCAd6NtvALJkzapEdq3kvnHjOgb06wuKyCFjhd4BI8gtoX748AEd27czDO8lixdh2dK/LXSi8K9F0L5DR13rCelH3z69xXdlwoQJce/ePTRp2gyly/yhW7mvX7uGzp0Cc6Xv+llz5imRW3bCBlcIDa4WzZqI3KtJ48fg91Il0bV7LyxfuUoYUlOnzzSFFJJH6Nr168iZI7swVtZv3IR2HTqZcsDsGVxJkyTButXL8c7PD/kLFhHPa9aMqShSuJCFApgbXCuWLsbPGdKjZ5++WLV6rfBUrV21XHilgpKhZet22LJtOzq0a4N2bVoJL9fJf/9DsqRJUSB/PvTs3RdLli5Dy+bN0KVTBzx58hRFS/wujK6Txw4jWjQ1P85KNZs7+58iwAaX44+bDK61a9dg7LgJIO8GeWcmTZqApEmSolOXro53ZMAznZ2QEp/BgwbiwYP76NO3P+LGjSsm+qNG+PovSvmOMBlc9ONMP9JkgC1evAgnT/wDWsy6f++ebg2uaVOn4PKlSxjkMxheoUJhQP++YkW6Q8fg848defzO8nakTzqHDJduXTojTdq0Qv669eobwuCihY6XL1+ga7cewqs5fdpUnD9/DqO+pyI4ev/2ztOK9199eiFx4iRo2qy58IDOmT0Tp06d0r3cktP8eXNx7uxZYQgYwVCcMmki4idIgAoVnS+k5ogOaaUnUi/6DxgkFpeOHD6M4cOGYOq0GWJxytWmldzWco0eOQJhw4UTCzkqGxtcITS4KH+rbIXKwgAaO3oEsubMi3x586BCubLo3quPRQ4XGTzHjh/Hnbv3sHbdevH8yKDavWML7Blc5uGK9Ro2wf4DB+EzsB9qVq9m0+AiOcggo3b6zBmUr+R/3uXzp8UXe1Ay0ERh0OChJrny5csjjEhp3JUqUxaXr1wVx3Pnyin+PXb8H/HvwnmzkT9fXpU6yX0xAacJsMHlODJzg0tetXXLFsybOxvzFy4WEyr6vG3rFlBoSObMWVC/QUMxARg2ZDDyFygAWm2lULqO7duies1aKFiwECg0o33btujRs5cIuZs/bw727tkjVvKLFiuGKlWrib5Xr1opwk1evXqJ48eOYfrM2RYheI7fifNnOvuDLb1XI0aORoqUKU0Dkmdi3ty5aNykKd77+QkPlzS46KTbt26hQ/u2GD12HEJ5hdKtwVWnVg20a98BefLm8//tOH0K/f7qg6XLVwYb5ugIfWd5O9InnUOr0hcuXsDvv5cWi4SVKlcxhMG1ZfMmpE6TFqlSpRK3Kieky1euVhLKqRXv48ePIW3adCbP566dO0BGjCoPgFZyE+OrV6+ia2dvscDUvVsXYezq3aNIizwFCxUS37O06CNTOxx9P4I7TwveJGeVShXwV99+yJotu/g9CBs2HChCgKLAVGx9pIXc1qxu3rgB747tMWHSZCRIkDA4lE4dZ4MrhAbXof27MdBnCDZu2iK+8MdNmIRRvsOEy93c4JIGFT0VMkwopJBWRoMzuMyrHDZt0VqE+QVlcFFJ+MkTx4mHbx4CeOHMvxgzboLwxtmTgV6U5StWCQ+dNKToXJpMtW3dEjJvjWTOmTO76OfQ4aPIny8P6tauhWxZszildHwyE1BNgA0ux4naMrgWzJ+HI4cPYfzEySJEa6TvcHTs1BmJEycWBtKli5cwesxYrFy5QoTlkAfk/Llz6N2rhzC26NwLF85j0ID+wqtDxtY/x4+jTdv2oHCeMaNHCoOrzB9/YuGC+Vi5Yjnq1W+AzFmyIFmy5Ep+jB0h4OwP9qGDBzFxwjiTIWprDGmUmRtc//xzXHjGyJh89/atLg2uFy9eoHHD+hg/YZIwkKm9ePEcFN6uarLhLG9HnqH1OfQbZRSDy1x2+t0dOsQH4cKGU+ZZ1pI3vcfkTaS8Q/q+UOlV1EpuypPs3rUL8uTNi6rVqoMWGIxgcHXp5C1yRU+ePAE/Pz/kzZcPLVu1sQhJDsm7Iq/RgvezZ89EHYJmzVvg7yWLRdgphVS3aNnKYrFKb3Jby0MeuUhUN0Gxd4vGYYPLBYPr3LnzaNyspel5nfn3ONZv2GRhcGXOnlsYWAvmzhLheXLfLdUG108//YQdWzeKohxjx08U/6VJnQpbNq5DcDJQ+CB9MaVNkwZhw4bF6LHjRR6ZLH3foVNX4Znr37e3MLCo/XPiBF6/eYusWTIjRvTorrxDfC0TcJkAG1yOI5Q5XBQ++PXLF5w5fRrbtm1Fg4aNUbZcOWFsxY0XT0yoqNEiUs3qVTFo8BB8+/oNI3yHYebsueJH9cXz59i/f58wstauWY0b16+jg3cnsdJJRlj27DlEHxs3rMfRI0fgO3KUMLho4tZvgPu3sXB2orFm9Srs2bM7yNApaXCRtyt6jBiCwfZtW0W4W4+evXWbwyVXcqlwk8zZIq9l9aqVxbPOkOFnx5XKzpnO8g7JgEY1uChHh/RrzNjxSsKtzCd0WnwfUnGSkSN8RcEdyvls3Lip7ifSmzZtxMb16zBqzFjhbTGKwUXbBNH3R9269fHx00dMnTwZESNGVPadqcV7SeGaPbp1BeWvdvTujBgxYmD58mU4fOigSLOhOaqrTQu5zWUi3SZjd+KkKSKiQ3Vjg8sFgytWzJjInju/MKjkPlhLl62wMLgqVK4mvFqUv5U9W1YxMaGm2uCiPkmhkyROLDxc1Lw7tEObVi0QnAyt2nYQ1RAp56vsn3+I/ycjrF6d2uj3Vy/s3rsPjZo0F33WrlUDr16+wroNG8V4+3fv4Bwu1W8l9+c0AS0mGE4L4cQFWv9wBCWKNLho0kQtVsxYyJk7NwoX/lV8pglsxUqVUax4wEbq9DfKJ6AQlxrVqgivyOhRI9G8ZUtRgINWMckAK1ToV2TNlg1NGvkXEKJJAjVapaW2YtUaYXBRVShVCeBOYHe6GAKFUg3xGSSqv8qqhNbjSYOLKlrFjBUTkSJGws8ZMwpvHhUYkEUzzD1g1AdNYFu3auGxohmUi0ah6zThT5I0qbgtei4UXTFl2nTEiRPXGbQ2z3WHnhvR4KKQ3alTJokFCCrAoqq5gzdVWVy1cgU2b9ooPLh6DRWjQjD0PUQhbpky+0fhkL57d+6CbNmy232fnXkWWvGm74ZYsWOLBXBqMixy3oJFujVc5PdZ7Tp1hceZGukK/V706vMXcuTwT0dxpWnFW8o0ZPAgRIsWHa1at3FFTLvXssHlpMElNz6mkMJ4ceOacrCWLl6AXDlziBLv3Xr2NlUh/Pe/UyCDhvbuIgOlRrWqovS7PYNr6PARmDZjFqgoB8UdU2veqg22bd+JwYP6i+vNmyya8UeZ3/HunR927d4jDlOu14B+fcSXYXAyPHz0SBTGkNfS9eXK/on+f/U2GVNr1q4XYZPXb9wQ/ZP3a4jPAOHh4sYEPE2ADS7Hn4CtkELzq+lHJ0WKlKhR09+bTd7valUqidVVyueikAs6TqvzNAGglXo6Z8XyZeK7K3r06OL8QT5DxEq4dTOSwUXFGVo0a2rKS5D3QmGVfy9Zgnr16+Pd23eBcrjM7/nD+/eoVbO6iZ88dvTIYQwbOsShfCmtJhq04k+eOVnhT+YUBWVgOq5p2lX7M5fBaAaXDNm19344w9f6XC30hAxz8lD/WbacqfT+06dPRZ66KoNRC7mPHj0ick5ttfIVKoqQZlebFnJT6CZFC5QoWRLRo8cQIsqcUOtKpyGVXwu5pXecIhsozNz8t6Nn7z7ImTNXSMU1XaeF3LJzirqgHD/aT5fCObVobHA5aXCF9CG8ePkSUSJHVrIaFJQMlKBIqyJyZcT83OBkoBf96dNniBcvrl05adUodOgwiBo1oLxxSJnwdUxAFQE2uBwnGZzBReGFc2fPQq/efyFR4kRYuWKFCJEjY4r2OqLjVEWLJukU537xwgX07NENiZMkEYnp1Cj06Mnjx8KLFemnSFgwf74oskEFGoxkcNG9UCW/vXt2izybnzP8jAcPH4r7J4+Xz5ChgaoU2noSlM91584ddOrcRXCisMORI4YjY6bMDnn6tJpokJFMhRz6DxyE0KFCY+CAfqKAhgwndVyrbJ+pldxGNbj++/ckBvTvJ6r9kZdFtjhx7f/mOvMMtOBNuWatW7YQhSZq1a4j9J70horqUDiqrbmGMzLTuVrITfOZ169fW4hC3lv6TsqRM5eS/c+0kJsEprA2+p6gfChazJo4fhwoR4qqoqpoWslNVQopd5d+OyikcMmSxcJ4pMguFfvNaSU3MaXvPtqjTSvvlrmeq3iGIenD6xu9zR5sud1kcHnwFnloJvDDE2CDy/FHvHPHdqxZs9pkHNm6kvaBWb9urQgFpJCnFq1amyqrkbeeNj0nA6RAgV/EhIBCdX4vXQZ16tYT3dF148eNEVXYqKVPnwHtO3qLsupkcNEKORlf7m4h+cGm+5s5fRr27t1jCo3MkycvWrZuLfatkiGFs+fOs7uPGfEYN2Y0aNVdNloFbtWmrajgFVwLidzB9UnH6d7GjB6Fgwf2i9PpvmiFWu8bw5rfm5E8XFTK/sqVy4EejXnhEkeem71ztNKTu3fvYNyYMSbZyRggw0VVOKRWcltzMkoOF32nUKQB7WNFjThT9dfg9utzVHe04k37+k2aNNH0fULbZHTr3hPp0qd3VLQgz9NKbrloOGnKVOWbHZvfEHu42OBS8iJwJ0zAkwTY4FJPn9bC3r9/b8rDCskIFMNPk/oIESKE5HLl17jyg/3161c8evgQMWLGdMhIsiU8lUqmPCnKjwoTJozD9+eK3I4MQmFj1FSsQtuaYPD76chTcP0crfWEvg/oPSBPt8qmtdwqZXWnfpNXi9JCyHBR2bTm/erVK3z48F5JHqg7eatkbKsvNrjY4NJax7h/JqA5AZ7QaY74hxhA64mGVpBYbq3I2u6XeTNvRwiwnjhCSd05RuUtCbDBxQaXureBe2ICHiLABpeHwBtsWKP+YLPc7lU05s28HSHAeuIIJXXnGJU3G1zfCXAOl7qXgXtiAp4iwAaXp8gba1yj/mCz3O7VM+bNvB0hwHriCCV15xiVNxtcbHCpewu4JybgYQJscHn4ARhkeKP+YLPc7lUw5s28HSHAeuIIJXXnGJU3G1xscKl7C7gnJsAEmAATYAJMgAkwASbABHRJ4H+6LDxV73Jml3aqGkYVgpy5RpdPnYViAkyACTABJsAEmAATYAJMwC0EDGlwnT13Hr4jRwcCRIZQunRpkennn/FLgfyIFi1qoHMuXbqMmXPm4t9//8PlK1cRK1ZM5MieDWX//AN/likd6Px3fn6YPmMWjh47jlOnz+Dt27fIkjkTsmTJjFbNm1rsiC3l2rvPf0+VwoUKmvpLlDAhMqRPh1IlSyBOnNhuebg8CBNgAkyACTABJsAEmAATYAKeJWBIg+vQ4SOoXa9hkORSJE+OebNnIFGihKbzduzchaYtWtu9rl6d2uj3Vy/T8WvXr6Np89a4fuOGzWt++uknTJk4Thh31ByRiwy8OTOnI+PPGTz75Hl0JsAEmAATYAJMgAkwASbABDQnYHiDi4yeYkV+FaDOnD1nYRwlTZIEu3dsEcc+f/6M7LnzCw8VtQrlyyJP7ly4cuUqZs2ZZwK9a9tmJEuWVHzu07c/Fi7+W/w/9dXJuz0iRYyI+QsXQ3qx0qROhS0b19k0uFo0ayL+fu78BdP59Ll4saKYPmWi5g+XB2ACTIAJMAEmwASYABNgAkzAswQMb3Dlz5cXC+fNNlHcvXcfGjVpbvq8Z+dWJEmcGPv2H0D9Rk3F36tVrYyhPgNN5wwaMgyzZs8Vn30G9kPN6tXE/2fOnttkoG1ctwrp06UTf//48SPSZ8oWMOaOLcIgM/dwWcu1a/ceNG7W0nTN5fOnORfMs7rPozMBJsAENCPw8uUrnPzvP2TNkhkxokcPNE5wxzUTLJiOHzx4IBYJEyZMgDSpUwf6ndKr3HRblGd98+YtRIgYAfHjxbO400+fPonUgMSJEpkWVT3FWI774OFDvPd7byFGzJgxETVqFNPf9Mrbz+89jv/zDyJHjiwidsKFC2dxH3qTm+R5/vx5oEdOi/YyzYP058zZs/j8+Yt4b0OFCuVpFTGN/+jxY1y7dl1EbZEOe3l56Zq3FI5qJZAzJH26tAgfPnwgnnp8L7V66D+cwUWgihQvhVu3bwtmE8aORpnSpfDkyVNcuXpV/C1lyhSIGyeOiekw35GYOn2m+DxrxlQUKVxI/D8ZbmTAUVu3eoUpDPDDhw/IkDm7+Du9rCeOHkTYsGGDNLhu3LiJYiX9c8Tix4+Pg3t3avVMuV8mwASYABPwIIHFfy9Frz79xHc9GTA9u3dBk0YBYfDBHfeU6JOnToPvyDFicfHCxYso8VsxjBs90jRR0qvcktfSZSvQvVcfZM+WFSuWLjZhPHPmLGrWbYAIEcLj6dNn4r4mTxjn8Ql15Wo1cfLf/yweNy0G06IwNb3yXr9xE9p16CRy4N+//yAWtWfPnIp4cePqVu55Cxai3wCfQK9W1SqVMGzwILx58wblK1UDGTbUYsWMiVXLlyBGjBieeh3FuGSwDPQZCpKfFvZpblu0yK8YO8pXGLt61hOSTTpBBg3oh1o1/J0Zsun1vdTqgf9wBterV6+RLVdeEy9zQ0n+kVZmbt++jbfv3uHwkSPiB4Ya/cgsX7pIhA2aKwr9Pyl6h3ZtxCrOwsVLhHFFrV2bVuLv1Mw9XPRDu3LpInz+8kWsFi5YuBj7DxwU5w3s3xe1a1bX6plyv0yACTABJuAhArdu3UaR30ph7OgRKPtHGcjohk3rVyNd2rQI7riHxMadu3dRuGgJYaiQwUITO1q8nDZ5In4rXlS3ckte5C0qUKgoCv5SQESmSIOL0gn+KFcR+fPlQ59e3fH48WOUKF0WvXp0RY1qVT2FW4xboHAxTBw3WvC2bnrXk+FDfFC5UgX4vX+P+g2bIkOGdBjQt4/u9URypoXzgkWKo1uXTqhSqSL69BuA//47hSWL5iOUl5eIiEqQIAHGjBzuUR05/s8JVKtZBzLKigxC0ueO7dsJA0aveiKhdejUFWvXrRfF5lavWGpiqef3UqsHbniDi4ykIT4DBJ/r129g6fIVOHzkqPhM3qf//jkSaBXrnxMnULVGHQumjRrUQ+uWzQOtZly+fAW16jUQq2LWjSz26lUrm0IuHCmaMXyoj3i5uTEBJsAEmMCPR4AW1+YvXGTK7aU7pN+bokUKo1WLZmLxLajj5kRoUhImTBi3QLpy9ZowDps2DvDElSpTFjWqV0PD+nV1K7eE07xVG7HinyN7dqxctdpkcJGnrkzZijh+eD8oXI/a2PETRXiheToC/Z28CRSq5Y5QMgpfS5UuIyjtgaoY07jmYWJ61RPytKxZu17wpXAwqg5Nekr/RYoUySk9cSdv65do4aIlmD5zNrZv2SDeMUohGek7FCV/Ky5OlfO5S+dOBXoHnd1SyJUXmN7Jdh0749/jh01zzVp1G4gq2FQnwBk9cTdvCuPMnjufiByjiLFtm9cjVcqUAode30tXnlVw1xre4ArqBkcOH4qKFcoFOsWWwUUeqXq1a6J+vbqIGDGCSSEaNW0pQkJsNTLofIf64PdSJS1e0OCg9+3TC/Xr1g7uND7OBJgAE2ACBiMwYNBgvHz1CvT7I1v/gT549fo+fbtDAAAgAElEQVS1+Ftwx+maZ8+eoUfvv7Bt+04RXVGpYnk0adRATGip0RYlVHW3Y/u2mtGhMSpUrmZaWdez3Fu370CnLt2xd+dWbNy81cLg2rJ1G3r37Y9jh/y3a6G2ectW4dGQf6OJ6NDhI7Fk6TJx/I8yv6Ntq5amKsfPX7wApR707d3LND9wFbyMxqHwQQqFpPA8Wozt7N1BTKz1yvuv/gPh984Pr16/EvpJ86A6tWo4JbcneJs/L4pyKlzsN/To1gWVKpQXKSd5ChQSxlfKFCnEqY8fP0HeXwpj59ZNSJ48mfjb8pWrMGrMeDEnpLC+Vi2aImeOHOIY3dOQYb6oVbO6qQ9XdYSuJ09cwybNBWcyBk+dPo3NW7dhzYplIs/SET3xFO9ly1diyrQZ2LF1ozC4aDslGRGm1/dSxTOz18cPa3DNnTUdhQr+YvO+Sfk+fvwkvjCOHf8Ho8eMN1U3bFCvDv7q3RNkmf/2exmTZ4sKaTRqWA8RI0TEpi1b4DMkwM1MblJyl9ormkF7edFqWtv23qYiHLSyRoU1uDEBJsAEmMCPQ6BV2w5iItS7RzfTTY2bMAlHjh4THpXgjpPXgHJJ8uXNjVYtmuP2nTuYOXsO9uzdLxYQKV+G+jNf7FNNj8LzylaojOpVq4iJNDW9yv3u3Tv8WrwkenbrKvhQZWFzDxd5E8kLIKsJ071QFAx5CWTxKsrtOX/hAihM7svXL1ixcg0on40WU/Pny4PFS5ahQP686N2zuzLUMq+b0hIoNO/qtetijkBeC4q20SvvBo2biarLJGeN6lVx9eo14YEh46Nl82bByk0APcHb/MHNnjsfc+ctEIYAGbfS2/LPkQOmKCd6D9NlzIqlixcgV84c2LhpC/oOGChy/5ImTSIWPAYP9RWpKFQngNJTnj17gbmzp5vSUlQoC3kOhw4fIapp03ZHtE0R5SAOHTxIFOMJTk88ydvcs09e0UFDhuLw/j2CuV7fSxXP7Ic1uHLnyolZ06eIqjKly1YweaPat20N+k82+lJ+/96/GlC0aNEsKi/Ri9SmfUdxjFaZaNVr+45daNbS/3rz8vKyv67de4nVDvFD1KKZ+FEKqkohnTd85GhMmTpdXNO8aWMRO8yNCTABJsAEfhwC5AmhfKjxY0aZboq2GPny5SsGD+ovPCVBHaeLyLuUOVNGixCzS5cuY+eu3bh77x7Klf0T9NunRSNvTo1adZEpU0b4Dh1sCq/Tq9z0u3rs2D9YvGCO4LVoyd9YvWYd/l40X4SCyZCs0yePmXCt27ARQ4aNMBWvoj0348SOjShRAqoDPnz0CLv37MWJk/+iYIH8+KNMaaWhhlTt+P79BxYVE2lSvXrNWqxdtVy3eiLnPtcunTPxpHkNeV1o8dkRPfEEb9Nc0M8PeQsUxsB+f4ntgajJ0LctG9YiTZrU4m/0bH75tRj27douPJ3kkSTPs/R20Tk0r9x34CD27t2PVKlSCg+leYVJFe8nsZ23cLGoCUCRWJSfSPvJxo0bV+SX6ZU3VQstWuJ30NZJZJSS158Mdels0Ot7qeKZ2evD8B4u8/LrZADRl4FsRw7sNZX7pMpF5LanNnrEcJQv96fpPPOS8bKCoHlftKpAKyHmzbw/KoBBhTCCM7iq16orPGrUmjVphO5dO2v5bLlvJsAEmAATcDOBv5ctx9jxk7Bv1zaxsPf161f8Wb4yKlUsJyoVBnfczeJaDEcTyLoNGosqvuPHjrLIXdGr3JRndvmKfwVi63by2GE8efoEJX7/E+Z7bA4aPBTXb9zEzGmTPYb76rVrYmGXFl9lW7RkqfDGUYEEvfKeNGUaZs+dZxGiSblQ69ZvEIaiXuWWjElWyt+S3i35d8rh6tunpynHfsu27WjZup3JC+opRSEZKPeQtiySjbxDk6fOEAsGeuU9fuJkjB47XlSAlK1bz96CL9UyIP3X43up5XP+oQwuChUsXrKMqSQ8FcKQIQAHDh4SPySyUbhHxow/iwovA3yGmEL9GjWsL0JBZEyvPJ/6atSgvojfphhxWrGUTZaSty6aITc3ppWSPfv2Cxe0bEGFPGr5wLlvJsAEmAAT0I4A7fVTuFhJsajWuGF9LPl7GUaPm4Btm9aJFergjmsnWdA9k8elSfNWopru5vVrTKXgo0SJLCZ8epWbClqR7LLRYum27TswddIExIvnX6acwuDot5vCsKgQVo3a9YSxRXk4nmrEM2feX9C/b2+x9ydVhWzUpAX+/KO0iJjRK29ZDZLmSbVr1RDGbsMmzVC3di1RtVmvctNzptLv+QsVtfBuyec/cfJUEY66aN5shA4TGg0aNUPJEv5VDD3ZqEgJVdKeMnGcKAhD3kEqyZ83T27hMdcjb1pkKljkN7Ro1hj16gTUK5CRY2f+PY4IESLo8r3U8ln/UAYXgaI40Y6du5qY7f6+KTEZYy1at7MweqzBUjjhkoXzTFVUho8YJRL+gmpUznXxgrmiXLwjVQqpL0rIpeRp640CtXzQ3DcTYAJMgAm4hwDlW1HRC0qup98VqmhbqsRvpsGDO+4eKS1HkfvlWI9NeVGyAIge5baWl7wXK1evsdiHi0I427TrKEI1qbVt3VLTgiOOPj8KEW3v3cW04EshbuQRoH09qemVtwwHo/A2alT4w2dAP1Oqhl7lpvkcLYBYe7foHihXiuaOGzZuFvdEeVJjR40QhoEnG81dyVM0d/5Ck57QO0kl+KmQhh715MSJk6hSozYO7d9t2puN5KQCILnyFRSGIm2Zodf3UqvnbUiDSya8EhTzkEL6TMpZsnRZUxEM2meDHi41srrphSN3uHmZd1LaXwsXFKse1pvc0RcixchahyyIqoZ1aokSuhQ2Qs1cLusHRj+6ObJnQ+GCBUUVG+tdwrV6wNwvE2ACTIAJuJ8Alf2mCQWV/LZVZjy44+6X2LERjSo33R15Z6jQQPjw4R27WTecRfOSO3fuInac2DaLLeiVN821SG7KJZKVnc1x6VXu4B4p5XN9wzdEjxYtuFPdepx4UuRVzJgxLGoQSCGMyluv76UWD9eQBpcKEGRw0Y8hKW/iRImCNYDIMqfqMJT4nDRJYovkWhXycB9MgAkwASbABJgAE2ACTIAJ/HgEPG5wnb9w0UQ1Q/p0Px5hviMmwASYABNgAkyACTABJsAE/mcJeNzg+p8lzzfOBJgAE2ACTIAJMAEmwASYwA9PgA2uH/4R8w0yASbABJgAE2ACTIAJMAEm4CkCbHB5ijyPywSYABNgAv+zBCg5/+XLl0iaNIlg8OjxY7x7+86CB5WnTpI4sS4YUXEH2kaFNgSmzUypVLxseped5PTze4+HVDQjRgxEixZViC43s7UGnCRJYpuFCdz5IG7cuBloONqAlyoY6p03bRB88t//hO6mTZtG93pCOu33zi8Qbyp2Rpthk96T/ps3KrYWJ05sd6qEzbGoeMn58xfw+MkTsdUR7aFnlPeSqlxevXYdWTJnsrg3Pb+XrjxwNrhcocfXMgEmwASYABNwksDW7TvQqUt3RIgQ3rSBrHeXbli9Zl2gSd3pk8ec7F396S9evkTzlm1w7Pg/SJokidgzqmunjmjRvKkYTM+ySxpSRvOS8EuXrUD3Xn0CAdu0fjXSpU2rHqSDPZJxmDFrjkBnb9u8Xmxbo2feg4YMw6zZc5EieXJRaIzKf48aMUwYsHqVu037jti4aUsg3rQdApVgp02RZQl8eRJt7zN+zCgHn6g2p5GhWKtOA8FZvpdjR/mi7J9/GOK9HD5yNKZMnY4tG9YiTZrUJkh6fS9dfYpscLlKkK9nAkyACTABJuAggbHjJ2LGrDkoXqwoDhw8aGFwxYwRA717dnewJ/edNn7iZLGZ8MJ5s8WK/5Zt29GydTscP7xfeLpoIq1X2YmS3DcqVcoU+LVwIdMeXDSxmzl7DrZstDR03UfW9kh3795DoaK/4cqFMza3FNArb1pIaNGqLTauW4X06dIJz9Af5SuJvcXKlC6lez2RT4M2xy71Rzls37IBKVOkEAbXiOFDLPbS87SO0Pit2nbA06dPMWfmdFGan/af69y1h2n/K73qCclOnrl8BX8VWzS1atFMbPYtm17fS1efORtcrhLk65kAE2ACTIAJOEhg3IRJqFSxPE6fPou/+g8whMFF4WFRo0YR3hVqN2/eQtESv2P3ji1iZV3PE7s3b94IWbt17oQ9+/aJCXTH9m3Ffeh1YkcbNLdo3Q4H9+4UE1O516dUMb3yJiOcPBXeHdqJTW5pv7N3fn4IHSqU+H+9ym396pLHK1LESBg+1Ecc0qPBRftuZcmRB8OH+KD07yVNt5Ay7c8Y2L8vatesrmve+/YfEAYjGeN9BwzE4f17THqu1/fSwa94u6exweUqQb6eCTABJsAEmICTBDZt3hrI4KK8kB5dO5t6ChMmDMKFC+dkz9qdfuLESTx89BgzZs0WxpeckNJEWq+yU4jbuXPnhXeuXcdOgQyuqdNnYt3q5SZoXl6hbG7kqx3VwD2TR67XX/2ROlVK7D9wUITntWnVQoS3UdMr7yLFS4nFhM1btuHCxYvCGO/Qrg0qlC+ra7nNnwBtVfRHuYrYtW0zkiVLajK4Bg/sJ7zSspEBaW0Iu1NHaCzi3bBBPdSvW1sM/e7dO2TKlgvNmjRC966ddasnJGunrt0RJXIU9OjWGbnyFcSUiePwS4H84j7I4NLje+nq82WDy1WCfD0TYAJMgAkwAScJ2DK4rHO4GjWsj949ujnZs3an16rbAJevXBED+Azsj5K/FTdNpPUo+9lz51G2QmVTaFjbDt6BDC7rHC4qCOLpEMPlK1aha49eGDt6BLJnyypCIvv2H4QlC+chT+5cNnOhPK0rVFQidXr/4gejfIchd66coBDDgT5DsHTxAuTKmUOXclu/Lc1btUH06NGF50U2WzlcUydNQInfimn3sjnQM+U/UR4UebQSxI8nQpUPHzmKGtWqYvCg/rrl/fr1a2TNmdekFz1798WnT5/gO2ywyeDS43vpwCMJ8hQ2uFwlyNczASbABJgAE3CSgC2DK0L4COjSKSCXgVbRI0WK5GTP2p5OoUx79x1AwybNTMnu5HHRm+xkAFSqWgOFCxVE+7atBZT23p2RLGkyeHdoK7wTciV9+d8LTdBChQptqmKoLUn7vVMFy/cf3iNe3Limk5q2aC2qQ3bt7C0m0nrjTYJSOBu1a5fOmeSu17AJMmXKKIqs6FVuKSyFclaoXM3Cu0XHyODq26cnihctYrov8ujqwfs8d/5CrN+wSRT1KF/uT5w4eRK5cuZE08YNdct7+cpV6Nq9l8jrCx0qNNZt2Ci4njpxFJEjR9bte+nq9wEbXK4S5OuZABNgAkyACThJwJbBpdfCExRCWPCXAqIQgmwUzlS/Xh00rF9Xl7kiz58/R868v9h8KnQfVNhBr7kie/buFxNompDKRt65BPEToGf3LrrkTXLWrtcQiRMnsvAONWrSHOnTpzMZinrVcZKfZI0bLy6G+gy00Bs95nCRgOTBJaM8duxYQl7Kl/u1WAkhP4U/6jVnjoxaMm6lF/Hzl8/o1acfZFVIvb6XTn7FBzqdDS5XCfL1TIAJMAEmwAScJGAkg4tCfs6dP48xI30RL148bN+5E+07dsbqFUvFHjp6nNhRsYlHjx5bPJVeffqKvJxWLZqLPZT0OrGjEMLGzVqKEMKcObJj34GDwhiYO2s6ChX8RZe8CfS27TtBIXnz58wUoY+bt24TekL5c/nz5dWt3CQ75SdWqVEbu7dvMe2NJ5VHrwYXhd1duHARUydPQCivUBg9djz+OXECa1YuQ4QIEXTJ+/adO/i1WEmsW70CGX/OYHo/fYYMx9lz57Bo/hzdvpdOfsWzweUqML6eCTABJsAEmICrBDZv2Yo+/QKqFFISOW3Kq6ecLXmPlHPRs09fbNi4WfyJNoTt2a2rqYiDnmU3f05UfY6KfcgqhcuWrxQFQDyds2WtSxS2SaX4x4ybYDrUq0dXNG7YQHzWM++Jk6di5OixQk4Ku+vW2Rt1atfUvdwNGjdDwgQJRO6Tdcudv6BFzqKr776q62mD6Q6duorCKtRo8YOqFsrNpvWoJ5R3tmzFKuzY6h9GKNt/p06jYpXqOLBnp7gfPb6Xrj439nC5SpCvZwJMgAkwASbwP0Dg8+fPoPwiMri4aU+ASqvfv/8ASZIk9nhFPGfulkLbHj18ZDi5nblHPZ1Le1lRWJ55zp+e5GNZ/AmwwcWawASYABNgAkyACTABJsAEmAAT0IgAG1wageVumQATYAJMgAkwASbABJgAE2ACbHCxDjABJsAEmAATYAJMgAkwASbABDQiwAaXRmC5WybABJgAE2ACTIAJMAEmwASYABtcrANMgAkwASbABJgAE2ACTIAJMAGNCLDBpRFY7pYJ/C8QKFe5Bu4/eGi4W/35qxfOhfpmOLmNLnCG9Olw/sJFo9+GIeU3EnsjyWquDCy3e18N5u1e3mGTRcCnm+/dO6ii0Uj2g4s2KeotZN2wwRUybnwVE2ACAHL/UhQJ4sdjo4u1wWECRp0kOXyDOjzRiMyNKDM9epbbvS8A83YvbyMaXVLmYwd2uReW1WhscHkUPw/OBIxNgAwuar26d4aXlxe+fQO8vADauJM+yyY/6+X4oCG+QrR8vxQy9gMwmPSHD+xj7h54ZkbjbjR55SNlud2r3MzbM7yLjSzt/3uPb/AC/e77/97r9fMOb/9Nltngcq++8GhMgAkoJCANrt49uijsVfuu2ODSnrGtEYw6QfIMLXWjGo270eRlg0udrjrTE+uJM7RcP1fyLj6qjOudubEHNrjcCJuHYgJMQBsCgT1c31e65IqXTv9lg0sbfQiuV6NOkIK7L70fNxp3o8nLBpdn3gDWE/dyl7zJwwUKYKE0aAP8u9PbP3eLPVzu1RcejQkwAYUE2MOlEOb/QFdGnSAZ/dEYjbvR5GWDyzNvCOuJe7mbDK5Rpf1DCWVIoc7/ZQ+Xe/WER2MCTEADAuYeLg2616xLn6EjRN+cw6UZYpsdG3WC5F5K6kczGnejycsGl3qddaRH1hNHKKk7R/IuSjlcZt1KR5f8k94+7+zEHi51WsA9MQEm4BECFgaXf7WM78UzAv/7vZqGLo5zSKFH1AVGnSB5hpa6UY3G3WjyssGlTled6Yn1xBlarp8bKKRQrxaWlcXHIYWuP3vugQkwAQ8TYA+Xhx+AwYY36gTJYJgDiWs07kaTlw0uz7whrCfu5R7g4frdGMlb35PMdrGHy72KwqMxASagngAbXOqZ/sg9GnWCZPRnYjTuRpOXDS7PvCGsJ+7lbhFS6B/QIgNXdP0ve7jcqyc8GhNgAhoQkAZXz26d7IYK+u/Ppa/qhZzDpYEyONClUSdIDtyark8xGnejycsGl2fUn/XEvdwl7yIjfzdUDteuTpsFKK5S6F594dGYABNQSIA9XAph/g90ZdQJktEfjdG4G01eNrg884awnriXu2VIoXvHdmU0NrhcocfXMgEmoAsC5h6uAIHkxhzf//K9mIaejg8exlUKPaFARp0geYKVyjGNxt1o8rLBpVJbHe+L9cRxVirODPBwlfqewyV71VtdQkt5drOHS8Xj5z6YABPwJAGTwdW9s6FCDDik0DNaY9QJkmdoqRvVaNyNJi8bXOp01ZmeWE+coeX6udYhhQbZ9xjs4XL92XMPTIAJeJiAbQ+Xh4VyYPjBw0aKs3gfLgdgKTzFqBMkhQg80pXRuBtNXja4PKLWht1mwuj6XWREKYgVVoNYXLs7bREKyjlcnnlPeVQmwAQUEAg6pND6G1kOaO+b2n3HOaRQwcMPQRdGnWiE4FZ1dYnRuBtNXja4PKPurCfu5W4ZUmj9e63fzxxS6F494dGYABPQgIA0uDTo2i1dsofLLZhNgxh1guReSupHMxp3o8nLBpd6nXWkR9YTRyipO0fyVteje3tiD5d7efNoTIAJKCTABpdCmP8DXRl1gmT0R2M07kaTlw0uz7whrCfu5c4Gl2u8vb7RBjncmAATYAIhICANrh5dvQN2njdVJfweOqjDz0M4hysET9v1S4w6QXL9zj3bg9G4G01eNrg8o9+sJ+7lLnn/OqKkewd2cbQ9nbeKHtjD5SJIvpwJMAHPETAZXLTxcRBiWBeNtT7V3ce5aIZndMaoEyTP0FI3qtG4G01eNrjU6aozPbGeOEPL9XMtDS6rBVW5sGpvgdWDx/dw0QzXHz73wASYgGcJWHq4PCuLM6MPGT5KnM45XM5Qc/1co06QXL9zz/ZgNO5Gk5cNLs/oN+uJe7lL3oXNPFxWu26aihdKyfRwnD1c7tUTHo0JMAENCAQYXJ1gvYAlPstAw2/Q1XH2cGmgDA50adQJkgO3putTjMbdaPKyweUZ9Wc9cS93c4PLPKJF39seA2xwuVdPeDQmwAQ0IMAeLg2g/sBdGnWCZPRHYjTuRpOXDS7PvCGsJ+7lbjK4fEv4r6DKJVUqBaHjz3s5h8u9isKjMQEmoJ6AYwaXdVCBtRzuP84hhep1wZEejTpBcuTe9HyO0bgbTV42uDyj/awn7uVuK6TQvRKEbDQ2uELGja9iAkxARwSkwdW9q7fNjeelqPY2pPfUcWlw6Qgli8IEmAATYAJMQPcECvmWsJ0iYC91wMN/39t5m2DKVQp1r1osIBNgAvYIOObh0h8/Nrj090xYIibABJgAE9A/gcIjSgRsA2NzqdXeEqtn/s4eLv3rFEvIBJhAMARMHq4uHc3ONIvtDiiboavjQ339qxSuSpcZXvDCN3zjf93AocLFU4L70kVzTfrg5eUF8+0g9fw5ZfJkuH7zlmHkJcjEs2rNeibueuZrS16pKCy3PwktOJjrB/PW/vvI6LwL+f5mKINrXxf2cPFklgkwAYMTCDC4vP1DDKyrEur0s/RwrU6XxeBPwFjiS4Nr2eJ5xhL8u7QpkiUVBpfRmpzgGYW70eSV+sByu/fNYN6e4U0hhUbKIdjHIYXuVRQejQkwAfUEbHu41I+jusehvqNFl6vSZjaUoSiLQRnFsLWWt8LF0yZPi5FW0qUHjj1c2nhYrD2cRvcAGM2Dy7zpG1U7D+KPpt8FfX8zQCBhwALwvi7bxcPlHC7VMynujwkwAbcRsDC47Li4/PfnklmzgV1enjg+9PvGx6vTZTZUaISZD9GQchvdw+W2F0vxQEbzBBhNXvZwKVZYB7tjPXEQlKLTJG8RUmigjTfZw6VIAbgbJsAEPEdAGlzdunQUK16y6X0jxAAPVyZDGi5GNbwqXgrs4fKc9v7vjFytVv1AnkU9373R5JUsWW73ahXz9gxv8nAZqe1nD5eRHhfLygSYgC0CRg8pXJ2WPFzc3EWggpnBRcn/JgP92zdRDIA/+xMgj7BKHtaeANX9q+7PusiHUfSC5Vart8HpFfP2DG82uEL2i+n1zTy4NGR98FVMgAn8jxIwebg6dzRULpTJw5Umkyn5V0ZIyOB0/kwT/wAHoAoeFS6dMZSn5Ud5rY3mCTCavOzh8sybwnriXu6S9y++xQ1V1Zc9XO7VEx6NCTABDQgY38PFIYW2y01ps1+KPQ9XQIikbQ8PH7cM0rVe+Q+OT+BcF9f6C248V4/b81y42q/W17Pclh4X5m37+8zoesIerpBNptjDFTJufBUTYAIAAjxcHYLgIfflsjxl2IgxShh260x7gAVUmQrcaeDx5dir0mTkHC431puqeNnYHi6qUnjtxk0leuvOTozmCTCavOzhcqc2B4zFeuJe7iYP1/DiAQNb/7w68fn0lBN4de15iG4iasoYyNwiR8B6oezFxvgHuuwQR7lKYYhQ80VMgAnogYB5SKGzoXjDRviXZu/epWOIQtdcud48pNDeNs2e/vvbz59R6+ShYB9z5DBhsDB7fjeaTSEv2VHBhsEVko1cX79+jfoNmwTPJvJPmDdnlrKNil0tC//y5StUqlINkSJFRLhw4YX8L168EP9Gjx7d4vOObZvF55DwCaoMtbP9vX37FvUaNHaI9dzZM5XLa5pHOblBNsvtT86R562iLDzz/t/hTSGFKhoZQlFTxcCrq84ZXfIaR+Vgg0vF0+I+mAAT8CgBxzxctkWUXqZunYPyjtm/PVeuN3m4Umd0Z0SdU5bKx29fser+HZN8Tz59xN/3bqFRkhSIGCq0+PuNd2+x6+kjbM7zq27vw9wSrHj5rHig5vsUhUSBP378iDVr15kuffr0GZYtX4EG9esiQoQI4u83b97Cnr17sW7NqpAMYfMaVz1cT58+RbUatVGqZAmkSJFcjDFl6nTxb4vmTcW/+/cfxJmzZyENLhXCu+IJ8ARrV+SVvFhuxzWHebv3u8TovAsML/Y9h0v+7HwL0ecDXf09T872F3Ad5ZLRz2rQ48vz2cPl+HcCn8kEmIDOCFgaXN99Qg5WVzAZTF06hqg6gyvXD5MbH6fJaDP5V1pGAV/k8gvd/19PHL/l9w51Th7Gxjy/IkqY0CIU8vCLJ+h78Qw25/3V4j48IR9xkbzsjR+Uh0uuxNtbkQ/q+M1bt9CwUVOsXrUcUaNEER6tY8eOY8AgH6xfu9pU9U/mPll7gMz/HpLxHb3+1evXqFCxCubMmoEkSRKLt3n+gkW4ceMG/urTS8j5zz8n0G/AQJOhaH3fIZHPOmfEUXlt8bp95w4aNGyCNatWIHLkn4QH5ejRY4I1Gbeq5ZVfea72y3J7WbwH5lyD8nCF9L1k3j8ub0c9S8FNV6Tnydn+nL2OPVzBPQk+zgSYgO4JSIOra6cOTlcpHD7SP4eLPFxB7Ivsb97Y2DfZlesDPFw/GyaH6/yb12h++jjW5y6EqGHCCLkPPX+C/pfPYnOewoa4j4pX1Hi4rF+MCxcuonXb9li1YimiRo0qDh8+chQ+g4co9XC5+kK+fvNGGFyzZ01H0iRJRHfz5i/AuXPnMXSIj2Zyq1hRl/fuDtYq5YwemfUAACAASURBVGW5g9da5h3AiPXbvr5IPSGPlIp2sOtO0Y3s78yUk3ZzuihnK1OL7OJ86+uCk0Wezx6u4EjxcSbABHRL4IcIKfxO117OloTvqeNvv3zGsvu3Mev2dSHK8PRZkS9GLGGITrp5BYeeP8W8bHnt5nB5Wn7z8SsoNrjevXuHFStXYc7c+WIYn0EDkC9vHvH/06bPEEbXrBnTdPP+fP78GaVK/4m+fXqhcOFC/s/TdyS2bN2GrZs3IHTo0Jgxczb27d8PyodS1VRMqN3JWoW8kh3LHbwWMW+A9cRxPfE3kKwiWmRki70IFxvHD5qFFNKK7UE7OV1kbFFxDTHu9/NMhpp1vzbGp36pscEV/DPmM5gAE9ApAXMPl7NVG6SHqivlcIWgCrkr1w//XiFxVSrycFlZXDr5/BXfsObhPUy9dRXvvnxB7UTJcPHNazz88B7VEiTGs8+fRE5X2bgJ0TpZaoeqNVkUc3SimpRAouD8ilfOia5czeH6+vUr1q3fiBkzZ+LdOz/UrFEdly5fxsOHD1GlciU8f/5c5HT9UaaMKTdKL69Qi1ZtEPmnyOjYoS1ev34jPHPp0qUF3VPq1KmwadMWVKxQHm1at1QmsisTak+wdkVeCY3ldlx9mLd7v0uMzju/yOEKaJabTFhvBmD/s/Q8yf6sP8sRrD1a1p+DG589XI5/F/CZTIAJ6JSAyeDq3MHiC9haXOsvRDpuXvTC1nHzPlRfbwopTPWzf86JTLr95r+PjB4+v/n8BWWO7UWJ2PHQNGlKJAgfEU8+fsCAy+dw8pV/VafCMePgrzQZES4UZVCZ5Qzo8H5IPlUeLhmaV7xYUTRq1ADx48XD02fP4DN4KP7775RgU/CXAujZozvChw+nq7fn1OnT6OjdxSRTkV8Lo1XL5hg7bgLOnjuPvHlyo13b1qbiHyqEd2WC5wnWrsgrebHcjmsO864Cd36XGJ23ViGF9kIFgzO4gtN0NriCI8THmQAT0D2BAA9Xe6dlHT5yrLimayfnr6XrXLleXrsqVQbd5j59+voNV9+9QfrIlJNk6QJ8/fkTwniFQsTQoXQrv62yiRWv+nu4/l44x25xBXvFEcz/ThXorl+/gbRp0wTq583btwgdKhQiRYpks1iGI/3bKipB18kqhfaOO/r3R48f48yZs4gWNSqyZcuKUKFCucQjuHHlBC8k3CkM8urVa0ifPl0gnlQEJGyYMMI4dIWrtfyuyCvlYLktizYE9XyYN+u3I++v1JP8w4oqqYp7qOsu8Xsg+7P+LH/2HD3PXqSMvJ5DCp2epvEFTIAJ6IWAhcElYqfl/N9GlQur4yaDSYQUBn++dVUOV663GVKoF6g25Pj67RuefvoowgnDhwqNJBEjIgKVhjdYkwaXqyGF1rf94cNHPHjwAF6hvJAgfnyEDRtWEzKuloU3F4r23/r8+YuFnFT1T5a1V3kDrq6ok/GybfsOpEyRQoQ/at1clddaPgovpK0DHj16hPDhw4sKkfSv6qZabtXy2etPhdz0Dl68dBFZMmcOUmzy8AZ3jqP3rUJuR8a6e/cuZs2eiz69ezpyerDnuEvuYAVx8gSTwTW8qJKFvkPfi2bk/96f9Wc5oXD0PHu5CfJ6NricfOB8OhNgAvohYHgPV0rycOm3vf/6BYvv38bsOzcCCZkkQiR0SpEGOaLG0O8NWElW8dp58ZeQeFpslafevGUrFi5agvv371uMlCxZUjRr0hh58+ZR6nlR4eHau28/RowYhXd+foGeG4USli9XVrlnzhUPBgnZrXsv/HPihJhwUghkcB41V4+7Iq+5nrx//x5Lly3H3HkLArFOnDgR2rdrixzZsym7HxVy0wbCjm7qTdsLOOKZCO55qJCbPMtUgZNyKBs2qCcWDszH9fPzw+Sp07B79x6sXb1SN3IHxY886ZQLSsZWypQpMG3KJN3I7Uk9yTesqFj/lAuscr3U2c/S8yT7s/7sqIcruPHZw2WYKQILygSYgD0ClgaXvTp+tv8eEBJIGx87XzXDletlwY1VZHDZq3Kkg78Pu3oBGx7fR8NEyXH53Rvsf/4EeaLHRM0ESbD58UNsefIAnVKkRfm4CXV9H9KDqdLDNWLkaGzavAUVypcTk+Y4cePgy5cvePzoMfYfOIgdO3ehcaMGqFWzhm5eYFmlME+e3PijTGnEiRPbQrZ4ceMievToyuV1ZUWdQjebNGsB32FDkCOHf1lmrZsr8prLNmLUaFGEpF7dOrh69SoOHDyE3Llyolq1qti6dZvw2nVo3xZl//xDyS2pkFvmnlWtUgmxYsWyKRc9E6pkqWpTbxVyk6Dbd+zE2HHjETNmTHTv1gUZ0qcX8v/7738YOtwXjx8/QWfvjihdupRueNsT5L9TpzFq9BjcuXMXTZs0QuVKFZV5zlXw9qSe+HukXG+mUMHv/Vl/liM4ep49idjgcv1ZcQ9MgAl4mIA0uLp4t3c6ptt3lH8OVxfK4XLe3oIr1/t+zx9bmSK9bopkWBe9ePzxI6qcPISR6bMgV7QYoijGy0+fUP2/w+if+mfkjR4Lc+7ewLYnj7Aga25DFM0w93C5oro02ahYqSp8BvYXXixbbfWadViwcBGWLlkocqT00GgzWNqgee6cmUiUMKHbRKpeu4EYizyLzrazZ8+hfcdO+HvxArsGgLN9Bne+K/LKvh8/foyateuJ/c1y5cwh/vz69WvUrlNfeOpy584l9IOMBPIUqWgq5Ja6PWP6FCRPlsymWEfEHnNDsXbNShViQ4XcUpAnT54KQ+XoseP4rXgxRIwYEevWb0CuXDnh3aEd4saNq0Rm6kSF3J8+fRLbMpi38+cviL9R4Z2WLZojXjx1MquS25N6km9YESUhhYe7+edwyf6sP8uJgaPn2ZtIyOs5pFDZq8cdMQEm4G4CJoOrU3unqxSaF70ISZVCV643Fc3QcUjhqdcv0ebcSezIXRhhzQwG7wv/IVuU6KiXKBlu+L1FvVPHsCJ7fsQJpz4nRbU+SYPL1RwuuTnp6lXLESVyZJtiXrlyFc1btsayvxcjZkx9hF3SXj9ly1ey2PhYNWNb/bmyoi5lLvFbcVSsWB6x7XhdvLxCKePsirzy/k+fPoMO3p2xeeM6C89E1+49RQ5Rndo1cfPmLTRq0gxLFi0I5G0MyXNRIbfkPWnCOLv5cnv27sOIkaN05+GSzCiUsM9f/XHo8GHxpyaNG6JG9WpicUtlU8H7zZs3qFm7roVYtNUEeZqHDfERWzWobirk9qSeUAigzW1gTApgxx6zOn74e9EM2Z/1Z7kQa/r7d0+YvfNMz8lqAVeezwaXak3m/pgAE3AbgQAPV7vv37BmRTOkCSYiCs1Mqu+ffUeNE3L6e7gCH/f/RrffnyvXW3i4bAQ0Ovm7EchBp+L6l58/oeyJg/BNlxl5osUUNF59/oxq/x1Gl+RpUTxWXOx69hh9r5zD9tyFEU6UszdREyLYcxyqkC8k/Ve8fkEMbelpsdzgS+ZUBChx4OMUmkcerlKlSqJJ40YWpd/p+levXmHUmHGiSMLE8aRnROK7OhEnoW+mv7jtOIU8jhk3HufOnUftWjURQ4QPBtxf4iSJETdOHOXyVa9d34y787zJCzRk6PAgv1ciRYz43ePifP/Wz8NS3pA9p1evXqNSlWoY4jNQeLOI8+s3r1G7dj107NgexYoWwe49ezFw0GBhlIUJQ4VWXNMTFXKT/tap10DkQlE+n/UGeHR80uSpuH37Ngb7DLR53Fn9ViU3jUt5TwsWLsaixUtM+kLGS5fO3mLLA5XvnUq5zeW6desWxo6fILaYoOdQp3YtUEEbsx8kl75PVMntKT3x90i53g532y06kf1Zf5YjOHqePYnk9Wxwuf7MuAcmwAQ8RMDaw+VMZKA0eqgsvDPXyemcK9ebPFwp0us696nv5bPCqKqfMBmihQ2LtY/u4eXnz5iTKRcuvnuDrhdPoVK8ROggNj6mKpGy2qM+/1Xl4SJ1p+ITviNGIly48MiWNQvix48vcriogMaJkyfFG/FX717fJ9seekGshpV5F/akade2DcqX+1O5sCpW1KkK3Y2bN/D+/Qeb8oUJHRoZM5ptJO7CXaiQl4YnY4qMqrp1aiFq1KhYv2EjXr58hZnTp+DSpcvo0auPyAFs26aVC9IGXKpKbspPvHjpEkaNGI4oUaJYyHbv3n20bd8RlStVUJafqEruixcvYfDQYSLvifaWow28yQCbPmMWVq9Zi1IlS6Bly+Z2vdLOPgRVctsal4zHrdu2Y8LESeI7pk2rliha9FdnRbR5viq5PaUnwkBS8HsT4Kny78/6s/w9c/Q8e79/7OFSorbcCRNgAp4kYOnhck4Sk4fKm7xjzjdXrpfXrkyezu4Ph8nTYueHxR3HP379gml3bgij6/HHD8gfPSZaJU2FpOEjYsOTB3jw4T3qJkwmvFvWP4DukE+spDvBp5JND5fzz15eQfkiVDjjxs2buHHjBsKFDYfkyZMhWbJkKP17SUSLFi3kndu4MlWK5Lh6PXDFSGcGsVWdUF4fLmxYhAkTxpnuHDpXRa5LUAORIXnv7j1lJeNVyUv5OTNmzsbevfvw+MkTke/XonlTJEmcGBs3bcbDh49Qu1YNhAunZnNsVXKTLrdr742YsWKierWqSJUqJeheKEx2/oJFwtsy0neYspw6FXJT1bzyFasIHejWpTOSJk1ioTLH/zmBocN8ETFiBMyfO9shvQ3uJBVyBzfGy5cvMW36TOzbt193OXOe0pO8w8jwNA8PtRdbIenaPn7ku4dL9mf9WV4d8Hd/z5r154BYDtvjyfPZwxWctvNxJsAEdEsgcEih476qAIOJNj52/DoZYuPK9bLgxirycBmk0V5coRTnQLj71s1DClWUsw6u3LXq4yrKwpMXzp5cVNyD/rtz967YT0zVhsiulP0meanYR4rkye3KfeToMQzyGazrct+SuZZ65wpna7nu3buH4b4jceas/2bhslGFy66dvREjRgxdlbP383uPVatXi1wte3pLob5Uor9N65a6Ka8uudNebRSqSXr+++8lxcKH+XtKHlFbG62HRJ+Mrid5FYUUBm9I+Wu9o+fZ+z1jg8vdv/Q8HhNgAsoJSIOrs3c7mzm0QZlRI2QOl3e7EJhbgCvXW3i4vlOxzDyxzpzw3Oe7H/zw6MMH5Iga3SzDBMLjZV4oQ6/yS6Uj+SreuCg+hqRani3lpVwuKlmeKlUqse+W6mpi1mO66uGSlcXsvYi0D1emjBnRrEUreHdojzJlflfyzrriCZAyFytWVITmkXfIulFFukGDBuvOAyDlpIqFd+7eAxkxNEFOnDgxEidKpKzIhxzHFc72HjR5tsiDGyZ0GOE1Ch1a/YbnKuUmI2Xf/gNCT1KkSK5Ef+11olJuCn0s82d5MRTtudWxfTtkyKDNgpxKuSUbd+qJv0fK9Xak2x7RiezP+rMcwdHz7Btc/uOwh8v1Z8Y9MAEm4CEChvdwUUih06aic/uNudL/8VfP4H3xNErGioveoqJigAnb8vy/ePvlM0aly4rYYSnh331yhcQjSfJVvBFQNCMkK8PWnqEPHz6ISVKCBPFx//4DNGvaROS20KRURf+qPWRkIFJolb1cA9qwOVbMmKKM9q+FCyNWrJhK7sOVFXX6aqH9q+bOm49r166LPBwq+JEoUUKTB0CvHi7yqJDXgvbbstWqVa2CBvXripBCFfriCmdb45N38dmz53j46CEihI8A2qzZekNhvclNE//Sf5QTuCmHi/j+9NNPSvhav48qeUu5hw31wf79B8U7WK7sn2jUqAEiK5ZfpdzE5OrVa6LKJoVQq9AHe997Um4OKQzZhMvrm2U5m5D1wlcxASbwP0nA5OHq2M7p+f6I0f5VCsk7FhIXlyvXS+/YymRplST/alGs4puXFyqePISiMeOgVZKUojT8ww/v8f7rVySLEBE33/th6PWLiBImLIanyajb+zDP8aqk2MMlV6UnTRyHu3fvYfTosWIDZNpcVavVaSO+6CpW1GmqQIbX7DlzRTl12riZNpUmr6JePVxUXOLFixeikiUVVqHCGdSeP3+Ow4ePYsrUafjllwLo1rWzkseqgjMJQgsJfy9djnnzFwSSi4yu9u3aInu2rEpkpk5UyU19yXeSFj+2bN0qipRQUZJfCxdSJq/sSAu5J08ajzSpU+PsuXPwHTEKb968FfuHFSiQX5n8quSmUN+O3l2EjlOjQiUlS5TAzNmzcfLkv6IqZKOGDS2quLpyE1LuPEPNPFwuhFYc7e7veZL9WX8WB72Ao989YeI8G58tQj9syCOvZw+XK0+fr2UCTMCjBH6EkELXU38DHkHIUodtX//g43tU++8oVmXLh1hh/ZP659+/jSvv3qB/KvJ2AaffvELr8/9iZ65CCBNEWXg5gkr5qE9n+7MdUhjyMuJycicnSRT+NnPmbFGNrnKlimjYoB4iRIjocrlvV8uFy+v9/PzEhrXmRemtX2BJo3rVKsiSJbMGZb9Dzls882/A/v37MWfefGF4UZU/KlQybdoMXZWFf/DgAerUa4gZ0yYjeXIKbQt83wcPHUafv/phw7rVCB8+gst6oqrcN1Wfo2Iw9erWxpWr13Dw4CGxcTDpBFXOI49d+3ZtUPbPPzTQD6mRIdOTgHdyAlIkT4blK1ZhxsxZyJc3DyhkNmDj45D1H/C+eEEVb1nOnrzlkydNQJrve2+R1+vvpcswZ+58lCzxG7p26aQr3k2btxR7zLVs3gxXr13H+AkTkT9fXjx7/lwsMKxbtwElS5YQOXO29D+k2wfkMQspdMHeCjCkvvdnMqys+pchhTQujWf92f4mH/53Lc9ng8uj00UenAkwAVcIBHi42jod0jZi9HgxdGfyjoXAxeXK9dI7JjxcOm233vuh7pnjWJ89P6KE9q9c53P9Im74vcP0n7OLz5ffvUGTcyexJUcBRAilPrdDNZpKNy+JLlXkcJHxQpO7ylVrYOzokRYblJ7891+MGDkG0aJFxczpU1XfRoj7I88Flch2pNEEj5L0VTRVK+rmslCRAcrVIY8XlQEP2IfLdYlVyEvGYOOmzbFw/ly7uX20z1KnLt2wauUyJaXKVchN+WY1a9fD0CE+yJUzh4D5+vVr1K5TH3169xTbHCxYuAi0N9qcWTNch62Rh0sugpCAd+/dw6jRY8W+Vt4d26NMac/nJkpwtIFwl2498PXLV1y+cgUU1hspUiQLrjdv3BSf165ZqRveFC5bqUp1TJsySeScid+HwUOxa/cerF29QtwDbZ0xYsQorFm9Qsmm0wEersJO/97bCoEJ8Gj592f9Wc4LHD3P3jxCXs8GlxL15U6YABPwBIFAIYWO73sMafR0oaIZzu977NL1smjGKmFw6TP36es3oMg/+9A6SUpUj5cIt96/R7PzJxA9TFhUiZsQuaPFxKy7N3D9/TvMy5hTt/dhzrfizcBFM6w3Onbk86vXr8XGx8E1MgLWrV1lsZGwI/2br/z+COfbyhmR7Fy9P2J16PARsdn076VKmnJIXOnfXF5X+qnfsDFiRI+B1q1aIE2a1BZ6QJP/cRMmImGCBBg4oJ9u5D5z5iw6eHfGpg1rhfdCPp9u3XshS5ZMYhPeGzduCmNy8aL5gTbKDsnzVMH748dPwhCkvDPyCpX+vZRF2fqvX79g46Yt+Pj/BYDIcAmJnNbvpRZyk0codqxYgb5awoULK9jrRe7r12+APFzr1qxExIgRhVxz5s4TRhYtMtFnWnRo1KQZVq9cjihRIrv8PSh5m3u4gvsODuq4tUfLloeLrnf0PHtjcUihK0+Jr2UCTEAXBKTB1aljW6fNlpEmD1fbEPi3AFeul96xlUnJg2DH4JL7S3nw+PrH9+F78wpihAmL558/4beYcVAuTgK0u3jK9PwnpsuKTJFpc1Sr+9CB/AGWtL9FXemWv4dryYLZQa64yqRte0pOxSf+/e+U8HD91be/2JQ0cRKz6nnf9wej4hm2cl2C69/ecVmlMKTXy/uxdf1AnyHIliULypb9w1SMwt79Ozt+cJ4XZ/uTctEeRbdu30aa1GkQIUJ4u99JzvYv5XVVT0g2ysM5f/6C8MAlSpQIX75+EcU/qGXOlAmdO3dEooQJbcruCbkp56ly1eoY4jPQtGk3hcrWrl0PHTu2R9Eiv2LPnr0gfdm8cZ3Nfds8IbfwFHXtAfJ8kqeIcs2oWIZF+wZEjhwZVJjCVvOE3CQHjUvfKVTsY8qkCRbecnmcDBjV76Mr+v3+/Xv8Wa4ihg8djBw5sot76Ny1u/Aizp0zU+j08hUrseTvZVi+dLFS3rmHkkfK9Xas+17RiezP+rMcwdHz7Ekkr2cPl+vPjHtgAkzAQwQMH1KYNK29fXt18/d/37zA0ZcvkOGnyMgXLSbChQqFF58+4dYHP6SO+BMihQ6tRc0OTe6/osKQQlJ5miQN8hmCpk0b2500q3w1XC0LT7JQgYl169bj3v37FqLRanT06NFFGGTrli3EJEpVC87gCuk4VFCgabMWovCEf56ImqZSXvK4nD5zBrdv3xGhj2HDhhFl4ZMkSYyfM2RQEmol71qV3GRMkVFFHpWoUaNgw8ZNovgE5aNdunwFPXv1Eblzqpirkps4mBeySZtGTUisPa1SKbcazXWsF1Vy9+s/UOzTVr1aFVy+chU7d+4ShWxWr14jwgzpGBXSqFSxgmOCBXOWlNvc4DLtey8TA7z88zxlC+q4uSFF5uxRKwOM+qDrj3YLMMxsfRbra0GML69ng0uJGnAnTIAJeIKAuYfL9AVrkXpuf/8qaw+VO6+39HB5gtz/5piVbl0WN64ih8sTBF01uGgVumr1WiKnKHv2bAhtlne3c9cuJEyQEOnTp0PRIoW/F3pQc5eqJni2pKFqbu07dMKggf2QL29eJQKrkJeM8TNnzyJL5sxiI153NBVyk5xUrGHGzNnYu3cfHj95grx586BF86Zib6uNmzbj4cNHqF2rhihnr6KpkptkIR2/dv262OcsfHj7Xk+9yU35lVRERRjmd+8K8ZIlTYJkyZKJQhQq9z9TxZs8nyNHjsb+AwfF1hjeHTsgS+ZM2LlzN06fPYPs2bIJj6iqFmBwUcVJ+x6/wOWUrCXwj3iw77my7N95D5dlOSf2cKnSAO6HCTABjxGw9HA5ZzIFLnrhvutNRTOSpoEXvPAN33T374ev3zD61hXTs/3y7Ru+4hvCegVMHr+Iz17omky/92HOt+L3kEJXDS6aTO/a5V9SOKgWJmwYpROO4MYL7jjtqVStRi3MnztbTJDM28BBg5E1axax94/q5soEjyai4ydMClKkw0eOiuP2QpecvR9X5JVjyQ2byWv45x9lUKxoEbFxsJZNhdzW8lGIntYGoxZyf/jwEVQpMlQoL8SPH1/ko6luquSmkNPBQ4eJvfyoaAbl9ZFnlLzQ5BVNly4tunfrYnPT75Dckyq55dgkq0qD0N492fJwheT+5TWOGlKOnmdPFja4XHlKfC0TYAK6IGDycHVo4/SK18gx/lUKO3WgCofWBcatby/wcVeul9euTJJat8Um/L5+Rf/rtFGwf7DEoZfPBZT80WKaeB16+Uz8bU+OX3R7H+a5ZZVu+3u4ZO5CSDcWpqptFStXC/YdkJXzQjqO6utoYkST0AQJEohJtHn/tDdU2LDhTMntKjcwtc6Jcua+KFeEjMHgGiXu9+7VQ8nGq67Ia87t8uUr2LN3r8hjoZYubVr8/ntJFCpYENGjR7Pgr4K3CrnJwPrnxEmRexgmTJhAPCl3MUP6dEo3QFYhN/Ej2als/cJFi4XxYt7IkKH90Mhb5Iz+BfVcVMhNMtaqXU8YVS1bNBfeZ3P5bt66hdFjxomNp4cOGaQr/bbH8e7du9i9Zx9KlChuKqqiUr9zDSmkpNbU8e77hIrI/qw/y2mBo+fZSwaX13NIYXDf4nycCTAB3RIwfEhhkjRKfjhCVPXDyeKI0+/dwJ0P79E/ZXqTfXr05XP0vX4Bm7LmN8R9qAoplN6LGdOnIHmyZOL9mDpthtjQllaiqR05clSUSVZVylmLl3DylKmIGDESGtSvq0X3pj5Vr6hrKqziMuUk66nTZ+DdqYvwHm7fvgPv/PxQqFBBlPitOHLnyqnM+6KCs9Rt2nerb59eogKdbDTBLlGqjCgAMmb0SFM5cFefhwq5SQbaP2zzlq0iv4xCZuPEiY0vX76CSt1T2BvlGDVqWF/kGaloKuS+cuUqWrRqg6VLFiFmzBg2xSIPGG2ivWLZ3yLH0tWmQu6gZCDDt1v3nvj67Rt8hw1R5iGVcucaWkhJRIj0PMn+rD/LyBNHz7MXqcIeLlc1lq9nAkzA4wQCe7ikJyr4f0eOmSDkt/RwBX+dtCxcud7Sw+VxjA4JMP3eTdx+74cBZHB9b+T1GnDjIjZlzedQH54+qdJt/xBJVR6u6dMmI0Xy5GJFetr0mWLDzx7duojPR48eMxlcqlbUVfcz3HckIv0USRTJULECbU8+FZ4ALeWzllu1vFRqnQpN0H5E5GUkD9KOnbuEAUBt25aNSvirkPvN27emLQ8yZEiPwYMGiMp+kj9VhqQQzxs3b2LGtCm6k9tnYH/kyZPbplyr16zFgoWL8ffiBSIEztX3SQXvZ8+eoXrNOpgwfozwgNrS8527dmPMmHFYvmyJyJvTg9zBvY9Pnz5Do8ZNUbNmddSoXk2pnrCHK2S/pF7fSHO4MQEmwARCQCDA4GrrtIfFFBLYsW1I9j2GK9fLgh16Dim0Bvr3w3uY8+AW1mfJh9AiX9kL5PXa+fwJFhtkHy4ZUuhqDteP4uGSBheVtdeyqVhRp6kC7bd16tRp3L5zR4S0pU+XVlT6y5jxZ6Xiq5DXXKCzZ8+hR8/ewttJ+xft2bsPW7ZsFQUpqG3fukmJ/Crklro9epQvpkydDgrpHDZkMGLHDtgbivg3WfkOOwAAIABJREFUbNRUVx6XCxcvok3bDkFuIu2IN8mZB6GCN43XvWdvnDt7Do0aNUS2rJkRJ04cER756PFjHDx4GHPnzUfZP/9A+3YUOu96UyH327dvUb9hkyCFefHihSYbkpNHSkUzhQp+78/6sxzD0fPsycQhhSqeFvfBBJiARwlIg8tb5HD5N3uRctbHR5k8XG1ERJ47r5fesRWJUykJjXBH0Y3zb9+g5aVTqBUvMUrHioNrfu8w5vY1FI4eCx2TpDTEfVS6E+DhckVx37x5I3K4yMNlEVL44gW6d+0suj5y9CgGDx4mvBqqWuqUKXDl+x5OKvqkPaIiRYokNubVstWo01B0T57FkDTi3fuvfiDDhfZXSpkyJWjfJZqkUngelaVu3KihshLrrsprfY9bt26D78jRSJY0KSgnh/4tXboUivxa2GJz3pCwMb9Ghdzmuh0ndmz06tMXjx4+wuDBA026TiFu7Tp4Y9WKZYgc2WqvqxDchAq5yXNYqXI1lCpVEo0bNQhUoZDyLikX6tGjx8KbpKKpkJvkoAIf8xcsFBs222r16tZGtapVlFVdVCE3ld8nj2FwjSpFli9XNrjTHDou5c45pKBD5wd30j899otTZH/Wn+X1jp5nbzx5PedwBfdE+DgTYAK6JWD4kMLEVDTje3PUUrQ+z43Xz7t/GzPv3zKJnCriTxiTOhOihgnjuKXrQfllSKGrHi5a3aW8i6FDfEz7b+3bt19M/kuVLCH40Aag5CGYPMm/OIuK5mpZeGsZZs6ag0iRIqJmjeoqxLPbh6sr6lQ049ix4xg4oJ+opGje1m/YiDFjx6Ne3TqgiamK5qq8JAMZABs3bsbW7dvFxsfUqlapjOLFigba2FaFzNSHCrmtvbdUJdJnyDAcPHhI8I0RPQYWLV4iKv+RF0xFUyE3yUHvIC0ihAsfXuhJgvjxRA7X/fv3ceLESSFqn949TRs6uyq7KrmlHGR43b9/D3fv3UeY0KGRMFFCJIgf3+bm0q7IrlpuV2Rx5lopNxlIwYU0OnJcep5kf9afZeimo+fZC/VkD5czT5nPZQJMQJcETB6u9m1sT/il1DZSs0aN9c/hEt4xe6lbGl0vvWv+Hq6AZl0LUY+fn376iIvv3iBuuPBIESESwtBOkN+bHuU151vpzlUhaUg9LZ5+CVR7uNx1P66sqJNnolKV6ujf7y8UyG87V5Cq0m3fsROzZ05XckuuyCsFkJ6iXwsXQsmSJZAjezblE2frm1Upt7n3lozHVavXYv78BWJRIWeO7P/X3nmAW01lfX9dpEhTaYKiFKkC1hl1LPPOOzOOXUfpVqR3AVEs9C6ioEivKgLSxVGnv9+MDduIXXpRQVAUVIqUge9ZO2fn5OQmJ2Xv5Jzc+8/z+GBudln5ZScnK/+116YBA+6jypWckzwEvQg67JZ97t79Hf3lr3+lrVu3if94zhNnKKxTpzZdc/VVdPLJJwc1z7W8Tru1GeWjoaTbDYXLx0V2KII5XOG4oRYIgAARWUMKnQSiLP4S2UMK46wvQwpXnFEvEenUQ01ycw3uDJgeUWM7MqRQVeHiL5n2tNNON2SJE0pQjerV8+Ze5RdnTuDgttWsWVOkK+eEDpdcfBHxGlI6NpUv6hxG2Kdff1q1chmVL19ezG357vvvqWqVKmYIoZy/s+T5BVS5Mi9boLap2Ct7Zjv3HzhAFStUUDMmQG0ddvMY2bBxI9WtU5fKlCm8sDEviqx7TSsddgfApK2oDrtZQZz01BTTJubP2f1KcdRAauOxxEk+7uvfT4vtOuzet28/3d0h+xwuNpZDTp+eO1ur3cLh0vAz8p8HLSGFBUT2ffkh1m85tw+3sj5CCrUMAzQCAiCQCwJphauni+Pi7nJNeNL4kbuX1bEQEpdKfamuLa+ZjLlPccwRi2MB6Obb9ShcUr3wGvOcPlvnHC6v/ryOe9ndu1cPata0CXXt3ov69ulN1193rVeTvo6rfFHfvGULde3WU7y01ax5Ou3atYvuuKs9LV280HQI33hzNQ0bPpJefGF5RhpzX8Y5FFKxVzYnFsf+l4/FsUvqWxxbh91hmanU02k3Oywcfrpx0ybiddDYOWzQoD41bNBApIrXuemw++DBgzR6zDjTLJ77ydslF19c6G+czVLHpsNu+Sxp2eIW13mIW7Zuo9dfe13bM1DafeFYPes+vp+awyXbs+/L9wK/5dzeI2R9OFw6Ri/aAAEQyAkBz5DCLFnefYUURlRfqmsrarLC5bLJL3g47kwgBB+rw+Unxt8tJp9f6jZt3uz4+8oOwfCRo4XNPHmf50eppnHWWX///gOu9rCiwYvdrl+/Qayx5LTwbRhuKumzDx8+Qq1atxXJEHp070q7vvmG7rjzblq2ZJEID2PHhud47dy1i2ZMm6JlboeKvZKPNb16toejdMrDcI0inT2PD6tywZnmeLOqnfJv+ZTOnvnx3Moxjzwq1sBjexs3biTGh0yuwh8Q+KMCq0X5wttux9x5z9D2HTtoyKCHzfv0nXffo1GjxgjHJV/sluOb1yLkJDBOdr319ttm4iCddl/Ic7iyfCb1u7iLTGYh27Pvy3b8lnPrF0kzcvJ6iE5BAAR0EvBWuNwfvf4UqmjqZypcRSVgL//Po/n2zWL4RTWHixUNXi+ncpXK9PCDD4gv6/m28Rd1t43nu/DLqO5N9Ys6J8Z4ctJkMYeLmT7z7HNC4SpZshT1v28AsQo28fHx1KxZUy2mq9rLRjhlsrQbpzuTpQ67Ofvci396yTSVF/TmrWuXdPjYq6+9LhKB5JPiwjYOHjqcPvrwIxoyeCD94hcXZuD++z/+SbwMQovmt1C3rp3zZpzYDZk772n66qvt4hzklo/jhLOE/vGWlub6YU5AX331NXp8whMRKVzql/D9h94QjRgKF5F9X/bgt5ybRbI+FC71a4YWQAAEckQg+QrXWZjDpeVbpb9vmroULruywIkdnpoyTSxke/PNN1GnDu3FOlE6lSkdX4jZTk5n77bx139O4azbbh2K0RtvvEmLnl9C69avF+azwsXO47hHH6O2bVvTry65RJvdOuzNpQKgurC39fonRXFhR/H6G2+moYMH0hVXXO6ouCxZuoxWrlxFCxc8mzdKkf2+XrZ8Bc2fv0CsJ1aiRAlh55y58+hf/36Vnn16bl7ZfWe79tSyRXO66cYbHO2aNn0mffnllzR61AitdiOkMNwLF5JmhOOGWiAAApakGf3u6WlMopWbj3R5EycZc7j69emZlmZiqj8xNX9s+el14XDF6HC12KFf4frggw9F2mzeeA0u+5d1nTeqapZCDoX88KOPMkw6eOAgsWKxadNmGjVymEj3rXvTobxImziBAIeJsRoX1abDXrbx2utvopHDh9KvfnWJo6n88v/iSy/lVXZFu6GsuGzevFWMDbm9/sYbNH78BO3KhYry/Olnn1Pffv1p5fIlVMElUQkvfNy9Z2/hcPEaY6qbjnFit2Ht2nXUu08/atO6FV199R9oy+Yt4mPOFZdfpm3hY112s3rF4cePjX+EKlasmHEqO77+mvr07U/Nb/4j3XqrnmUnpN0XjLks9bvp8IMtYg2zvABYjq952FC4ZHv2fdl6+u+Xi/eMNSll7IIxhjKW8QLh0L+sD4VL9Y5DfRAAgZwRkAoXO01pf6uAjCQPcnPel04PJ83wU97enkp9M6TwdE6akd58+Ikor8CruUaHi7+oz3v6WeIv0v/zP7+mPr170kknnRTpvaDqcLkZx4pGz159qG2bVuJcdG8qL3giI+TOnZ4mnVCiBFXXlBFSxV6rofc/8BDVO+ss1xC2QYOHUbVqVfPuRdp6Dq/8+S9iwWCeP8TzzXibMPFJYudl6pRJntfFTwEdvHfs2EHt2neiZ+bNptNPP92xWw7NY+avvLRKS6ZFHXY7GcrLHDz9zHzz0Fl169L4R8dqe77ospvT7vfpe68IoeaFmevXq0eHjxyhTRs30fwFC0WGwscefUTb4t6mwzX2ci2f6WSo3wWp9uz78vfYbzm3OAuEFPp5CqAMCIBAXhMwHS6pcPmLLBMfpBwVrpjqmwrXaXUDrx/m6HHZ7ZZXLcT6YkW5/RY7tggyKl/SuT4vUNqz1z207QtjEehOHTs43iechOLmP96k7R6KyuFiA3v17ksXX3yRtsWDrSet8oLnlVlR9qMzI6SKvdbzXrZ8Jc2YOUs4VDdcf515iJ1IDhNbvGQZDRs6mC6/7FItY0SX3VZjpCNzTrNmdNVVVwpHa9WLf6K7291Jt992a97YzUxbt71drHc24P7+heYi/vDDj2K+X7VTq9HY0SPzxm43Q7777juhHlWrVo3q1q2jdW6lznGyffsOGv/4BOLlG6zbxRf9ku6/715tS0tw25kKlxs5/9mU1jz8pmjEULiI7Puyh8y/F1CmEma3o3D/sj4ULi23HRoBARDIBQG7whXAX6K0QtXTNSl8tvZU6suEHSsQUhhrSKUuhYuzoXFoktdW9sSyNGN6eo0dr/JRH+dwPJFd0bL9fPBnen/NGnpuwSJ6YuLj1LTJ2drNUHnBEzZvyrRZGsiZCUdYMkK2beM+Py3ISanYa+2HnYCZs2YTO14ya96Rw4dFwgleQLhXz+5izpyuTZfddnt4fDw1eapI5sCO7TXXXC2SaPAcIx2bLrvXrPmABjz4MP3yl7/IcKp27txJd7brIGznrHrsxOjYdNntZQs7NW+uXk2tWrbwKurreBR28/psW7dto5InlKRatc7U6iDKk8pwuAqyxIZwSKGP42Zo4FgjRDEdKnhZRv10OSOE0L5faE6CrX9ZHg6Xr+GJQiAAAvlIIK1w9Qj84j5x0lRxSmL+VwiXS6W+VNeWn1YnsN1aVnwMcb5Fod8WXxsK16L5xuRzuckkAUV9300tYmfg6qv+QJ06thcIdPOwv+DpaJ+TCMiMkA89MIAaNmyg7XpKe3WNE3ZYeG7OunXrqWSpUtS4UUNq1rSpSFuucxzqttt+P/z4449i8WmZzEHX/aLTblad33nnXRHiJscZL9Xwl7/+TYxx6xxF1XGo0+5s4+Ctt9+hsWPHmXPmkmK3qp32+pL3+SlFisefXU8Ksv9BSuGS7dn3ZftSoeJy3L59nz/Mys2pfyhc+fj2CJtAAAQCESgKIYU61hMJouwV5/6apxwu1ZBC+yDlEEPOxsXrVp1xRk3xbz5u/AKze/fuTNMKCqhqlSoZL/66bdf5RZ2dRlZb/u///UuEa7KTWKZMGa0m67RXq2EejemwmxOrvL/mAzr/vHMd5zlxkpizz26slbkOu+PkLPuKy+58TAu/b99+at/RO70+z+OaN2eWlstjdbjMz2UOHo4QmLJ4QPK4W0ihdKxEEyJJhiX00GFffL+09GfvX9aHwqVlGKAREACBXBCQDlffe3pYJtGmk2QYjojz/hMWhUsmzchWPu2oGO2p1DcVrhp1ioJwFEYgzMl5t/h6qximhZWLzAiUwl9mnY9//MknNHnyNLEOlHVr2rQJ9et7j1gQlDd7hIvf9mWbSa9fWOEKx9stI6Runu7KhX+7OUshO4WZykXh+qVKlaLf/u9vtIwTHXZLFZTD8njx3bJly5rjlzlfdc314m9PTHyMOJmDjvGtw262jcParNkr7fcNK1+jxzxiUYr8X0/jPI9nXE8ddvM4efudd7OOE1ZHV616Ma/sluOkZYtbzKQYTs+pMqXL0E033aB1nJw/huc8qn86TCtaRnv2ffnD5rec2w+hrA+HKxdviegTBEBAC4EMhStgi2bSDBFSGHxTqW8NKUw7hNIxxL+GA6yfg06Fixc5HjN2HHEygWuvvVo4V0eOHqUvtn1By1espG+//ZZGjhhG5557TvDBVcRqqCoBcWeEVLWXL19Sk31Y7WYla/TI4Rkpv/fu3UuTp0wjzlDH86F0bLp4t+/YhTrc3Y7+8IffO6rM77z7Ho0ePTav0tknfZzMmjmN6tSurWMYeLbhFFLoWSlLAT8hhVzdbzm3ruBwqVwl1AUBEMgLAqbC1btH4A9eTzxlzOFidSzMlCaV+lIdW16Df6jUv9SFOoFi2G+LnWmFSw5gufBo0P3b7mgn1tzq16d3RvIAbo8X5B02YpRoctzY0eLLeND2nco3qHcWbdy8RVt73EfY8w9yPnYlIAiPw4ePOGSELDxronTpMnTzH2/Ucj5We4Ocp9d5TZsxk/bu2UsPPnC/Fjvt/emwmxPC8OLYEx57lGbMnE0///wzjR07SoSdyvHC4bMdOnWlpUsW0Sknn6w8HnXYzaGQs+bMpRUrXqCqVatSh/bthHJ4wgknmHazwjWKFa6Vy7Tw12G3fF5kG2ds92MTnsgru+U4mTVjKtWuXVsLT6/7R/I+b/Sl5s8mT8WVypr1X/nzlu34hw+vFti5PS73gWXfWt/6d3s5P/3L+lC48uK1EUaAAAiEIeAcUujP/UiHBPYI429ZQgqD15cJN5ZzSCG22AhIh0t1DpdMlc0ZCGVYlf0kVq9+i4YMG0EvvbhS23yXKNPCR3kRVBSMXGSEVLE3G8fpM2bRnj176KEHB0SCW4fdUnFh5YIXBx44eCh9s+sbGjNmpKlkcJbFe/reSyuXLxVrLaluOuyWNuze/R0tXbacVqx8gU47rQa1b3eXWFuOHa98VLj8sMvPOVz7hGOeC4XrvDGXZqxeYmdoX8/S7bh0hIwQRYvDZWvfrZys59U/HC4/oxxlQAAE8ppAhsJlfiJMJR302C+kUMVY31S4qteGwBWjwNdi5zZxlXkOl3m5CwrMuRlyjobTl1apBPG/n33+OfXp259WLl9CFSpUcKy/cdMm6tHzHlq86DmqVKmS+QXYTVGytu/Wv3S4vOzze/zQ4cP01ZdfiZfRM888Q/yrYp8bPyeFy8/5+r0efs+Xr7m9X6fzzaZcqNjtR+FSaV+H3XblgsM5OXT2zdVv0Z133CbG8sJFi6lGjepCBfPD03od4+K9+7vvaMmSpfTCqj/RGTVrUvv27ah0qVI05pFHM5SiXPP2c79xlkK+BlZlLtd2uylcKnb5HSdWhUslUMOqcHE79n35JdZvObcvt7I+FK68fp2EcSAAAtkIWBWuoKSk0yNCCkNsKvUzHS6Lx2HOOk59o8N+ala7Hh66FC5+2bi5eSsaOmQgXXG5sTaLfXvm2fn00st/pqWLF4YYXdFW8ZvsQ5cVOhUMq00//PADffHll9SwQUPiRaZ1bVHZmzSFS87N4XC9lS+8SPPnPyfWD/vFhRfQgAH3UeVKlbQgj4o3G8dzKXmBaV6smdfh4m3VC8vz3m6rgZwRkNcSq1+/Xt7YzWOCF2Y+66y62hR8r5MzQwpTipRXea/jpiOVas++L+v7LefWHxwuryuB4yAAAnlPQDpcfXp3D5xk4cmnponz69ubQwKDJ2lQqS/VtWXVawm73YIgpV047pz4PiifFrsKK1xhB/ljj0+k115/g+7r349+fUXa6Tp06BA9v3gpLVi4SCxse9ONRoaufNl4/Sr+Wt6sWVO69hoj2QdnSuP1i3j+yzci2cdQOvccfck+br2zgzh9q7Kogwe/iHbp1oMuv+xS6tmjm44mRRtR2Tt95ixzDpc2Yy0N6bCbX6Q3btxEderWoTKlCzuxnAmQMyvq3HTY7WXPN998SytfWEX79u+n/v36eBX3dVyn3d/v2UPf7f6OGjSoT7xuWLly5YR6bs1y6csoH4V02s2qFKugcmkG/v8tW7fSqdVOpUqVTvFhjf8i0u5zR/9KRdgyhagPB74lOpft2fflr47fcm7Ls8j6ULj8X2uUBAEQyDMCRSKkMM+YFmVzrA6XV7pur+OcTGDiE5No27YvaPq0KWLSNW9btmwVTkCb1q0sCwmrpZ/WmRb+ttvvogtTyT5kQgHZPp/TsOEjxQsJJ/uQm2r/utLCO9nz6WefU99+/UVGyF9dcrEoosteleUDWAkaPmJUxlyTTZu30OFDh8Q6VsJOIjqxTBkaPmxI3tht8MtMf67K06u+jvTqSbablzu4/4GHRJKPhx96gG69/S5zvTxelLz6qadSzZqnm3P/vHh6HdfFm5fDGDNmHN115+1intyqF1+iyVOMZFS8nX/+eTR86GDhPOq8L88b/SvjgeqULSPA39OhgkZ79n3Zvt9ybvZA4SrKbxU4NxAoJgSsCpc8ZTe9yH48rVB1t69b6BiKrbP+Eyl1bfmpxjpNYnNaot5rCXscD8Svxa4vRHmdSstPP/2UkTabFS5WjMqXV08moPs25mQfd3foTNOnTXZP9vHW2zR02Aj606oV2kKFVL6oM8/JU7OnH3/77XcEqiXPL9CCTMVeaQDbzVn+vLbSZUpTty7eC8h6tcPHddjNqmGHTl08u6tQvjzNnTPTs5yfAjrs9tOP7jI67OZnRYtWbYXD0q1LJ/HcYOWcFXReB+3wkSO0Zs0a+uvf/iHmcOnYdNjNSiiPk8qVK9PAhx8UC78/8OBAat2qJf3ud/9LX3+9k56cNJmaNjmbhg4ZpMNsc3yzIqVj+8iicHF79n3Zh99ybjbJ+lC4dFw1tAECIJATAo4Kl09LzKQZnFI+xKZSX9YVDpfTFznp8rl9wcNxw0MNyEcqXKpZClkB+HrnTs9Rc0KJElS9enXPcnEVkNnlXlix1NUh5HCy7j17i2Qf/DKlY1OZo8Mp9keNHutpxolly9LggQ95lvNTQMVeP+1HVUaH3U4L2r7+xpt08MBBsb4Vb1u2bqPXX3s9cXOhdHPXwVveb/aMj71696UbbriOrrn6qrzMrsjrsHXu2p0WLZhPVatWoVmz59KmTZvoEYsyzlkhBw4aQi//6YWMBanDXgfJWzhcqQ+U8uczzP5HD6dDCrm+fZ9/Zrn9Dy3lnPbFqh9Z7JH14XCFvfKoBwIgkHMCpsLVq3vgbH9PTjbmcPH8rzB54VXqS3VtWbUzjSxfbnPIUqE9OO4yxy4gnxbf6FG4+KW0ecs2vsb/3/7ysq9yfgrxOlwbNm32U9SxjMwsNmQwJ/u4zLHMM88+Ry+/8mdtahF3ouOLeuiTDlFRp72sBHCyjDp1aouXZxnGGcIszyo67JZjW66vxJ3OnDVHpLN/YMB9woa333nXzJrnaZSPAjrs9tGN9iI67N68eQt169GLVixbLOZsya1b91501VV/oOa3/JHeffc9c/0wHSehw+4NGzZSz959aPGiBWKu1qSnptCxY8eob5/epolffPElderSjRYueNZcx03Ffmn3OaMv0TKH66OBbwtzZHv2felH+S3nNodL1ofDpXL1URcEQCCnBJxCCv0aJJ0e4XCF2FTqy7oZIYUhbECVYAScHK4waa05DIi/TIutgGjq1Bm0bds2GvfIGNPx51TOnDjj7399JXDa+SjTwvMCqq+99rqZ7EOeP092X/T8kkLJPsLwybYgr4725BwjfsHj/y9RooQ5EHS0ryO9upXrDTfdIuzjNdv4hbRx40aRp9+XQILycEr3zaGRe/bupQfu7y/szsc05X7Sq+fj8gE8hnk9q9/+9jfUo1tXoQT99W9/p8cnPEFPTZpIjRs1IqcFm1XSr+sY3zy+Wre9na6+6kpqf3c74YTznNapk58UC0/zNmXqdPr3q68JtZzvUa+0717H0wrXJSlJSY5y+8pb/vbToYJGe/Z92bp3SGH2/hBSGOx3GqVBAATykECGwhXQPlOhYnUsxKZSX9YVCpdrjsJQwhvay8Kzxbdfiiutcw4Xtzd33jPE86MGWULa3n3vPyIUTte8C+5HVeHiNjhEb+KTk+iLbV+KuVxy48xiXbv1pDatW1LHDu1D3BHuVXR8UXdqffv2HdS+Y2fhxFx37TXabNZpLzuy7HCNHT2S3nhzNb308it04w3XU/u778pQNHQYr8NuKFz+r4QO3twbJ80Y8ODDouOyZcuKe5Tvww7t7xYO7n/+8z6NG/+4NtVZl90y4ymnq+dMrX/569/E3C3e+OMCJ9UYOXwoXZJKZuOfrHNJU+EadYnxYUtu/vyrQuU/lgpXqj37vqxg/n00O2ZE9n0zQsbFHlkeCpfqCEB9EACBnBEoFFIY4AHsGBIYU31T4ap2ppZsS6rZmopLfavC5fblP8zf5z39LH340Uc08fHxpnLxj3/+Hz01eSq9+MJyxy+7Yfpx+gIcth1+sZZpp2VqZ0757baQc9h+uJ6fhY/Dti/VgDmzZojFm8O2Y62n015mev2NN9PUKZOofr169Nnna+mxxyaI9OTsKHJKe13XVYfdpsI1c5pYMoC5OClcY8eOoxdWLss73jquv9/roYO3tPf777+njz7+hDgJD2exbFC/vrZxYT8fnXbv2PE1Pb94CW3atJk2bNwofkF5oemGDRtQyxbNRZp7vzy9ykm7OQRQbiq5pjwdqZSO5iekMJs9CCnM2SsiOgYBENBFQDpc9/TqZlF23OZEScXIOD5pspH5rE8vzlLIc4Qyj/P6WJlzp/TVNxWuqmdoXdg3nQ9bz0LBRa29lhEpXK++9rpQs5579mk69dRq4gVjyNDhdOToUXpkzChdw11rO/xit3nLVpHGvmTJE8QXaZ5nJFM46+xM5Ys6h2/yl/RsG88x4tTZHIKlY1Ox196/VLimTp5kLlzLThgvxvvs/OdEIor7+9+rw2wtc+WY95ur3xKLG8tMmwcOHBDzc+Qco++++57WrVtHl112ad7YrcWQgI3oHCcBu1YqHpXdPEZ4s4b4Khlqqyztbjbq4vS6mzwHmufyyt/rAPsfDzLmcMn27Pvi97+gwFS0RDmHfa/+oXDpHAVoCwRAICcEkh5SuJwVLmyxEYgqpPDHH38SE993795NV/7+d7R27Tr6avt2EWL4P7++Irbz89MRvxwsWbqc5syd51j8wQH30e9+91s/Tfkuo/KC5zdBCYdi6QrfVLFXQmEnhdNk//eYsZAwq0V2Z3brNmMh7nyy2/dF1VjG9xIhAAAgAElEQVRQB2+N5vhuSofdvHwAK+Fy4yQrfI+WLFnS/Bs7MieULJmXCzazkTy++Xm3a9c3YimJWrXOpDq1a2nLcipBWJNm+L5IWQr6Ubi4ut9ybl3B4dJxtdAGCIBATglYFa6ghkiFi9WxMJtKfVl3GStc2GIj0HL3V6Iv3XO4uM1vvvmWli5bTh9//AnVqFGdrrzy966ZAGM7YYeO2NFideW2W9vSVVddSTWqVxfqBc+9WLxkKf3t7/+gPvf0ouuvu1abmTpeTLUZ46MhHfYeOnyYFi58nvgFesnSZULJqlrFSCZg3UqXLkW333arD6u8i+iw27sX/SWKs908X2vM2HEmVE4+wdslF19U6G+6Mp7q4r1r1y4xt+yTTz41bZVz0PgPd915B93atrW2zJxWhUvHKPxkkLF+HytXvNn3ZR9+y7nZJOtjDpeOq4Y2QAAEckIgM6QwPYtWhgJKo5z2C4cUxldfhhQulyGFbutJ4e9a57hFpXDlZPCH6JRf/jmd/V133k4tmhuZ8+wbf23/fO1a4hA4XZuuFzxd9ni1o9Ne+xwur75Vjuu0W8WOoHVhd5pYHAl4dPDmjzT973+Aftj7A/Xu3YNOPPFEevnlPwu167Hxj4gEMVOnzaCr/nAl9ewR7qOmfRyZDtdoS0hhodD/LMus2JZfkcpTs1R79n353uC3nNvyLVC4gj4RUB4EQCDvCJgOV8/gD/RJU4w5XPeEqMv1VOrLusuq1NTqUBSX5Bdhz1MqXAufnaNlsj/Pd+GwMJ4wzjbZ12HhMCAOMfSaDO73uMxS6Le8vRxPau/Zqw8tmP80VatmzDWzJxn49NPP6N77BtDSJYvopIoVtXCSL0o6uLN9JU4oQU3OPlsbVzsHnfbGmcQBdhcez1Hyj4I3J+Dh8Lwhgx42x/fbb79DYx55lHjBch3no8PuL7/8SqyxxclqzjijprCLP+jc2a4DdWjfTjz3OKENO13Llz4vQiTDPrdkPWl301EXpeZsuS2/Ked0ZT8ulaemYk5YWuGyt+9ezqhXeP2tzP6hcOXdqyMMAgEQCEqgKIQUIi18fOnvW2gMKeTEAffed7+ZBtlp7J5yyinaUjlz+6pp4Tdu2kQ9et5jLlbqZDM7NP36308rly8xkyYEvS/dvkzrCOUc//gEKl+uHPXoHvwji9/z0KEA+O1LZznYrZOmd1tR8F62fAXNf26hWAhZLpLNqte/X32Vnpk3x9soHyV02M0qeJ++/elPq1aIeVtyu3/Ag3TBBeeLkOWvvvqKOnTqaiYT8mFa1iIIKVQjWHDcuhKdWluoDQIgUMwISIerd08jS6Hc/CzL8ZRF4fJT3t6+Sv0MhauYXbNcnm7L77aL7nUoLT1796G9e3+gwYMeEum+S5UqpfwF1+sLsKrCJTPm8TpbvM6PvT8OExo95hHa9sWXNHvmNG3no+OLuvyy/9iEiVSubDkRpuTFK+xxnfbqUCT8ngfsTr7CtW7derqn773i/uRwvC1bt9HkKdPEfNDevXrkjcLFz5Ib/9icOnfqSC1b3CLskgr6qJHD6OKLLqLnFiwS81r5443bwsdB7g+rwpX+HQmfGP7TQcZ8OVa0eLPvG30U0KepuV5GucL7xidDuRW2R9bHHK5c/vqjbxAAASUCGSGFAaUiMySQk2YUjglwi0Uw/65S30yaUaVmOp2tQiy6W+w4/m5JF0wF1OI7PUkzfvjhB2rV5jaa8Pij1KxpU6UxHHflFStX0fQZM6ltm1ZiYVW58TkNGzGKWOF6fPw4OuecZtpM0/FFXRoDhcv9sujkrO3i+2gIdmdCWrjoeXr6mfnmH3nJhkfHjaWTTqrog6Z3EV28ly5bQbNmz6GzGzemSpVOEcsJNGvWVCzy/c9//j96YtJT1K/vPXTtNVd7G+WjBEIKfUDKUgQKlxo/1AaBYk0grXB1DczhqSkzRJ3ePYPX5Xoq9WXdZZVPxxyuggIx/4li+NeqcJnfI1PrtgTZ50yEPGGc51Rwqm9roIb8YhukvTjrs12v/Pkv9J/319DggQ+ZX8y3bfuCJj4xiW67tQ1dbMmQpuN8nJSXsHykwtWju3Hf6rDPzt9qb1g7o7DLa5zA7rTSEAf/KHlzyPL6DRvEun51atc2wwt1nJdOu1evfos4syJ/sGnWrBldf901IoHG+++vEd8xeT03XfeptLvJyIvEz4X8UCp/PoLuS0VLtmffl+2ZytfIi8QHV/u+V/+yPBSuwK9pqAACIJAvBIpySKE9MMHOHMczAzn88JEOl+pcom+//ZZuv/Numj51Mp11Vt18uR3y1g5dX9T5BNev3yAm4Fu5b9++Q3xdb9WyuRYGOu3VYpDPRmC3T1CaioG3JpA+m3EOKfRZ2aGYv5DCwqGGzqGH7nbA4Qp/jVATBEAgTwiYDlePrkaon9tmn6RlV6gcjmc0pbl+hsKVJyyLgxktv98hTpPncMkt7Bdjdriqn3oqDR82hCpWrKDcnqo9Yerz+jklS5Wkxo0aRWq/ToXL6Xo5ZXELw4PrcPs6FQAVO7wULShz8Spa4J0fvJuM/KWWiIjPUnO4ZHv2fRl54becW6SGrA+Fqzi8ZeAcQaCIErCGFBYEnAMlnR5OCx9mrpNKfTNpBocUphLLSvuxb2h3UfBo8b2RNENV4eI2OONf//seIF64tHatWiKMxr6VLVeWHn1kTN7efXHMh+KTj1oJ4JAmXjx21cplWlhHba8WIx0agd1RkXVuF7xzw7uJSAsfaup1Rj0zhDDVnn1ffmf1W85tKjgUrnjHCXoDARCIgIB0uHr16BpU4KKnpqbmcPXoaubMcDPRSQBTqS/rLq10mnAs3H460gs2Oz/KcdxwzPzya7mnsMKlMiy///57+ujjT2jz5i10/PixQk2VKlVaLDKsa2tYvx6t37hJV3P02OMTxRw0OR9KW8O2hm67q6P4i1VZ9NsXr3X27rvvZS2+bv16emHVn8ScOh2bir06+g/bBuwOSy5cPfAOxy1sLcn77JG/DPx7b+1T/pp+Nth4rgiFi4jkvr19t3Kynv187O8Lsj4UrrBXHvVAAARyTqBQSGGAbIOmw8RJMwLUk+/3KvXNkMJKnDRDw6e6EPYXx36tIYVB0hH7TcsddTnVtPB2+8Y/NoHKly9H3bt11ZJu2u38VdKV79+/n5q3bOP5rClbtmxeLQybi/GlwjkX9toXtNWxXEOc5wHeuUnDb4QAqv9ufjbI4nAVENn35XuB33Ju7xGyPhwuz8c4CoAACOQrgbTC1cW28rx9pfnC+5OnzhSn1VsoXN7ljRA3+Zw/Tir1pbO2rNJp+Yq2SNrVcs/X4rzCKC35AKQ4KlzM/eeff86K/933/kOPT3gCCpeCkpjL8Q2lKF76SefNCpSO7fOUwiXbs+/LPvyWc7NJ1ofDpeOqoQ0QAIGcEEi+wsUOl4ZPdWEkumLYrzWkMM4v4VErX2Hb51C8UiVLUd26dfJW4fJznZySZvipF4Uip9Jv2OsIpShepQW8c8tbhPxpWE1EKk+yPfu+TPfut5zb6iZQuHLyeohOQQAEdBKwKlxB25UKVa8eXYJWFeVV6su6S0+pgYWPAyY7CZocxVq+5d5kK1yhBmoeVIr6i/o7nDTjkUehcEHhinW0Rz2uozqZpNt99shfaEHz+eD/iHZke/b9tMLlr5y7wmXUh8Kl5bKhERAAgVwQSHxI4SmnQeCKUeBzCikMmxZejvck1d+3fz917OS90HeF8uVpzmwjqYyO84s6LfxP+/bRzp07qX69etrtTdJ1Rjr7eNOWg3dueBsOkvoPRzpU0GjPvi8nd/st5zYZHCGFuXg7RJ8gAAJaCZgOV/cugZ+/k6cZc7iEwhUi6YRK/UyFK1T3Gn5uil+/LffuFNc8qXO4VG+effv2UYtWbalF85upSuUqrs2VKl2KbrrxBtXuzPoqX9T/+9//0po1H9B5551LpUqVKmTTBx9+SGc3bkxlypTJC3u1GRGiIRXOIbrTVgV2a0Ppq6Gk82484hfmupvS7TI/jHAuDUuawGzH16YUrsYpxczct7UvlS8ux+3Z99NuZ+o1xNa/LA+Fy9fwRCEQAIF8JJAZUhjsi1c6JJC/+Af3uFTqT06lpF92Sg0tX+rC2B/YQy0CLp5TSKEOBSfoArW5Ki8drpnTp1Lt2rW0KVhe56OicMkshb/8xYU0aODDVK5cWZL98b/XXHcjcYbCiY+Pz5iLpqJMQbnIjXKhY0FylevuNY6x8HG848KNt3R85LW2p2H3u+/lSMn2vUIPvfqDw5WPb4+wCQRAIBAB6XD17M5ZCoO5HVOkwtW9Swh3i0ilvlTHlp5cHQ5X4CsX9Eqny7f6IdkKl2qWQieHK9ANF7Kwyhd1aTN3zUrWyBFDqWLFiqYle/fupSnTZtDWrdto1oypIS3MrKZirxYDQjYCu0OCC1kNvEOCC1lN8m484sKQLWRWWzvkffEH2Z59X5b2W87NKFkfCpeWy4ZGQAAEckEg6SGFy05mhSu1OcY+WKjiuOFRK/BKekhhcXa4Hh8/jmbMmk0//3yIxo4ZSVWrpEMiv/rqK+rYuRstWbyQTj7pJOVHEV6klREGagC8A+FSLpx03o1HssPFP4hy89KYnI+nQwqN9uz7psPlFnpoJu/I3r9sFw6X8tBFAyAAArkikFa4OrsqRTJLnT2Ebsq0WcLsXkLhcg8pjKK+VMcMhQtbXARa/bBLdJXUOVzF2eHiMMiqVavQ4CHDadc339CYUSPMsMjP166lvv3uo+XLFhMn/FDdkv5CmrTxDd6qIzZY/aTzbmRRuFS+Q65LKVyyPfs+U+X2pULF5Zz2vb4DQuEKNj5RGgRAIA8JZChcAe0zk15wwo0Qm0p9WXcZQgpjDalsmfCQwhDDNKMKJ6BYv2EDnVW3rtYkE152qbzg2cMgDx06RGPHjafVq9+iO26/jSpVOoUWPb+EatSoTqyC6dhU7NXRf9g2YHdYcuHqgXc4bmFrSd7C8bEIXHL9K6PdAjHH08/xtYONkELZnn1f2in/LpW1TCXMSNKR7q9w/7I+FK6wVx71QAAEck7AVLi6dXbOASEtdBCwpkw3FK6e3Tu7T/6KqL5U15aedGqsDkewWW7h50rlaz+tfjQUrgXPzI50oV/VBWyjrM9Ol1v7JUqUIP5v+/YdwoHh/9exkK98UQrDnZNmcGZFVrhq1TpT2HP06FFa9eJLNP+5BXTw4EG68ILzacD9/emUU07Jub06eIW9/iqcYbd8Ufb/L3jHuwBy2uG6QMvvZlrRMtqz78vfMb/l3H73ZH04XDl/ZYQBIAACYQn4CSl0y8YnnR5OuBHGQVCpb4YUnlQ9xpQRYc6yaOUybJlyuJIWchX2/rDXsyagcGqzV8/u1KxpU+rWoxf17dObrr3mai1dqygB7CBu3LiJ6tStQ2VKly5kz5EjRxzTxasYrmKvSr+qdWG3KsFg9cE7GC/V0laFS7Utru8npDBIOTeb4HDpuFpoAwRAIKcEPBWuLNnefSlcEdXPVLhyirBYdd7qx2+KtcLFytD7769xVbhq1apFlStXopdf+TP9+tdXUJXKlYulYgTlIjfKRRgFFMqcf0VOKqdJH98NR1yg5UPluiFrxO+BbM++L3/+/ZZze12Q9aFwFavXDZwsCBQtAslXuE4lmZTD+q/UojiZB44XiKQmOvgUd4UrV3d/0pSApNkrryvsjneEg3dueDcagZDCMOQLjltXNgvTAuqAAAgUWwLS4erRrZOZJtaYeZRO0+q2P3X6bMGtZ7fOvsrLNLSyPZX6Ul1bWrGallh0BAv6W7i61U9phSuJN02jBvVp3YaNoU3n+U4PPDTQtX6rli3o11dcHrp9t4q3t+P705g7l4QtafZKprA73tEF3rnh3XD4BVpi3ddLhSvVnn1fvkb4LeeW7FjWh8IV73hBbyAAAhoJZIQUynZ95oktFFIYY30zpLAiJ81w3uynYS+F45nLcvnhIx2upM7hUk0Lf+jwYVq8eGkGqgMHDtBbb71NpUqXpnv73SMWF9a9JU0JSJq98nrBbt0jN3t74J0b3hwCqGMzHalUe/Z92Yffcm42weHScbXQBgiAQE4JFFa4/Ckd/KouFaoenOEwyzpcbp/SVOpPTWVIXFqhmpYvdSHML5b9tvrpWzFek6K02G8uVYXL7WZlp6tLt5704ID7qFmzptrv6aQpAUmzV14w2K196GZtELxzw7vB8PPTc7gK0mnYjfTsqX35q57l+PqhH4gTEO0VEK0fYtm31JcOk1GugOz7Mg29W/9wuOIdJ+gNBEAgAgJph6tz4Em00ukxQgqD+x8q9Z1CCu0LLGPfmLslr4wOHi1TIYVJVbgiuIXMJgcOGkJNmpxNt992q/ZukqYEJM1eKFzah6yvBjFOfGHSVkjyhsIVDinmcIXjhlogAAJEZDpcXTsF9pimzjDmk4j5XyE8LpX6Uh1bWqFqCFev6K2PFeoCBHaxC6jVvmQrXFHc9IcPH6ZPP/2MHho4mAYNfIiuuPwy7d0kTQlImr1QuLQPWV8NYpz4wqStkOTNSpOObYNF4eL27PuyD7/l3GyS9TGHS8dVQxsgAAI5IVAkQgpzQq54dmp1uHKZTjrswraq9X766Sdq2dpZwapfvx49MeExsaaVaj/2+klLQ500e4tKum+khY8nHX/Sx7dwuDR8d9xgCSHk9uz78kOs33JuH25lfThcxfO9A2cNAkWCgHS4unftJJ6/bls6Z2G6hKlQde1kyWno3ILu+rLvpeWravnhCKPQ6fjBSlq/rfbtFhc4qXO4VG9aXofrjTfeLNRM/Qb1qebpp6s271o/aUpA0uyV4GF3ZEPYsWHwzg3v+sPPc1wuJR2o4ryciv24VJ5ke/Z9uRxJ+u/G3DG3cm79Q+GKd5ygNxAAgQgIZCpcsgN/aQoLJ72Ir346aQZCCuP0OIu7wqVbufLbXtK+qCfNXihc8ShDSVdui8o4gcIV7mUKc7jCcUMtEAAByxyu7l07Bp4LNW3GHMGQ1bEwc4hU6k9LzR9bUr6Ky5c6ty90+LvTQtBuC0Tb/95qf7IVLtUshQcP/kxjxz3q69nRqkVzOuecZr7KehVKmhKQNHuhcHmNwGiOY5xEw9WtVcmbFSkd28ahH4pmZHv2fdmH33JuNsn6CCnUcdXQBgiAQE4I2EMKg+S+kE5PD0tIYVz1M0IKc0KueHZa3B2uQ4cO0Zy5T4uLv3nLFvrkk0/ptBo16KKLflloQFx55e+pYYP6WgZK0l5Mk2YvHC4twzRwIxgngZEpVYDDpYSPoHCp8UNtECjWBNIOV0IVrnKscKX0tQIisY4H9o2pYRHwaLX/O3G/JHUOl6rCZX1YbN22jbp17yX+NOmJCdSwYYPIniVJezFNmr1wuCIbulkbxjiJl7vkXW/Yecbvg4xrEetvBd+XypNsz74v2zf/LuaOEdn3jfW33PuHwhXvOEFvIAACERCwKlyyebfkRfbjdoUrzvqmwlWuivGklj8d8smNfeOnVDOPpCtcum6h1994k0aNHktNm5xNTZo0oZdefoXGjhlJjRs10tVFRjtJezFNmr1wuCIZtp6NYpx4ItJaAAqXGk4oXGr8UBsEijUB0+HqwgpXavOXM4OmzZRzuDoa/k6M9eX8ryXlKmtd2Ff3QsFFrb1WBwyF67mnZxGnhXfb5OTyonacz+vpZ+bT4iVL6frrrqVuXTuLNPBLly0XoYZTnnqS6tU7y0wLr+v8vV5M8423tDdp4wR2G8kzdI1bezv2cQreueFdb9i5Wt57Ng37SLQj27Pvy078lnMzStbHHC4tlw2NgAAI5IJA0kMKl7LChS02AtLhSmpIoSqoffv2iXW4+vbpTddcfVVGcwsWPk8nn3QS3XDDdardFKrv5XBp71CxwaTZK08Xdite+IDVwTsgMMXiZkjhcHa41Bfi2pRKmlEv1Z59X0ae+C3nlnxL1ofDpTgAUB0EQCB3BKTD1a1Lx8CP3+lS4erSMdRyUir1pbq2pCwrXMZWSJhLRdThuD4+rQ5+Lxorrg7X4cOHafPmLdS4sXPo4J49e6hSpUrab+ikvZgmzV44XNqHrK8GMU58YdJWSPI+a9i5Getu2tfJ9LsvlSfZnn1fGu6lcHn1B4VL2xBAQyAAArkikBFSGPCDV6GQwhjry5DCpexwmdkhLHOWzFm4cjYu/tXBqbgrXLm6T5P2Ypo0e+Fw5WZkY5zEyz2dNONc4wul3Lw8Hpfjm4ZaQgoLiOz7psMlywklzFIutW9+sXWxR7YLhSve8YLeQAAENBJIK1wdAocYTJ85V1jC6liYdbhU6kt1bMmJlZA0I8akIa1TChfPzZEbz/lwWsA3H4/LLIVsbz7aZ+Votc8+1yXfeVvtTSpn2B39fY1xEu9zKK1wnWN5i/A5aTv9xEz93hNtHvax+OtZw4z27PtGlQLanJrrZZQrvO81CVzWh8Ol8eUPTYEACMRLoCiEFAYU1gKHTqL9tDud9JBCnWnh47xTk6YEJM1eeS1hd5yjmgi8c8NbOj7p3sNJXN6OlNFDupyhcNn3078w0qJMe+BwxTtO0BsIgEAEBEyHq3MHS4iBZQGn1Bcqc4Ery/70WRaFSy6AlaV8OoTBaF+lfobCFQEXNOlMoPXPe8QBmX3OSWlxU7zy4e9WhSsf7PHLz4/ClU/nkzR75XWA3UbWPL/jUrUceOeGd91h5+iIKDQVLdmeVLjs7XspYV7unqwPhQtvJiAAAoklYFW4gp6EdHqMkMLgm0p9q8Ml0hin5myZaYexL0ItdfNIusIVfJRm1jh69Cj969+vejZTqmRJ+s1v/seznN8CSVMCkmavvA6w2++I1FMOvPVw9NsKQgr9knIuh3W41PihNggUawLS4erauUPgULsZUuHq3CFUlkKV+lIdW1LmFOekGfaFj+1JNHA8c2Fkn3ysCldxvHE4LXyrNrd5nnrZsmVpxbLFnuX8Frjj7s6msui3Ti7LJc1eyQp2xztqwDs3vOsObaYl2dSW1Bwu2Z59X34I9VtOlrf/K+tD4Yp3vKA3EAABjQSKQkgh5liFSVkSbhWWVqmQwuKaFl7jrReoqaQpAUmzFwpXoOGorTDGiTaUvhqSvDnkT8dmOlKp9uz7sg+/5dxsgsOl42qhDRAAgZwSsCpc0hC/OYvsClWc9TMUrpwSLF6dtz60N1FKS1G5OklTApJmLxSu3NwpGCfxcpe8DUUqVHLhjHpbhn0iTkC2Z9+XgSR+y7mFysj6ULjiHS/oDQRAQCOBQgqXnL3q49900osOoSQWlfoypTyHFBZQAR0ny+Rj7EfGo7grXPv276dOnbt63oHly1egObOme5bzWyBpSkDS7JXXAXb7HZF6yoG3Ho5+W0krXM0CLwPj5KGllSujPfu+fDHwW87tRQIKl98rjHIgAAJ5SyCtcLUP/ACeMWueOC+e/xXG41KpL9W1JaVP1hKL7hY7jr9nLhiddIWrccMGtHb9htD3o5zD1fyWm6ly5cqinTdXr6aDBw/S73/3O7G/bds2ev2NNzGHK5XNMjTsHFSE4hIvdPDODe86rHBp2LYONxQu2Z59X3bht5ybSbI+FC4NFw1NgAAI5IaAU0ihX0uk02M4XME3lfqmw8VJM7DFRsDqcMWZPlo1/bSsr5oW/qeffhJJM6ZPnUx16tQWWSBnz5lHe/bsoQH39xf77777Ho0dN55WLl+iLb120tJnJ81epIWPNz05eOeWt3CQXEIKZdJfP8e3pkIKZXv2fRkiaP07ty9DBJ3scOpf1ofDFdtPPToCARDQTcB0uDq1DxzTPWO2VLjahxG4SKW+VMeEwoUtNgKtD/8g+uJ1uJK46VK42OGqXbuWQDB7zlzas2cv3X/fvWL/nXffo0fGjYfClcBxAsUl3rsavHPDu87QppaO3SZzySLux7cO/1QUMtorIFaiTqxTnn7euj/jxE6sU45+3nogo5y1nvMLRLp/KFzxjhP0BgIgEAGBxCtcwuHSMPs3VGL74tdv68PppBlJVLhUlTIoXP6+zEPh8sdJdTxCKYqXc1HhnRFS6DdLlt3/IhIOluE4GSGKO5/ZUsjZktXYEavRrq74uXZUwhzaF3+ylIfCFcFLIJoEARCIh4B0uLqwwpXa/D5/Z0qFq1N74a7EWV+qY4tLnUROL/72hZDtLzY4bszNcnvhc+OTdIVL9a6Sc7igcGUnCeVCdaQFqw/ewXiplk4679oZCld4GttSClfQ9oLWk+XhcIW/VqgJAiCQYwKJDyksxUkzLBBldkX5J+xr5VPcHa6jR/9Lq996iy684AIqX76cGGUHDhygY8eOUYUKFcT+d99/T+vXradLL/2Vtrs7aS94SbNXXijYrW3I+moIvH1h0lZI8mYHSUd8hgwpDNpe0HqyPBwubUMBDYEACMRNwEnh8muDVLis6pjfulxOpb6sKxQu+Fsmgaj9y9ZHfhR9JXUOV5DxmU9lk/ZimjR74XDlZrRjnMTL3XS4hjQxsvuaHyZT2WgD7rPyVKZOOTq09UCgE5F1TGXsePb+oXAFwovCIAAC+UjA6nCZX7wKyIgok8neXfal06N6Xl07t/fVn9UeM2lGqZMwh0vLt0ofC69RAbU+kuykGapjNVf1k/ZimjR74XDlZmRjnMTL3apw6eiZ52wFdbZkv+x0iTldPjY4XD4goQgIgEB+EzAdro53e3tYXh5YjMdNhatkRdPhkgsgyxPBvrEgtE4erY8aCtf8eTMd587pSgIQVTsyS2FU7UfVrnxRSgr3pNkrrxvsjjcJBXjnhnctVrgStH0x4jNhLUIKE3TRYCoIgEAmAZWQwlyylA7XkpInIUmhjmB8fwIXJT2kUDUtfK7GfNKUgKTZC4UrNyMb4yRe7pI3O1xivSu3+BC53n2eHN82HA5XvCMFvYEACGgnIB2uzh3vNh7A8kErQ6pTTyRgU8wAABBsSURBVGT7382Q6xwdnzn7acFisVC4jM1vdkWUD8+r9dGfoHBlye4Ihcv4Yg/lIjfKRVIUUCiK8Y4PO28oXOFepQqOM0lsIAACIBCCQFrhujvlsshGok6/oNZ+WuFKhxRC6ope6pIhhUiaEeJmU6iSNCUgafZC4VIYnApVMU4U4IWoalW4Ypz6m0VK8zcF+wsoXCGuNqqAAAjkFQGrwpVXhnkYM2tOSuE6gVNxR+9oKP9iFJGFldv8N61wmUphSvHBfko5jICHk2KUz7yt9uazndbv1XZlDnYb6/RFyQHjJFq+buP7zCFnJ+nnnr4c8bmwF3O4EnXZYCwIgICVQEZIoT0roT3EMI+OmyGFJ1Q0stu6BKPbQx/t5XA8lR3YJz8ZUgiFK97nSNKUgKTZC4Ur3vEM3rnlzQ6XTCqVhH+RNCM34wW9ggAIaCRQNBQujUDQVFYCbf67TxznuSJRfvmO+st60tqHwsUfBqC48D3nxAFKUW6UoqQ9B+U4gcIV7ocec7jCcUMtEAABInJyuNwEI/MF20VQivP4zFRI4RKEFMYaUtk6FVIIhSvex0fSFKOk2QvFJd7xDN655Q2HKxx/OFzhuKEWCICAxeHq1KFdRmieWxZCGZKX6+Oz5jwjrt/iEuVjdTiK+1yuNscKK1xJupHObtSQPl+3PkkmC1vvbN+lkLKYzyeRNHslS9gd76gC79zwPmNw40Stu/kV5nDFO1DQGwiAgH4CiQ8pLFEhnTJDzjmzzzXDvuEna+DT2hJSKEObkvQvFj6OJx010sLHwxnp1ePlXFR4nyHmcCXn8yGSZuh/90OLIAACMROQDpdQuBL0AJ4116pwxQytGHfX5tj+RCkt9ksFhSuewQvlIh7OUObi5VxUeAuFS24JWMDyqxFrhbXIUpib8Y5eQQAENBBIK1ztEhWaZ6aFL1E+UdmWjtPxRNvb2hJS6KRsySHptgAwjhsEgvJxU4zylaeXwgW7nZWZsFzAWy9PeX+6XY+k8z5jiMXhMj+15q8HhpBCDS97aAIEQCC3BKwKV24tCdb7bKlwFZRLlKOYnCAO5zzxbY4nW+EKNsryp3TSFKOk2VtUlAtr1rz8Gb3ulmCcxHuVJO+agxsl6ndz+0goXPGOFPQGAiCgnUDiQwoLOGkGtrgIODlccaTrTload932Ii080sKb+oNDenykhUdaeD/PYTlOag5unJ7Ta1lv054USybHckuSFddxhBTG9QuPfkAABCIjkHiFi8oZ2ZbcNinU4LgzgYB82hw/INpJ2pf0yG6gmBpOmhKQNHuhcMU0kG3dYJzEyz1T4Yq3b5Xeto9cJ6pjDpcKRdQFARDIKYHEO1wIKYw1NCRT4TJmW7tlKZR5h92Oz91Yi77dn81bTt8a1cofp44NvsyY++TVfpjjtTYuoBIHdvu6J4+Vq0rb6t3meP5zNpwZ6Nw61P+iUDtW+73mjBiKmvv1aPDcpb7OSRZaf/ubWe1xmoPmZm+Y62BtP876mUqR2viG3cZC1fb7H+MkzUX3c8Iv74yQQpm+Vs7lysP97UiaEej5jcIgAAJ5SEA6XB3b35Wo9Oqz5z4raD5PZUUSCjk3SialwL7xAq6bRxvSp3CN+7A2sSPl5XTJMg+ct035DvLKUlj340nEjpSX0yXLbDnnHkebdJ+bqhLQcMFlgdixw6Wyqdqr0rdKXditQi943eLOW/dzwusKSN6nD2qUGRliiXQQv6b2yIccH98Bhcvr0uI4CIBAvhNIK1x3pb6QS4uzPHFFkdweN5NmcEghttgI6Ha42PCJVx3Man+/v5UVx+NyuLivg1eOympT2X8MEsezOVw6z031xRQOl79bRJWzv170l4Ld+plma1EXb3a4dD4nvCiYDtfgRo7LwNh//e2pk3J1HCGFXlcWx0EABPKegFXhyntjLQbOmZdSuI6XFZN/7ZN9sW/4z26TncPyaUOGc6RjDlfcLxtstx+FCw4XERSumUl6HJIuByDuky7udsf9DEwrXA05C036B8Ke/SLP9qFwxX1noj8QAAHtBDJCCrM8gM11SVwexHEfTytcrH4kaclm53TrSUkXn3SFy+sG4pBCOFxwuHR8UPAaazqPF3fHRSdLP23p4p0zh0ukhU/OBocrOdcKloIACLgQkA5XUgE9f/zERC8knLSFkNsUGArXs3NnuCbLcEuSYf/7ox/VEW2JkMIsfmi/v6dDCt0WDNb1d9Ph+v2orH68DCnc3Ky3IwfzReoPB7O2I8MlB5y7NStP+YIXlnvQkMJ1t72hdH1V7dV1PYO2A7vdk+D4va+DlCvuvHU/J7zGu+Sd1N97ZClM6pWD3SAAApR0h2vxceNlHFs8BKTDpUMBiPvrrh9CULgMSggpREihn/tFtYwupUjVjqD1ddkd9zMQDlfQK51ZvuC4dYVFtbZQGwRAoJgRSIcU3pmopBnmHK5jJyYpFN2cU5VnIfK+7WpT8DMUrgIiKFzZlZDirlx4KQ26j4N3MpW5XClcpw1qkKjf+69HrRe/O1C4itkLKk4XBIoSgaQnzVh8/ETM4YpxDhsULuPuR5bC7E9BXQpA3M9a2B0v8eLOO1cK12mDOGmGJdmwW9LhPElT+PVIOFzx3pnoDQRAQDsB6XB1uJsVruRsc5+eL4x9/lgZOFwxOlxtS6QVLtXRYs7h4nlOWTY5h4vnOaluTRo3os/WrnNt5qxPnhLHDvIcrixb2X8aaeF5DpfTpvvc7urQVXTDc7jCbI0WXh6oGs/hUtlU7VXpW6Uu7FahF7xuceet+znhdQUk7xqDGsT4q6GeEurrURvEqUHh8rrCOA4CIJC3BEyFix2uBOVXlyGFi4+xwoUtLgJtUg6XrjlcWPjYWPjZa40xVSUgaNIMzOHCHK44nimq4zoOG5360GV3rhY+NkIK3TYpfeXPcThcuRrp6BcEQEAbgcQrXP9lhSu12X8nsG98WtTIp22JQ6K1sEqLdeDO21ibvj3AF8l7q1buOLWvv827oEcJL4WrzuZFVOLAbl/9HCtXlbaedatjWd3npqoEQOHydUlJlbO/XvSXgt36mWZrURdv3c8JLwpWhcurbD4d3wmFK58uB2wBARAIQ8DqcAVJ56t70nfQ9kyFix0up/XD7Cv72rNU4Hjmysg++ehUuMKM1+JaR9cX9bj4Jc1eyQV2xzVCjH7AOze8OaQwSRscriRdLdgKAiDgSCD5CldpzOGKMRq/7Qn6FC7ckv4J6Pqi7r9HtZJJs1eeLexWu+5Ba4N3UGJq5SXv6gPrJyq7785RG8WJYw6X2vVHbRAAgRwSSL7DVSZGd0N98m+W9X0TcR5tLA5XkhTRoApqvpVPWtrvpNkrrzfsTmZ69bjv16SPkxqD6ifqQyUUrhy+JKJrEAABPQSkw9W+3R3EL9ByQSb5A5av+2aWwqOscGGLi0DbkodFVzrmcMVlc1HoJ2lKQNLshcKVm7sE4yRe7laFy+w5AXOdd0HhinegoDcQAAH9BBKvcB0tLRzFuL9wFtf+oHDFqwAkVXlJugLAHxSS9FwB73jvy6Tzri4ULmNzWo7LKdeSvVyc9RFSqP/dDy2CAAjETMCqcMXctVJ38555TtR//kipRKWzl4qhGZwok1XYk3jk6X7SFS6vLIVKgzLCyklTApJmLxSuCAdvlqYxTuLlLnmfOrCexdEqoON0PK/3d43GHK54Rwp6AwEQ0E7AHlKYFOUGIYXah4KvBuFw+cKkvVDSXkyTZi8cLu1D1leDGCe+MGkrlBFS6CZt5eHfEVKobQigIRAAgVwRKBIKV67gFcN+25Y6Is46qXO4oHDFM2jxIh0PZziK8XIuKrxZ4UrS9s3oTcJcZClM0lWDrSAAAhkEnBwuOXdBFszHfVPhkiGF9nWksO+8Ppkil6QrXEm9/ZPmwCTN3qLyIp20DyEYJ/E+kbKHFKZCC+WcaJKB7zLkMHfHEVIY7zhBbyAAAhEQYIfrtBrV6euduyJoPdommxwroM9KWKf3RtsfWjcInN24EX2+dh1wxEggicyTaHOSxzd4x3hDJvg5WKr2iXRk28/xwlLsTdoMhUsRJKqDAAjkjsBNLdrC2cod/sT1nNSXusSBdjA4SeyTZKsVNeyO904B73h5J9HZkoTY9jcX/jleYLbeCo7zLHdsIAACIAACIAACIAACIAACIAAC2gnA4dKOFA2CAAiAAAiAAAiAAAiAAAiAgEEADhdGAgiAAAiAAAiAAAiAAAiAAAhERAAOV0Rg0SwIgAAIgAAIgAAIgAAIgAAIwOHCGAABEAABEAABEAABEAABEACBiAjA4YoILJoFARAAARAAARAAARAAARAAAThcGAMgAAIgAAIgAAIgAAIgAAIgEBEBOFwRgUWzIAACIAACIAACIAACIAACIACHC2MABEAABEAABEAABEAABEAABCIiAIcrIrBoFgRAAARAAARAAARAAARAAATgcGEMgAAIgAAIgAAIgAAIgAAIgEBEBOBwRQQWzYIACIAACIAACIAACIAACIAAHC6MARAAARAAARAAARAAARAAARCIiAAcrojAolkQAAEQAAEQAAEQAAEQAAEQgMOFMQACIAACIAACIAACIAACIAACERGAwxURWDQLAiAAAiAAAiAAAiAAAiAAAnC4MAZAAARAAARAAARAAARAAARAICICcLgiAotmQQAEQAAEQAAEQAAEQAAEQAAOF8YACIAACIAACIAACIAACIAACEREAA5XRGDRLAiAAAiAAAiAAAiAAAiAAAjA4cIYAAEQAAEQAAEQAAEQAAEQAIGICMDhiggsmgUBEAABEAABEAABEAABEAABOFwYAyAAAiAAAiAAAiAAAiAAAiAQEQE4XBGBRbMgAAIgAAIgAAIgAAIgAAIgAIcLYwAEQAAEQAAEQAAEQAAEQAAEIiIAhysisGgWBEAABEAABEAABEAABEAABOBwYQyAAAiAAAiAAAiAAAiAAAiAQEQE4HBFBBbNggAIgAAIgAAIgAAIgAAIgAAcLowBEAABEAABEAABEAABEAABEIiIAByuiMCiWRAAARAAARAAARAAARAAARCAw4UxAAIgAAIgAAIgAAIgAAIgAAIREYDDFRFYNAsCIAACIAACIAACIAACIAACcLgwBkAABEAABEAABEAABEAABEAgIgJwuCICi2ZBAARAAARAAARAAARAAARAAA4XxgAIgAAIgAAIgAAIgAAIgAAIREQADldEYNEsCIAACIAACIAACIAACIAACMDhwhgAARAAARAAARAAARAAARAAgYgIwOGKCCyaBQEQAAEQAAEQAAEQAAEQAAE4XBgDIAACIAACIAACIAACIAACIBARAThcEYFFsyAAAiAAAiAAAiAAAiAAAiAAhwtjAARAAARAAARAAARAAARAAAQiIgCHKyKwaBYEQAAEQAAEQAAEQAAEQAAE4HBhDIAACIAACIAACIAACIAACIBARATgcEUEFs2CAAiAAAiAAAiAAAiAAAiAABwujAEQAAEQAAEQAAEQAAEQAAEQiIgAHK6IwKJZEAABEAABEAABEAABEAABEIDDhTEAAiAAAiAAAiAAAiAAAiAAAhERgMMVEVg0CwIgAAIgAAIgAAIgAAIgAAL/HwND4lYf1Tq8AAAAAElFTkSuQmCC;clipPath=inset(14.17% 3.67% 14.17% 31.67%);fontSize=24;" parent="1" vertex="1">
          <mxGeometry x="40" y="801.58" width="860" height="381.2124336305995" as="geometry" />
        </mxCell>
        <mxCell id="MYPHkp6U98748ym2PTXX-3" style="edgeStyle=orthogonalEdgeStyle;rounded=0;orthogonalLoop=1;jettySize=auto;html=1;endArrow=classic;endFill=1;startArrow=classic;startFill=1;endSize=12;startSize=12;fontSize=22;" parent="1" source="MYPHkp6U98748ym2PTXX-2" edge="1">
          <mxGeometry relative="1" as="geometry">
            <mxPoint x="427" y="803" as="targetPoint" />
            <Array as="points">
              <mxPoint x="428" y="803" />
            </Array>
          </mxGeometry>
        </mxCell>
        <mxCell id="MYPHkp6U98748ym2PTXX-17" value="CC-Link IE TSN" style="edgeLabel;html=1;align=center;verticalAlign=middle;resizable=0;points=[];fontSize=22;rotation=-90;" parent="MYPHkp6U98748ym2PTXX-3" vertex="1" connectable="0">
          <mxGeometry x="-0.0705" relative="1" as="geometry">
            <mxPoint as="offset" />
          </mxGeometry>
        </mxCell>
        <mxCell id="MYPHkp6U98748ym2PTXX-2" value="WI-1, SI-1 (HMI)" style="shape=image;verticalLabelPosition=bottom;verticalAlign=top;imageAspect=0;aspect=fixed;image=data:image/jpeg,/9j/2wBDAAQDAwQDAwQEBAQFBQQFBwsHBwYGBw4KCggLEA4RERAOEA8SFBoWEhMYEw8QFh8XGBsbHR0dERYgIh8cIhocHRz/2wBDAQUFBQcGBw0HBw0cEhASHBwcHBwcHBwcHBwcHBwcHBwcHBwcHBwcHBwcHBwcHBwcHBwcHBwcHBwcHBwcHBwcHBz/wgARCAH0AfQDASIAAhEBAxEB/8QAHAABAAEFAQEAAAAAAAAAAAAAAAECBAUHCAMG/8QAGgEBAQEBAQEBAAAAAAAAAAAAAAECAwQFBv/aAAwDAQACEAMQAAAB3+AAAAAAAAAAAAAAAAAAAAAAAAAAAAAAAAAAAAAAAAAAAAAAAAAAAAAAAAAAAAAAAAAAAAAAAAAAAAAAAAAAAAAAAAAAAAAAAAAAAAAAAAAAAAAAAAAAAAAAAAAAAAAAAAAAAAAAAAAAAAAAAAAAAAAAAAAAAAAAAAAAAAAAAAAAAAAAAAAAAAAAAAAAAAAAAAAAAACEiEiEiEiEiEiEiEiEiEiEiEiEiEiEiEiEiEiEiEiEiJAAAAAAAAAADzxF/wAqV07HPtnc9Hxzv6r0I5lto6icuwdROXpOoXLw6gcvDqGOX4OoZ5fHT8cvjqFy6OoY5cHUblsdRuXZXqBy/B1BHL8HUNPL9B1FPLcHUjl2TqG85T2GdBTEwAAAAAAAAABacm9Zck2fY2vybWfsZ+MS1+aCYJZUyVIIgEwKlIqiIJURVahLXTEHooHpPnJ6RErSklCYqZoqj02LrrYp0EiZQAAAAAAAAALTkfrnkOymKSVTQKogSgSiQQTECVIriARAQWUCYApkmaR6VeVR6KJEIpMTFex9b7IXoGYmAAAAAAAAAALbkHsDj6zzhKetxV8t9fH06+o75tV3YaesXfzmmYZiy5rSLim3xj2u7Mcqzub8+yWMqWU+N6zPPmXon00fNQfTT8yr6aPmkfSz8xJ9RHy9eb9Ksp+J09PG7svHr02PrbZeL0FMTAAAAAAAAAAHhyB2ByClsmLPb6LB3HV7xlt1ac//AEGxsB354m23hrPy3A/N7Ds7dPT8x6+6/R1en39uu/TeMYmjaNma16ItsJ59M5+MBPLWfm02Hl8RVuu5y0VG3Nd9JhWG8ej6LY+mNg+Ppl774PKefdtjqqeeKtmay2adBzEwAAAAAAAAAB5cg9f8hJaKqbLv7X4romXT/wBn9bU18Hnfq8/05a0+JzHznh8d3aZK26XTezsN0V9D305T2xvl1aVfP21n2+MryUugtX9ZaD+hj4f6zEdEbj6+8q+Z2tKPk7Jn7iz8cwun9Ldeaa9U07R7+Xq5eaafnbz19ZX2Y2frDaJv+YmUAAAAAAAAADz5E685CS0pRZeb60HsvHfHYvKfEcvflN+aQy9xt7XOzdZviZPGeN/13Y7P+c+pvrelnYtUx8nVvP302lxjnRr7775zWtUb91ptPSi48rDlv3sPm43PrL/A5vOKPnvoMfNcr4n7v4b7XDxpro+XvP31jfc07T1ZtNd+TEwAAAAAAAAABTyF17yEljFVNXH2HyW0sej46ye3P1e2Zxu3kwXyWW+X5/n8pbz77v330ut9hej6FxYXfmz8lbfSeXSXV75uWpw2U+Mqw2bobdurkfOIzPkvD6jF7jO+HrhOPvcbLonAfYefv5/M4DYM+O/GX1HpnTaWrtpG/JiZQAAAAAAAAAI5D685DLCmabLvfehbCXcuL0L9FN9D/Tcx21x0jrvWGKzjf2N5/wDuej16G5E296dbqnDZDx7948KrKqaLNK9IfS6Z+ljJdGcu/b710b6fN5r5W7mnxJ6U0W6enwOY0B68/ZfQ/C/VZYPP/L/T+Zifnffyum0dY7QN9TEwAAAAAAAAABHIfXnIhjqaqbLuwyFhH1PrmPXN0ZsLIZmtQbN8/p4+GsshHRr303Fee/Hw+y59vNrL1WNfG4zXO1p7Z5u8+l59U5lq6Yqy0Tsr6t5t3VfjVxtr8P8AdeXTPPVh0l5/Qxzd9Nubz8etT4fctr5rqa+urep2jq7aC76mJgAAAAAAAAACOReuuR0xlPpFl1jcxYTX13h8hOX1NdvipcrkNdXJlsvlcTbuuzyOK9fP6C9xfvwuTeFvlm5s/Cs1XY+8Y3M4erUurnGe+V/i/XxtyNvbY+sz4eVoqqyrmZtafWNBYnLYm2rZ+sdnG+piZQAAAAAAAAAI5I635KTFq6avPL0xcuQt/jB95iPmstuYq4y2x8b1RsL7X4qXeFhe2nfnmPWi6yt7yv2wxt3FzqU21/eZMbky23n7+0Y289qLcfRkLdMfN1baW+Py9tVr4+1PJoLE5bE6V7N1js1d9zEwAAAAAAAAABHJPW3JaY1MV6Z6y3/jHPvpt71XT07crNQfRbTxtnwWH2nX118pRlLowmYyVBa10X1ltjqPOX6Cqwvkq88fd6Y7M2ONzfoYwuRPXEZf5wz3n7OfS08rS9THeuaxxqOzy+JuZ2VrbZK78mJgAAAAAAAAACOTOs+TUxsVxV7t7SjONxtNo3K02Nz4/VCzaVWrHbezqtX1SbPo1nFbJuNXQmzo1kXaFWrhsW41kTZ/lrUuzKtYQbQw3xES7JjW0c9bFnXEmyLb4GVu7H0m5o2RrrYZv+YmUAAAAAAAAAByh1dyomLp9Yrzn0mvJ7JPGPak85rgpmZKZkQmSlUKHoPNXBQqVSmYoiuChUKJqLRNYpqmSmZFOxNe7CN+TTVKAAAAAAAAABHLHU/LtmJprikpkpVDzVCiahSqFCuSiahTNQpViiPSDzj1pPNWKIrHmrFD0HnNZaZSUzIjYWvthm9qomUAAAAAAAAACNG7yHPdPQxOeXQyuevXoAaA8+gxz06GRz06Fg57noNXPdXQQ59noEc/t/yaBb+RoB0AOf3QA0A3/BoFv+DQPpvoaI89+DQLfpdCVb5GivqtlhIAAAAAAAAACCSCUCUCYCUCUIlAlAlAlCpQJQJQJQJQJQJQJQJQJQJQJAAAAAAAAAAAAAAAAAAAAAAAAAAAAAAAAAAAAAAAAAAAAAAAAAAAAAAAAAAAAAAAAAAAAAAAAAAAAAAAAAAAAAAAAAAAAAAAAAAAAAAAAAAAAAAAAAAAAAAAAAAAAAAAAAAAAAAAAAAAAAAAAAAAAAAAAAAAAAAAAAAAAAAAAAAAAAAAAAAAAAAAAAAAAAAAAAAAAAAAAAAAAAAAAAAAAAAAAAAAAAAAAAAAAAB//8QAMhAAAAYAAwcDAwMFAQAAAAAAAAECAwQFBhEVEBITFBY1QCEzNDAxMiAiJBclNlCQI//aAAgBAQABBQL/AK+GeRarEGqxBq0QarEGrRBqsUarFGrRRq0UatEGrRBqsUarFGrRBq0QatEGrRRq0UatFGrRRq8QavEGsRBrEQaxEGsRBrEQazEGsxBrUQa1DGtwhrkIa5CGuQRrsEa7BGvQRr0Ea9BEWzjTFeLJ+Op9wNRlu1rDMqURxJZBUCcQeORHXzDo5hwcw6OZcHMODmHBzDg47g47g47g47g46xxljjLHGWOMscZY4qhxVDiqHFUOIocRQ4hjfMbxjeMbwzGYzG8MxmMIH/dvFk/HTum4qfXpdTNiMrKzZQTlo0tpbinD/wBFg8v7t4sn45+Rn9chg/u3iv8AsKPz8/o4P7r4r/sq+/8Ap8H918V72l/lsabN5zgIHAQOAgcBA4CBwEDgIHAQOA2OAgcBA5dA5dA4CBy6By6Ry6By6By6By6By6By6By6By6By6By6By6By6By6BwEDl0DgIHLoDrRtKBDB3dfFe9pf5bIPyg5GbfeXUsobVVRkPky27WLqo6H2EtuTHIaJIlVLEdtdbH52VFRHg8khwO07KG6Ntl6VY1rDkpysaZlKaTp+jMk66aN76afyj8ubDKWuHI2EMG918V321/lsbcW0uRWSYid9xRnvKBuKESjnTGemrgdLWZBNJcNHYQ5tTFK4PfO4MwVsNYPIrDMHaKIjt1GNVyGsGNTQNUQNTQNTQNSQNSQNRIakgakgakgamgJskqVoLgbr23RoSzE4lolbMF918Vf4Ofnsi/Jmv87aVEWNNnJSwgm/5thCVyV9Omtwm38RSVriYj4i8YGSqUEWYhUj0lULDje+jDkcgvDkYxNwq2Ym078QzLLaRCNCdkHDwuagzhlpJdOxlplYUZUU/Dr8QLQaDCT3VdVuDV44LFKiJcnnHAQwX3TxV/g97myL8mxoXEyo0CdEeTNnhxU9S6iqfVJekqk3Emxm76CdtYto6buGEJNaqenLeiwG46CQQ1WMRuWUdsnUJWT0Fs2r2g4ANOQyFVVKmOV9YiMDitkFSG0uIdRumaJDbsckpuKBMgOtGyv9ET2tmCu6eKv8Xvc2RflG3xUMcGvSV/EI3Vs2jSE5ImOHW3EkreKtlybDiXMY4uHKCv5h6JFbZbITFvoEhwkmWRHFlOPu/YTWXFniCt5GTEY5h6rrlsNF+1OWQsVRXZMhqCKx5txoyyDyTWWJKkzQf6Ins7ME9y8VX4yPd2RflS5hRGp7MyRIXVPhEiXUv01omxYtKpuwQminRDh0xtu4sbypsPtJYQ45wg28h4swbbiASFKCM90x9xiKGT8HDUTeXGI0E3IbWpXqlBrbZUlahuOkkH95jC3kTmeXk7Yns7MFdx8U/tJ9/ZGPKTaTFsWNi842pxCkKiL1FjCj5tSLCwKMS5tlMNi8kxXsQLJ2upUEmKj7OsNum6t+Olp0nXXN7isuG42DPI5DiZKMONEQz/AGuNodI23WxMmKfdey3K91am88wfqT6iyxQ2Tdoe2J7OzBXcvFP7Sff2R/WRdrNE61WpizbvXm1UO8qXhdk1hTypFzYMWsh5iPJlQnnc6KnURxU/YSC3m290yU8oij5k3skmSSw2sjLIkjMKML/a8o0RzgKNQL7B8iJOKz3rVinlPtqpFCTFeirie1swT3LxTEr5GyL8q6ruOhqaUdskUg33LVNNXpYRab9baPVMqSthhdXHvWOToMPTUqhpUMwYcj7wbhpSZegzBmLqUUevwvM3FtvE6M89jjeZlC/chskFmMw8st6MyiwsHHpFlJnZ8LcBMLirH2GCPWx8UxK+RsifKXOiJEpuveCIUElRnK5siu65JTptVOQ5XQN+EmvhjFEll+koJ6WH2VkaSPZmMxnscXmMT2RSHoUk4z8Ce060R5bcxmMwte6WIbHkocRe7h6pZJEJ5RrFkkihXaSTP2YI9LHxTEv5GyJ8rEfeCCYTLkY6FW45TcNJ1aUOyY/ASGP8ZSo0nRXyd1iVxS3jG/sMwp0Xl8iM2pRqMjFJb8o5GsEuNkob43sxmFukkWNk1AbnznJ8iokJUivmFFClfvQpM9TstVg+CGCu4+NL+RsifKxH3ippo06NZU0WLE+4KhaS1w9yTHpYaoF7VsQGmP8AGAlW6ddiJ6GImIYr5c6hxBzEJKTexI4scSvSUmo1GYz2V9xIgKhYgjPhuwbWXMHvv2bDQm4pQ2JMpyUvMZhq4zRqdeQn2r88ontAhgruPjTPkbInysR94raKxOPIoZ7wPBiiGhzmgWDlkpihtG28RQ5kFFW0T9GjDleZFhav304KgKIsDwAnBcMgeCoSh0HXjoKuMdAVw6ArgWAK0x/T+uHQNaOgK4FgWEgKwZECsCQFDoOuHQdcOha8dDV4PA8Ag5g+vbN7CcBo5MZMOQCGC+5eNL+Rsil/KxH3eLi1uLFkYkgPq6irNxzEtc40m+qkExiyHFav71FwKPtJpIyaSsnGsyBEYTmErM3SzDZ5p9R65LcMpfqGH+OFrNCSM1E/mbnqMzMzzHqHFLzVmHDIb/8A6Wnz9mC+5eNM+SeyL8i9Sld6jcciyUIcLB8ivi2V9IgOXZvRCDDlelWK5dU/X0faSBbhyf2tPKdyCXGzbJZB9xLTUJtMZDrrbCN5G42zvxTd4sXJuKp11PFJSSDTiVIJwkR2U8vIkOJbabd/Y4WRkpJEl1CxukQs+4AhgvuXjTPknsin/JtzPXSaIejx4cdhxp927GdsA0y4+uREfiKpO0kM3OYdzJaM1L4B77yTNG8by3d5s0qN19xp1JeoRGND60cRDLXDS7vtESTSnljS8+lWR5vSPVDzWZhRGlLiybI1ZuWfcNmC+5eNL+UeyL8nEfeM9hBplk46YjBnhuOhFbdRG5Eaj7TmRBSS4ptk+0hskpJA3SDMbhrNpL7DLJNNkkhukDIgjJQ3SG4QNBA0kCSRqQwltDzJrQTZJJTCTW64lB5ER2fcNmDO5eNL+TsbcJlyfX19hL6erx05XDpuuHTdcOnK4VUaPUuWLTM9BcpVV68RwHUdQQUtNYjhpeLFtcCxdWjrGtB4wrTKJiqCwvrSsHWtWOtawKxnWqJjFUBtzrWsHW1WDxrWBWM6wyLFUApPWNaOsK0Hi6uB4srjBYlgk6eKIGct9MmVswZ3PxpfydlX3FbrDYav6x0a3XBy+rWhrddk1KivNzOGpxMOGaeThg5FUhcXTZpclDC4sVIabYeVycMIlVKgmfSrJJVy0cnDEhtlkNxYqkyUQIqFzqRpKJFStbbMJxa4kQkylk3HOuh56fECnapDkdqtljT4gmRo8ZNkeczZg3ufjTPkbIThMyl3EBSysa0hqNaNSrTGo1o1WARS7aKp0rxohrrQO5jmCu2UjXWgq7aMm7Zlk9daGsxwVvGIa2yNdaD1q0+EXjSU64yYO4imNbjkCvGCB3zIfmtOs6+NfB3ZGCvd0a+YfuOYKYsnJGzBvdPGmfJ+nkMhkMtmQyGWzIZbMhkMhkMvo5DIZDB3dfGml/Ky25DIZDL6uXiYO7p400v5WzIZeJl4GEO6eNO+X9HIZDL6OWzL6GQy+hhDunjTy/lmX0cvrZfpyGW3IZfqwh3TxplBKXJ6fljQJY0CWNAljQJYLDssdOSweHZY6fmDp+YOn5g6emDp6YOnpg6fmjp2aOnZo6dmjp2aOnJo6cmjpyaOmpw6anDpmcOmZw6ZnDpicOmJw6XnDpecCwrNHScwdKzR0tOHS04dKzh0pNHScwUVE9Xyv9Rl/wB0/wD/xAAmEQACAgEDBAICAwAAAAAAAAAAAQIREgMQIRMiMUBBUQRCYHCA/9oACAEDAQE/Af7msv36/gMpUZMyZkzJmRmKRkzNnUZ1GdRnUZ1GdRl+hRSFNN0TnCPkjKMvGyg5GJgcFIxMStoxi/JjEfoKLOmk7O1zfUNBJT7fBBL5E62u+CcMVZBWXXCLE6JwvlC9HR085D1dPS4Zr6Sksomu9P8AY0nBrtE4lKXgepNcNF2YNqyAlGXguUeaJamQnwfIvQ/HnhKzV/HzeSNWajHFFxU3maK724iXG3L87WQTq1tb8C3i79Fakl4G7HBS8iiorgUn4Gh7SZpy+GNfI1s2L1qOSxmJiJtF7Ylele8lQ9myy9k9rL9WEcnRqQcHTHtRQkUVvXpOXNHcd30ZyizJstmTE2Wy2ZMtlsTt0UUV6DjzZT+yn9mN70JVvjuuHZkZGX+af//EADARAAEDAwIEBgECBwAAAAAAAAEAAhEDBBIhMRBAQVEFFBUiQmETIFAjMDJSYHCA/9oACAECAQE/Af8AcoUKP0Qo4wo5UKVP+AeG2NO5aS7ohY22mRK9PtuhKb4bbumCUyxtj3Xp9vtqjYWo6lVLChTqYmV6fbHYlU/C7eoYBK9Do916HR7r0Oh3XodHuvQ6PdP8FotEyi2jMYlOidP57K1Sn/QYXmavdGpWA1cjfVGfJMuXuOjlTfU3Lk+8x0lefcd0y7z0lE1Bs5flrf3I3T27vXqD+6bel3yRqVPi5VLiuPkvMVe6knfkTVdELTL3K3b/ABNFXqfELfhsrSvJwcruoGaBHXgVb1oOJVamn6cg4woLtUx2sKoW9VQLfiiSSphCm3uohNdi4FVH5mVssQeqLcTHAe6nKrb8g8SEHwmiStA85K3E1NEdCphZDfg0SYCqsLHQeGQ3TjJ4GvgwNCe6eRgcC0HdUQGuEK4o/IIKeFlbycnK+o5+9q2342tuajpOyuW4v5LJSpTSmVCNwqjmHZQFTdTbqUb4bQvOd1VdTeoCpljT7l55oENCq1g/ksAusLEJiondO3UcTwHA6BR1RGvJZe2ETCBlUjEqUCj+oHVSuvIE6rVSU3UwsAOqxb3WDT1RpgblYt7rBpX4li3usW90WCJ5Mt1WH2sPtNEGVn9LL6WX0s+6y+ll9LMrL6WX0nOkQoUft4/YpUqeMqVKn/hH/8QASBAAAQICBAkIBwcDAwQDAAAAAQACAxEEEiExEDIzNEFRkZKhEyJAYXFysdEFI0JSc4GiFCBDUMHh8DVighUldCQwkPFTg5P/2gAIAQEABj8C/wDL5NZXgVleBWU4FZTgVlOBWU4FZTgVlOBWU4FZQ7pWUO6VlDulZQ7pWUO6VlDulZQ7pWU4FZTgVlOBWU4FZTgVlOBWU4FZTgVlOBWU4FZTgVlOBWU4LKcFlOCynBZXgsrwWV4LK8FleCyvBZXgsrwRZCfNw0dGi90+CsiO2qNS+XM2GUpomEXEAyxlOtPRY9afk5VIjnB0pymso7aso7aso7aso7aso7aso7aso7asd21ZR21Y7tqx3bVju2rHdtWO7asY7VjlYx2rHO1Yx2rGO1Yx2rGO1YxV52q8q8rT/wBhvcPRovdPgm15hk7ZakxjKNOinHnOZOgqOIPKNhvM29SaGE2SnMXoyDxEunegXkk3W/kbe4ejRe6fD8pHcPRovdP5SO4ejRO6Ufygdw9Gf2FHC1jZTdrWd0bePks7o28fJZ3Rt4+Szujbx8lndG3j5LO6NvHyWd0bePks7o28fJZ3Rt4+Szujbx8lndG3j5LO6NvHyWd0bePks7o28fJZ3Rt4+Szujbx8lndG3j5LO6NvHyWd0bePks7o28fJZ3Rt4+Szujbx8lndG3j5LO6NvHyWd0bePks7o28fJZ3Rt4+Szujbx8lndG3j5LO6NvHyWd0bePks7o28fJZ3Rt4+SAJaZgGbbQRhHcPRn9hRww/5owDlGuAZRGPkyQnd5qO7lHepimCZ65ir+uxRG14hEJkQkCU5t6+tAsbKdJlWN4EheojK0QiE2IXAX83zUJsvVOiAW6pp3KQyHtiRqoYJEhoBATzyxnzqvylYdqiUcctVhsrOMx1eapLA2b4dKqVpWyAKhTnIUXliGi1xncopDolcB5HyAP6qLDjy5J8Igk+zO4qI9k2NeCW1RJrKrAbe1UcMr1THEIh0joB/VUvmTeykATGqRQaXxJNeWG7nSbWmF6udTRWv/wC4F60ubFk79lOIWzkTfb1KB8JuH/A9Gf2I4Q6GAYgxQdJVaPRvRsOfvPPmp/7dOUso67VejMejDO0ziOMztV/o66WUf5ouo0H0Y+Eb6sR0vFZtQLpZR/msx9G77vNEijUCdUtte42ar0Ykah0MQSZEMc7zVf7LAra+dPxTp0SBzsbGt4oH7JAm2486zis1g6fe036UatBgSOoO80Z0OFI3zr28UD9mg2W3uv13p0qJRxWvxreKEqNB5t1rrOKzGjfV5rMKL9Xmswov1eazGi/V5rMaL9Xmsxov1eazCjbHeazGjbHeazGi/V5rMKL9Xmsxov1eaA+w0W2z2vNZOg7jvNTY70aROXtX7ymIdBl3XeaiQ3hgMOTRUulLD/gejO7E7DA77fFUmJHxWPLWt1AJkN8NpYJuI1yQa2DDDRoDRYosGQbBgjQJTKY2FzQ95hvAudqKrRL9A0lOENspaJTKqUgAaJpxF1duCy9SqmeoaO0oNcZO/tE+JVoce1xWI4djipteAdT/ADV1n80/dEhYePZrQMQAd+/YvbPZZ4KYD94okOl3gi6U26xaFJwkcAOpZD6kf+gZbbjIAQLBZjKJHlIvOE9w9GKd24YHfb4qLFhQzEZEtIGtNjQ6JFD2q30ZGn1LlIdApUKJdNulNpVKbU5PFab+0owxfig+6Lye3QnMosN8KC24MbxmoxjQiKTAbXbFlKsNStPttQAtJ1JpiTt0jwHmgKoa0aBcgWsE9ZUQGNIw9FW09mwp86Q0uZeBepPmOtGHVDmHQUY0G1nguvA01bLwD4nqQ5k3Gyv1eSvlbOQQhEgRHWgOK5jodXRzkbZtumLVEeLSdCc6DDk4CctB7EWuvH3fnhd8M9GKf2nDA77fFOZOU9KdN7iZDrUq31DzXJw45Y7qscg0mcrJpsV86ky1x1TH8KbyD4j4MiGOYJgtVIjU17jGpAqQoRvJOlCEcZpbPtQfr4DSf0TeYBVEgNSt2KCIGl3PmLhJCI/0RNzgDWmbzoTT/o8QkkzJtNs5p8N1HqMY0GtPTq7V1J0qphmwgo1bYbrQUGy5otK5oFci3VPyCaNK1o/aoTjVNVpYbbNPFF0SDSZCwASsON+qe2ExzYbTMVr7bfFWWJtWdmpGkgAOnaB9354XfDPRioneOGB32+KnIve41WQxe92pck4ctHvLRiQ1LlaJX9ysJqq4OZK2obkD7S0V/FFsGNSIbf7LQuWi13Rv/kjGZHyTmN0xG7U3m41k+ofvND1b3NGkWy+Smxwd2YCDGAJ13lNAeCWunKaFYzdgI1KJrh2/IoO042y79Uawk2QRbWlE1Gwo/oZKHXALhIElEB4AMxOsgBIGsD8sLoZHNiWW6lEhnQfufPC74Z6PE7xwwT/ePFGra6CAxnabyhQYBcXm2IRe9xUnCTtRUShxLXNBdBJvBF4ThoFqDWtL4z7GtGlF0NsQgaW3bVydLa4A6HC1Q3AzHKtKgD+wKetTIk/3hYU50xFA12OCBiEmtodYiYcwG6U1xxtOD5KM2RE2G9ROqQ4T/VADssUntBC9XErt92LbxUnThtbZLRtTKgNYosiGZZcTgKHvXqJLTb9z54X/AA+jxO8cMIf3jxXK6yInb/JL7Q0VocWURh0EFViyGbJatElHpkTJwWOc49ZFyjRpXmQ8E+HOQcCD3RbxTvVuDGmwNIkAo0KlMJaxpdCiHQRoUIk/ihQO4MLgpRAJMuJ0ohpm03ps78MQyuhnwUXvA8EJaTPC5pFjtaPJkJ7iJYeu5P6kIsmwoXvxTVBXNpUBx1TI4lVIzC06OtfPDE+H0eL3jhgfEb4qz/A6J6QV9jp8AxYDTZocxVzSKTL3ZCe1MoVBgGBQQbdbkwMycPT7zv2Qj1S5gNo1j/0jEoMcxoLrpPtHaokExeVp9IFRsJpmIYN5QYPwnNE9Z0psziGXyNynoN2EgEgHQrZn7kd+l/NCcw6bPmLlVE5gA4awMna1OakLsNuK209ipdPjitBgmxpuc7UncmbBYXn+WKiyNoB69JX2WlD1ET6ToIUWC/GhvlhifD6PF7xwwO+3xT4cV4Ogggrm0hhGqJOz5oH1HbP9l6ylsq+6wHxUhSGgXXKT6S0HXK5EiO0j+1xCsisaTpEy4/NP5FwLWvbdoQZEtYmjVcrb/vVReUKPDPq4aa4fwoRG2Ai3qOpA+yfvuZP10bRqCbVxjGdW7ZBQz7yYDc1MdpCPvVGE9ssMT4fR4veOGj/Eb4qkduCE4RpRS0udWuFskXfaoNnXYg77VBcDfVUaGY9YwzKswWK087svwUr4rf1QIvCECOZAXO1fsrRLURpWtXHDJtpToFHcHRXWOeP0RJvwBkQVoZsITS3nMJlZq61YVbNWYTEjHn+yzzTosQ2lRaE9wbypDobjcHJ1Fjgw3Mnfo6kO1CJE5vo6i86I8+0RoUekuviPJlqGjDE+H0eL3jho/wARviqR2p0WJMFpAkJagjFhzrAgWgKSbEMSJKs2GZETrOlLsvuvXJuM5Pkeu1QqTE5Ql14aJ6ZJhhTm6d8lSvit/XBMGRQY/nQ9RWOWHUbUaseF21lbGhbyM4pedTUYcH1cLqUzafuTDuaue4w3Ez1hTZGhu+aJrsq94Ln0hg6haiKK0l3vuRfFcSThbDpcEUhrbASZOA7UD9he8jQ+JYmseWsgMxYTBJoXzwxPh9Hi984aP8RviqR2oOo9OhshukZGy0gIwo3pOja6pKH+40Xndd6hT9LUfn2N01v360Hf6jRDb7yAh+koHJjUbE0UqktimcpAXTCjQzc6OzxUjypcEGnldaBD4kisaKstHVsaOspFWUirHirHirHirHirHirKRVZGjcFL7RG4K2LGKykVY8VY8VY0VY0TggK0S1AetM1FgsxWuIwxPh9Hjd84aP8AEb4qkdqEI0SI5tls9Qkpx/RrnOutcqn+mGqTPHTIb/RrqkPFFe5ED0WQNVdclCoMRrBcK6mIRhmtOU9Qknf8iH4p1gn2JnMAu1X/APpPbZzT+60LQqlnatCskb1oWhA6G806rVoT6sua6SJv7FMSkq4l6m3z4LQnWi9aFoXNlJlpWhNDhO1FupUjvnxOF/w+jxu+cMDvt8QooeZMrWlcj9pYyGTpFqYHUyG4jQ0KN9sLLR6t7xYnxKK0Gj6ZXEoFkGJPTMphdCiG0TndJQBRahjWSqi4J3x4fiijfOtbt80b6jhPsTarCVygPNvTLCPanr1p7xOejtRg22c7z4qs6crrFWnZenVspEm7sKbVnyj+b2HSmOANQ+rKa20ltsgq4nUdanOcx1V8zMrW5vN7Sqr3EmMJnvi9OOm5Se19dtnzQlObOees6lKdgtHYVO+s7mz1a1cqR3z4nC/4fR43fOGB32+IVIaLK/NnqRBgURxFth0XqTIVHbwFyeKXK6wm5RTRQOR8cAZDYXuOhoVWPCfDP9wTv+QzxwEc2U+bsTHWWOkfmnPsssCkLGkzOpaJttUGHZZafkoMQXB1U9h/eSddUh2fNckzJvO6NK0KI+uKhta3UdKc3XNXWm1Oq3Pss0FACVirg82+r160XCU4bqw/nYhdUhW/M/su+J/MJz7OceGhFkhXHNae1NabQOCLZXKkd8+Jwv8Ahno8bvnDA77fFUjt+4HuiCvMir8rOKkaU0c2c+uVyEdlsVzzPWqUYrgKjZtT/wDkQ/FEzkEx0y6toEkapkHXFADRheTKVzexOb70wmsvl1/cPUfuv6jJVR4rmyDxagBcLEH+1cmsvN/YrAqR3z4nC74Z/To8bvnDDiOxWOBMu1Pj/wCqwW17bV/WYC/rdG4r+t0Zf1yjL+uUZEwvTFFiM0sM5dq5M+lYDYekNnMrkodKbSHuitdJoOhSdyrf8blUa6LuaVXcXgag02fz9F+LuL8XcX4u4rHx29YYiXxIpBnZUNnV/Na/G3FfG3F+NuLGjt/+tAuiRnDuFXxv/wA1fG3F+NuKwxgdYYjErxat8qp/lq/F3F+LuL8XcX4u4ojiYhabuavxd1RojJyc4m3twu7h6PG75w0XVXCdNg5vUEBc+6rUtRNlQe1UsUAkcyPOq6pqQd7B9qomxGNBY641b1BZVAaZWCzQUMbaV7W1Rmvc9nJY16eYReQ0ytmF7W1TaCe0lOMQG++ZXtbSuc6I11thndrVZkZ7mztMjYoT28oWRHVQbQva2lN5Od5E5nUUKwIPaUHOEQzMpBBzo7gx1gMjaqleJWNgsNqitk8cmZTnerK0+0qKBZVeavVd+6ykfeWVjbyiNfGpLRDvcbk/ko8c8nY7RLgsrH2/soRhviuLorWkONkiony8MJ7h6PG75wwYjsVrgU4/aG29RWVhD/BZSFLuLKwj2tKlysLdKsjs2FQ3Q4jX1JaZTvUqvELFG0IzgsM9crVZDaPmFiDeCxRPvBOudMzmCNSxRtCyTdWhZFg7JIerEh2LEG0JgsaASZkjUhzdAF4VrRtCtgwzsWSbwVjAJ9itAl2hPFdtZzpy1LFgbViwNpVsOjFGUOjiaxaPtTA7kgGvD7DqT3NMwZeAwnuHo8bvn8oPcPR43fPj+Uf4Ho8bvnx/KD3D0eP3z+Uf4Ho8bvn8o/wPR4pEJxBcTMLN4mxZtF2LNouxZtF2LNomxZB6yLlm71msRZrEWaxFmsRZrEWaxOCzWJwWbP4LNn8Fmz+CzZ20LN3bQs3dtCzc7Qs3O0LNztCzc7Qs3O0LIHaFkDvBZA7wWQ+oLI/UFk+IWJxCyfELI/UFkvqCyX1BZMbwWKNoTosX3Zf+fz//xAAsEAEAAgECBQQCAwEAAwEAAAABABEhMUFRYXGB8BCRocGx0UDh8SAwYJBQ/9oACAEBAAE/If8A5/dp2nadp2nadp2nadp2nadp2nadp2nadp2nadp2nadp2nadp2nadp2nadp2nadp2nadp2nadv8A1QmSAZV2mpQen6IJpby4TmfLlOd8uU5ny5Tn/LlOe8uU5jy5TmPLlKPA+J4B9TzD6nmH1PAPqeAfU8g+pz3lynPeXKc95cpXu8uU5zy5TmfLlOY8uU5jy5Tn/LlOc8uU5zy5TmvLlOe985r3znvdEt/uniU8ynlU5z3TyqeFTxqc97pWz1qK/jd79yEaAddEqljDZZv3zjpLoLDhWF35DC7MWLJS0H5JY5sXi1a1hJIGa4TE/wBlMf2p/tp/qof36P8Aforp7qf7aXftT/aT/aS0+5Lj7E/0E43vp/ov7lmvvo/3qW/vT/RfuFv2pm+xLv2M/wBZP9pjte4zjPuYp3fdl71feXvV95fi+8FxfeX4wzytdZuWtvOiBX8U34+UJToLi3iqL2FZANsXt83GE0AZKNmuzmI42pTSBxw7wzTXYUTffF4zygQWAVaBoSz/AIv0uLL9CvW4y8y/QmkvMuXzlwjp6VcqJmUQw+gXKPNx/G8HxTWvWLnSphlppFv/AIdPQl+j66S5cupdxZ3lstL9LneXBgzX1q2MuGsowZ+H4f4xvyMMoU5sX1uLLly/W/S79Lg3L9L9Fly/W5cuEGEDLv0vMYwhM/JxD+Ll4mGP3n8xZcuX6HrvL9LxL9LhLlxZf/JHT/oly5cYwYM8zwh/FF+dhi9xm/osQahVBzWN1aGshuh3oRLexAlexBl3OEF7IY8yGFpqgcmzBw7e1GMgLGjV2b0PM+Sk/o2uHn8lrhSTUnHW/wCEHHhy6cq/548WPHh6jLhzHeDjBcfJIalFRQ0pQ5y/R4Ph/G8NwnyWPphp6uvVMV+JSwtFUgbxvbNSiS3QFIFVaIpzCLXvZHGiqFY1OcWVYNamqwc/eNx5gZaW6oBtTUusxJ5uDL0xK5UKRyBWS7Lp6yy4RPCDoQZW2TTnCa+boLEbWA00Vaii0sIwi8WH7l3QgMEQjHe6cXEYlSigPErXS527THCmjJAHBFGEMSpCApXFRprFwY26l6q0zxnSHaoiQJwNYMaY2hf5mMkuj0sruZ2llU6rByDVCVy/MrlK8zM85nh+Z5vNfGV5mV1lco9PzOB3MZmj5uq7XgK1zxiWNmhV10NWr8Z3xpvV56416LMdjl+I/jfI/iH32Ovo19gFYzVV3hAtoArx/KD1mhx405HKB3ce807nL7sS2tnZVDc6uGkwY9D08wpcbhWRlcQ7cnLSO6S71Ys6iXKykWqEgUSsYrpZ0wSBMpLcVpc2BDWyvv37+8S8QVZc8DaZgCClsg58TnlZacdYcGtMCT1gwA0Hpx2IojqCq0NObjWXIE0TDO8mrvNi6JtXAvHHCYqx9I/4Ef8AIj/lR3rjpEb6iFOpEJLD/VR/yI/5US2SiyYWzc4udCPDmJ2GxqV1QMIrIk9ba0UICVau/H0GZI4fVL/i5dd+Jjg3Y6wiC7FaXTHuShtGVX3CbFQaBpBMJQEDFVjnNHoqBaMZDaVco2AADSYsyLLOZUBldgN2Hyu0oDnRQ94tsFwlF87LmUxNfHMC4tAKmqNZkZGtXuMHTLB5M5Ay7j7BAAd42oCgzjY+WWSxgAF7JYFudOo9NDFVJSbMSVLIqOXA0qzUBldIWE3V5DsaOivSGhaOIHsCDlC7v2REbrafkqHgwzZ/YdyIkBsxJj+7DXGo3bOjx8RS7ddIy1pXTkSlqdAeAKNor2dpd1QGvpqmv4fVDf8Ai/FZh1EZpKtxjN7Yva7jJuZoG4Ew3qPKLDuAp+IPoiyGHMqPXIV12cvEdPGbABVnAA5ho7S+P0Vb5gNvF0uoAIKLgzbS9LvlB6ygC64d/f4hhqQAZV2iEw0HWXdtjURwog2E4ChfL7143L+RMBT5/UbhU3YgKWDXQ7MybRQUJhK6j88JSsLwP30mVgrzj0mE3dHVcH99IiRwGkhnrGxZmgCGvKfLjSIVbhobaamxwBKy0EMDKbwzONAsya9uuvCMNsDgeNOudb9pSAVtWLFE7VmJkE1BXCqNe8VavpMu/YZqfVEJEiSoMyPV9SoGYL5H5CH8X4bDReFxI5gTwsZUy5K60hwyh3YPbLbrL/u3VCvtG9DPcY/q5bRQWatbwpRUnCC/jomoyh2UbG4F3nErDlwrqaBgCbxC+Kbr4+YqVgnJqOA5rh1XaKNIhGCaBBuCyqWQzKTGcTIKVxpp8ywoAeAqo51mi701lgtRKNrNNOA0cjVSkYJIq9KGFN7ZNY3jle3CUhE4kO0ZQaPEDp32ehM8GqnVLMHNcHWPSrraA4DoYO8uAaSzY49r+oGy5b3+DlNsQI3F2NARAnOBFxDWUKbM6fNhGPEiwbYrGSVmWLzcDf8AUdsytVSeP5haQtoLke/msMYw1ml1fXoakHkbkP4vxGYF4Wxaix3wPqxIyPXR+GlsCCrG6J2oo7rxiRsraVuGlX1ZaysStuiPyMLzdDUzzHmS4tKVkwNh99Y1juRezUX4lXsBaUAbALqp+2CNlQQYMH2d4qZqIfd1J09o2pmu46mp3I43qcOMJQJVVit0cMY3hCdNEhw4deMTJgKVc3+JopyOGaEbYdqzp9h+aY9Zgr7q+VuxLeAousu/nOEywqmp2dTpG0bWkNA7ZNPmFAGuvJq269IiYmQt2NSuntBdXAXs282iivCVL8cPCZkctBRs+Y4irMec7iRhrNLq9DLD5G5D+LqdGdr9jGXOUT/GKBBm6BX1Mh3m/CRzrReBwiJ5ORB5YYylz7spbwS8bVDitgi+H9LEXs5JQW9A3do9gsBR5Cc9iB3VlIDjWj1GFmUaNmFT8QWZpLTiX9yltyeTBVQ0enufcp4aj/IfiIWFa1q84SgNWwOCCZkV1RbhO1eTXGHEF/oL/MBRVL2/sUooXbZ2cdpVK9BNOjqRcxGbrVwNZ3uJdGDS3QY/EICoZysW4pNQHD8T8UNDlFBSAMzzlNs6fdn7YI+ml1ehqRXyF+SGn8XJdJ5fix9Alao/CK6KHByU/MMgCUWg5cGx/uK2a3hG1vtisdKuA3qoFFgBzbfaWHgWHVUH5fZ4Q72ZaNAgdrasf3CmMaqL6fMSwBQpLQ60l4jXgAgaGa+47GiHsV9S9bd3EVj0l1muMwQg1fgwQ2CK26wUSllOEvMasXU3lQlJ0OI+4xjl7Fr9MAIVkZ3rqRozIHESVJWkaWFbtwnKCYFR6RcNKrirWv1NCOcOjiI0Mgs5aghORraqGIxnTsBeXsQlCXRBewHzDSAWnQcR0TpMCc316GpPmfyQ0/i6GDwt4kY9PwMRKAqqYs1WyuTayOmEqtnen8mmkK3py5zlsmbMDpU4ru/HOUWZw2UVY7lkvdWBahBaqU+OfCPSW3WPALhPmWBNc6yNhqWMvuwv2JUqhCgXlsafPtDcEc6IwLDj+YYZW0Ai8cwkqjQdoA9Y0lY8N450O5bv4PeAp0oL3L+CkPeQrvAixuLYkywMqhd9oFlc4BVwmFDQmqMAKgBZ0AXADVKsu0XIBXjVaMvTMJaBsGgNKMEdKsi0A613AgDaQ3G1e2Wk5wQ6Y+bjPtXpZRiEc35IfxdDDXhZ9GYafO6Y+PaiCe0ylaoKw4BLrqM2uN1v2hQ5JA8lFpyKhYIoAwDY02lVxKC2nBKyQLKreQHlV/LCF10ADqMSj5NOY4+JnXWkvQ4nT8XCajQvxNk44luMBqbxcTD0MLxjI68uK49JaSx2bt2/P1KzjI26AbH6mvAADO51fuDQMInEvjL0YvPEYV6DZWAJgdXAeuvbnCYrtXZfEAAWLXdd5eK0QOBdxC1fj2v6PaClU6niN96r0C8QUOb8kP4uhmj8rixj8jbOJdX5ZbO984U8xPGVGCy1vkCxwFyFFkF1bv8ASR37EBKlNYN+MDtmYblY+fiUllEM0yLa6OO8t366xLerx3nDEo1jzgv8zK7/AE/BtwiiznGbmjl9xGLC9MRcwTeOuwZzQHNdIDg3QDlycY6CptWUL0iYiKHKbJzPxMEZF1H4IIKaa0vxEDQHaAGVxBvAW2CgQXbauo/pFXqKd4D80AHBfJMe0ESAAc77d94dCuVXPP4izY2GNAeKvC8XDOob7B2APTWT2y/JD+K6Q5/K4xzPEcM+a/LMYthRV10mdZfnABLFpxQ6QUZUGcuJXkAG0LK4LWthpccYdDUovTWUUEUgL0itNJZEoNRpWlHOXfDzBj8RQQGiOYdQuyVh0NoE6XoPbSJx1mMFdmCgyGWjDkb2qHuwkxtt/XjGSKZVyxVCB4ZgtTgI79b1glWAgWPS8ShAdNH5qJLvmDega1Gq2h1acZHtwj9WvLEcpiibRDCLdwav3EoZWPe+jMFQPx1Dfmx29cpV3ZUwSfPfkm/8V0g9s+Ynp4jhnzX5YPqnByIPqX+tFSeVX3io11FXN34LzF4Ot0wii7pEYpZOMslKOLZ1pb6xb16BkU3ALMHCyLvtFJxGl6o03jBybaAvimeO0sgbC1mB+72i9IWONPeYP1QjAHUmAQc0ltr7pAdmqmpP9Yn++TQPfJ/qEG0x8z9Q/uCaV+V/pB0rW6Ly47TIsc0Ympo9IgNfHGv9Mcz8xNCXvC/V6NOsEhTu8YiwqIXemvqVNU+Y/JDOf43meMZWY2lj6M+e/LKsBriFH6S/2havBp+YWCZGG4K+6ibF2lHY4rmEfEKsCmgDrpCto2i1eYjjRZYql3mEyZDUQwfNZQ1pwQPVvXJvAS5KGNnD8zA/aCjW7gxUDAsyy7nsnvOzeTvpEGxWLON5lf5MD+ozhqaLpqe+CXs4NnzhD2VMLb5xshTQDawklkJ7iDQ6vh3jiphqYYAxUo0OMGsFf0YmOrswKyhgFs4fcsBFDko22halVpDBbhzGyREXeKTxmU+GGUnzX5Iafxh5G8EDMKypBCY2oW2ymZgphYszehdPMgclNxbQ5XNfUw4KRqo5u7pT8Q57rHVbKHC5VAs0NAvY6YiuMooVheJlXydTXo+jusc4CcVRYCgUjr2bSyRpxrmY01ze8G4BzlRQFUN6qMrNW5eALzwhlJMi7/QU441tFcQKGaVYHuy+NBRtyv6H3j16UoFVvY7SjIxQi0lawaqlXLktDsURV4ml3vCelPtEplFK0VdKb5avnABN2122D01gITzAGx6dqSAEugOjgxwqMlvThcWCng4YVsEma1Adn4gIW2FXduJi2EvGEcztKwgSYuRr4X8RNcBYqXoP5m6RhBAGAX394pEA6Wb+l4IMk+a/JD+KzxPGaoYj0SjMFrZmi6wFYFii00R6YojluSy8F6Gy8ObxklgIsZwf7xCLE4TRZzKLqaYKmL8SxRlgpcNDqYZdL1hoLXgi8V/LjeJihsAcAp7XTM6Etr7Nr717c40gRgLFWaTfMsxZKlOdk9sQsJD03Jov4Y0Iu4XUS3p+SYEWEo5Zn2EO7whRypmm7LHR05XNNaNsMvqW0NSrc7o93jFwTxOOa+vaOrQdRavLOsoA2VHNi+m/bnMAQVSOhpMBa41axr4bRmATE7GTvYleFCXppLHt+ULoJQizkPxXtKRWHTDkY/bvDMi3BWtD2PxAssWcBpfxpLUogpvXy/W8OkxDwshp/GHgb+kJ4rhipR3flnJLeU1QkG+bTWpGUxeKzA2zrakEetUcAQD2zUsbzfi0NTvjvOO/0wagsyrRBZt4ClCUG63T0GYqndrZzp8xK1qHGFWh7sCTBRmrZQgrOLepzzzXaUWxQy8WHzQtbZXVZW0fdgWg+7BGT5YiZmwcuo5lm3yzkfLKhY88spVVHWAgXkZdaP2RMLWuVbCF0AKuuj8MpIoMFzxjECgjOM/eZW3LU2G3fl1jdAPHd9bxrMfMzBp/G8xxjl9LqMHLaDeIaxqha65lQXU+t/qCbXjlPGf1Oi7a/qF/4LPqMEd01aqpRhhjYILdy1LIIG8RKrjHDvEFkt0NV+Jbrt2CjUZsyb6R8yrTgMlF8bFge/vQ159+ApbXrjIQayVrfzlCmYAYilU4FLfNOf7sAMe5hjz7srthpsTUDHr1uyZHbLb8QHHyJ/oYnf3YjFhhKnS4kM/C1Yduy+FRyl+/FMX78Tv700R96adWS3Tftn3jAiu+URCgKS0/ZKhrFXO/MQ/iukPgbx9KDIIuEuNENmwqA7cJWiMtlwjWxXzMaAwXyNW1jtCLwkGJuvFkvEC1UxGryVcyxwStOiS/CaQyXgRYaKF1g+ZXuM8QfmXp4ibGNVpxGi5NFnMvUwwHg6L9woRAtcE84ZBdaBsNUMvcPk5y8MmVpp+EN4GBXi5faI3S5qZzlMYlaZ1Z/wBIqiFuNDreVH5oDQhk6w3mZVUsVddgWIfhTSjWqgs2gLqwRPeCCkNKlW2YiUhVDQ/MUVAslu0/DAEFRpg/UOG9n6jrJRBorgXv8SouoJbJLNeCfeYwB4ASkpxRFdagHLrj539LqYc/6ofxXSeI4xMyoltLHgXC7nLmz8QXG4wjPt0mNK+AWfiIASDgUHTGIsWYNrtqvSYQYFAF9QhwQmwLVfWAFODF/slHkfMBABpE+S+PeWWU1oL+Z5B9xUGIhi25LDMppBGgSmVN+V1l2qtWtyOEEQM1ikxpMQrSwGhnrACtDQ/uimRRuTKo6wLRYjMWFRNSi94ABTZBMekECCmjCqrK1EW9ok3QXrdYJBe23Rb1NdCKVdTipY/STP22tq38QUklbSlsu095CCXoa211pAcYRPLjO01IsHliH8V0mAPgsZXpW23CVy+JXKVyleVKdpq3v0gcj2lOHxPGPRaVPG8ej2nZKOHxPGJ0HtKzZrHL0dk1aEYpImKldPaJ5UryoEqAcIbOUJwixeeIfxvDN0YqVy/5CpUqHpUFl+tSvRUpjctlvqr6PokqBKlSpcYM3zxDV/jUeZlElZ9QJUYkqV/xUqBKlSokqJK9FSokqVKlTtKgSpXpUqHy+ENX+MNj/SMqBKxKlRPQL9TCVKgQJUqVK9CeipUSVKiSvUqVKlSpXpreekNX+NT4mfQqdpTAlcolSpXopJTK5SuUqodJUrlO0rlEiSvRUTlKlYj6FSvUp9KlMCYPh+uGr/FYAYgGosf0ClTqd3qzg+z1h211I/1UC6nQP3M36f3PLP3D/L/c8M/c8M/cN73/ANoNt9X9p/p/tCz7/wBp/pftOU+HGHhH5nlH3B/M+ZZ53zLvG+ZwPC5zwL7nlX3PCPuF3ke8s3+HOD7zw4xWtOv7pyHlziO18uMzeD5nn/ZOS8ucH2vDjCjS8uMoICxBG7rgw/jVzlSvSpXOUSpWf+alEolEo/4Vzlf+GiV/xUqV6Vz/APVL9L//ACL/APp//9oADAMBAAIAAwAAABAAAAAAAAAAAAAAAAAAAAAAAAAAAAAAAAAAAAAAAAAAAAAAAAAAAAAAAAAAAAAAAAAAAAAAAAAAAAAAAAAAAAAAAAAAAAAAAAAAAAAAAAAAAAAAAAAAAAAAAAAAAAAAAAAAAAAAAAAAAAAAAAAAAAAAAAAAAAAAAAAAAAAAAAAAAAAAAAAAAAAAAAAAAAAAAAAAAAAAAAAAAAAAAAAAAAAAAAAAAAAAAAAAAAACgMAMHEPFGPMNEGCBBCGBSAAAAAAAAAAAkEIEIIMMMMMEIIMMIMAIEgAAAAAAAAACkMMMMMMMMMMIIIIIMIAMAAAAAAAAAAACEMMsU8EocgIsc80UUwgFCgAAAAAAAAACsNAOEqLbjHRnBIMXKggsAAAAAAAAAAACMMMN0BXgYUFUAAgBAIAMEAAAAAAAAAAAsMLMItMIAEMEAMIMGAYEIAAAAAAAAAAAsAKGYIEEEIIMEAEIPmMkEAAAAAAAAAAAIAIFG4ekMINWQEAAUkMIAAAAAAAAAAAAIAMJ2sBMAFGMGYIMOIoMAAAAAAAAAAACsEb+n+IMMII/T8sgEAEMEAAAAAAAAAAAsBIDVSMMEAHqW3AEAEIEIAAAAAAAAAACMBMIJIAIIIFNDAAEIIAEIAAAAAAAAAAAMIEIAMAMAMEEMEEEEEEEEAAAAAAAAAAAsIAMMMIIAIIIAIIMIMMIUgAAAAAAAAACkAMMMMMMMMMMMMMMMIIIGAAAAAAAAAAAgMkMEMcEEE0MMMccMMoJgAAAAAAAAAAAAwxww4444wwwwwwwwwwwgAAAAAAAAAAAAAAAAAAAAAAAAAAAAAAAAAAAAAAAAAAAAAAAAAAAAAAAAAAAAAAAAAAAAAAAAAAAAAAAAAAAAAAAAAAAAAAAAAAAAAAAAAAAAAAAAAAAAAAAAAAAAAAAAAAAAAAAAAAAAAAAAAAAAAAAAAAAAAAAAAAAAAAAAAAAAAAAAAAAAAAAAAAAAAAAAAAAAAAAAAAAAAAAAAAAAAAAAAAAAAAAAAAAAAD/xAAhEQEBAQABBQEBAQEBAAAAAAABABEhEDAxQVFhIEBwgP/aAAgBAwEBPxD/ALK2YDbbbbaWlpaWlpb/ADvefFiw6bb/AHnXej1O49o7J3Xo3A6g0+q3akTekhflflflflflberUd1iQ+ellR0EXqnPUYoWyVm5BPgRrwXhuW/lh7OnP3sDh3WPF4knBeCc3BLJBCFxchLk9WxhuIMrsoC5uBKMSAUvsPQ7jHiyiUz56Xhv1bCEBy8x3GjPsjkSkPFoMZDVjD0cfth8SPh1HuseI90AJasuBYDwFrqTiziXFmSwzZMH54kTlxDCFPFnK2aY7w5D4pFrc8NsAJoGx8wSTL0RD6LPhKeOhnifEAPH+AsbGxm5+I5c2syCx0vHMMnc4tvLALQh3usdBFvGxy5ashlt8JO5ILU83obfs88JG5Dzr4s16Hcf4yxx0DDjbPk+0cOfN9ZDYXZCQTIUmwO4T3XogAW/NteYJ5WX4SHqV6vyvwhvV+F+E8VFq36nusO23Jk9BFrl2xPdj9nXlvSbH7Y/Yx7sftj9gwd9JmXY7j/eWWWWWWWdB3+DuNv8Ag2Heh3cLCywsLCwsLCwsLCwsLCwsLP8AwT//xAAlEQEBAQACAgEEAgMBAAAAAAABABEhMRAwQVFhcZEggUBw8LH/2gAIAQIBAT8Q/wByjfFJYWFh4YLCwsWLCwsLCwsLCwk9na4Spd9B6Xr2H+EeHr2HhVUYPAFtEERa4Bvdoi6uUDrj/wBuFdN/74lnGzdnFs/78T4TL76Prr72+ir7qW6cQn1P1EM6T17DwZi/hH17NtOtuaX+7XNrLdB/cnZX8yrt+2Fco/m39v3cub/d3p+7Jwb/AHPYo/uear/d8t/d97Ld7T17DvwxvxNDbdS4D4ThLs4h1xfJ+xPzweTEtZ/iYM06YaievYd+M9m5yGkHrtoIwdhDE4tGHJlLGcH4ldysHA4fpbildLiwZ4PXsO5n4JjmSaJDI5DrcgY00jXjzLqsp9iyLuL82uI5LkLNE+YO1WnfD17DubfN0CwJIcfErTabzMPUdW57rtwhPm4gIYJEPiPD17DuZgblmzcwkNG0jGfqTOOyDGLPQuUDG+i285F8f5XklPD17Dx1YchYPFPYl044lQLPkBKzCxyDIb1YXCDY8ksNWGPD17Dw2yemwbZNyNa+kkEe5FsDltuQ8y7KxA2Drtqxnr2HhOAW/RfZg7SeEw02DOOV8BMy+ouAq8ePjCZvFo2kIM8z17CYXW55BzL1IXZicXSKemwJiLfFiZnRMtnhh4evYd+N/ln8BT0PXs7eM2xsfObY2Nj6nr2bLtq3bl221atWrW1tbbW1tbW1tf8AByyyz/ef/8QAKRAAAgECBQQBBAMAAAAAAAAAAREAECAhMDFAUEFRYGGhgZDR8HGxwf/aAAgBAQABPxD7fzMM0GYZhmGYZhmGYZhmGYZhmGYZhmGYZhmGYZhmGYZhmGYZhmGYZhmGYZhmGYZoMwzDMM+KAch7AmMBR+1syKBKgTIUWLACBgwQIABYs2EbNYsyLPizZsWaOXBSOqXs5FIozjVBIABtWBgVxJAiQARNAAXwoACRAAAIACBkQBkw3xYsRnkwwwMDDDhgcGXLC5cucaChQQIIAAAD/PwQAgAAIAUQoCAANLAAKEJQAjIAABVSAAAAAAAAAFQAAAAAAAAAACG1QPPsEAAAAAAACBBAAAAABkUeKgAUgCAADCKAHAOA4HA4A4TiKBgAEOABEkMEIDK4MODAwMOSDkxMGDCOAZFy+AAEhvBBAAW1jlJBAS0wpIQEIBB4QABIpFE0AREgd6YUAB35FXRQgBoedpjAAHoRDgACRnFcEEAMNM/hCAF/TR8AQCmWOAPSAAi7Q9QoBoY5y1IGaA5MAZAPRoAEI4SoAKGWFJiNAHugbu+bgASgbu+YFDA7qZ1wQCHMQgAQQAmDehAAXSIAAWgsBEE0QhqsEDSiDCkAlSLlwAJoIUAEMImKSQABglQAYECwJWoYG4VQsEOSEwCLEViASUEAIMAJkCBJILCiToYdviMyLViwAIzaBfOmYLVgxYjxDDAIwYK5oTAQQAGEASAAAEYMdzUBAgQYJFko0AEWLQBdDAAJyCQAWjQQAARAwgBEKAAEoQAVhBCHMAQPoigsgwIIgMAAngFCEAVCgYGDEA7gQsAi6kJyAANfIByIABSggA4IEw0QcAAawBpICoAF2E3ZAAHmlABt5IAIwDzmKADAHDoAXwABDIFGXgZYgQABSsQoAIpOCAAgoZoQPEiAHoCgYBkfSBAgAC+MABtEBUhwAABVjQAAGgAhQgXiqIPoBgKAOfkUygAQINAAAUgAKuQoAAQAAAoBAACEkgBHSwIYNcAjhQFAAgICABgigEGEAC8DACYHUBAQglLBCongAWxcGAAcIyAgAXShwAJxAViAABYSABAAHy4UQUgAVBtoAAC3LE2AAACIZQAAAABVlAQgEAD2GgwAAVlCAAIgAAAUOZrQmAEAQBgEAEbJQUAAQCoQgWoVAAAgxLfwASAAYBcpYBWU5gAY4kAE8BAAUhXYGD8AhV+3LAVCIA4IcUQxCbUwAEYCCAAEoAJVAAAAUBIAAjxcAIYEAACAhJABQRgK0gAFAdAAQCABHBIACmBAAjaEAAwAZAAZBcOhRQCHAgEIAgUGQCpCOABFAIBWSoAACrAAA4AfdgABVQwAArCwACMGAAIBACABccAR4SAXg4EZAADBAIQAoYBAOAAEAG4ICKIAAXDAAgxgAQQAEBQQECABqeEULICAAAIAg4A6yQCABGCAABEI4AACAkABidwbakAAEIeAAVE8BAAEIYAARAQABAUASCogBEAAgVBAEAwASIAAALgQAEoAAjBAD4FQBAADSikAOn+bIBkACAA/Pm6CICQKD4WQCAMAgiBAAAgoZAFwYBnHFhABN71CQIAUsWmABkJAAAOUVCAEIAAEAAgAAAAF0IAERAABARDAKaAAFYgAAByAAGEKgAIQCAEJ6mBAAUgQIAEYhAARAEYA9ElsAAAjs3yAgMFbdAJ4sAAIxVSuCAAF4tLABbRoAFKB4AQ8sABOIAFTlAgAiigAAAAFYA/4AA0WyIgAjFIAAAAAAUACBAAQQBUEASCQBAAAAUQABHdukiBZoKkACBaAYAAFtypCAgCqBMCcEXMEAxZYTAB3FQAEKuAOvxnkQAoQAIAgAAwAADQYBhYAZQCEgyAK5IABgACCIBAVgMAGVAHJZRDTACkEoAQEBAjiMAAUwAEEdm8CILBAHk4AAJUjGAACDgA8LMcrghgZpgBDQMABFIUCACT+DIBYABCIAEgAAwAAkAhTBAAAAxSZBAgZQESgAKYgAFCIKwAAMKAgMCmgewn+oJ20FSsDUoYyLAfn6IBjggIgACASCxQVk0gASg4BLSFAHn0KBABACQK5VgAPBYCq5ECMXIKgAoACACsiiAAKgACBKBKABAAAzAqACM7qEHR2IRIQwQL5AE4BACAEAkEBwCwAUAgAJgNyAAYox+T2mAMsBAFEoCWAIWCAAS8AADTsIAlp8kZIAQIyYCMEACCQAURBBIACAJEpAYMnU5A2HvASHRgAhshBo1JEDVqTTgyAAAQgCUQAcKAoFAQIAJ1AAFQACQCYG4EALGcAkDoOQPIALJhgAACiOgABVIYRGJcahgAh0qAD15aBABEBIoAACAgAALAAABToAAHCAAFIKAAEhAAIMgABSSWIgFFCAABIwAIKEwEAAI5xKADVCagByJiAWoAAEaliAEaIBWCACIGACCwIAAggAAEAAQCYAAJhAkRF1RUDYSAATkyAAA55DAMKOAUAA++f0CoawCWIF5ggEqABDCAACgGABsEgACQAAAhSHADVBiAEdQICABCGgACEmkNbIhQgAyzmAIB8GigDEighAaUx+CAKQRABKwAQggICgIACAIAAADgACqAABAACAkBtBCZ6AKwAETCRTD94TAQAEBgGAAP5swoAAgBAARqQAABCLACIIEABCgBAAiIDQEAGBKAbYBQDDgAN1XiCAEEgEAAYIAgkgAq3oCCgIgUwACEAIEAbQgRhwAe8QVoBMABUgAUAXZHAACXaVAFeUjmAAANAAIAAAAKYSgAAAAAgjHLctYBUgAAABRBGZN48KUYeAAA9OeSVixP4ECiFAAEAiAAAKoQAIAEQIAAAIBIhAACUBAECSgACAgAIwChAqBAAEIQABQoBEERCSB814QDgAppIgAoAlAIACRACGAaNIu0/gAgjIAQkIwQgAbAQAulIAAAFkmAKQkwARRBAEaAgVoWABBiDoFUmgAgySAB0IifwgAAMAQwSApAQKtEE4ATAADAAAJAAUYCANikAIQRWIUEQAUMKiiQgCMtABBEyEFYBBCAYcYQDEcmgAiiIAAhAABhBggCCIAQIKkBQAEMlwmAACAoAQWxsAKyAADAhDHYBAAAAAAfovBgAAAAAAAABDAQAAAADGY0GPAgAIgefEgAAAAAABWR58iAAAAAAAASR4USAAAAAAAAAGPIgAAAuSQMkklJRJIROCBAggkQAgGAA4dBw5gGRweHh58eNBY2BwDAmSaLbZmOJANqUEV3NshADYCsB6WiuACRfriyAqIdrQrAt8Lmhxxxxxxxxxxxxxxxxxxxxxxxxxxxxxxxxxxxxxx/dAf/Z;clipPath=inset(23.67% 17.67% 25.67% 17.67%);align=left;fontSize=24;" parent="1" vertex="1">
          <mxGeometry x="40" y="40" width="500" height="391.72122274344036" as="geometry" />
        </mxCell>
        <mxCell id="MYPHkp6U98748ym2PTXX-13" style="edgeStyle=orthogonalEdgeStyle;rounded=0;orthogonalLoop=1;jettySize=auto;html=1;endSize=12;" parent="1" source="MYPHkp6U98748ym2PTXX-4" target="6ErnAcqJb4fMDTbfA62J-1" edge="1">
          <mxGeometry relative="1" as="geometry">
            <mxPoint x="1443.5714285714294" y="840" as="targetPoint" />
          </mxGeometry>
        </mxCell>
        <mxCell id="MYPHkp6U98748ym2PTXX-4" value="WE-1  (Vaga)" style="shape=image;verticalLabelPosition=bottom;verticalAlign=top;imageAspect=0;aspect=fixed;image=data:image/png,iVBORw0KGgoAAAANSUhEUgAAASwAAAEsCAIAAAD2HxkiAAAABGdBTUEAALGPC/xhBQAAACBjSFJNAAB6JgAAgIQAAPoAAACA6AAAdTAAAOpgAAA6mAAAF3CculE8AAAABmJLR0QA/wD/AP+gvaeTAAAAB3RJTUUH5wMcADo4l1F1igAAgABJREFUeNrs/VmsZemVJoattf5hD2e6Q9y4ERkRycxkMjNJJqs4FFksF7u6hCp1S36oVgs2DLcFSPKDBeuxAcMGGu13WQ+2H2xZAtqADBVsy4YNw5LV1UPNM1kki0wmMzMiY8iY73zPsKf//9fyw3/OvudOkRGRkRyq9seL4Mlz9zlnn33/b6/1r+FbKCLQocPZ4HOep+79X+D7v6iz6dChw3OiI2GHDh0JO3T42w3dXYK/ARAGAGh394hLv5L4r7AwIREhdjfejoQdPjnTYjhN6TnbkIDDSfohzV8CAERIoOLLJQAidFTsSNjhmTGnDUeyYUvL+W+X6DedzdrHdV1ba9M01UojHh0WX9tRsSNhh2fGwcFh+3j/YL99PJlM2sez6REJffDr6+sXL15M09RaS0RaqY5+HQn/lsI5x8xJkhyzYATC4LznwEjYNE1d1975EP3LBcFc45qmAYD2eREREQ4MS1s+RERCJFz6A+vJZIKIa6trtamNNtZapZVWmlT3N+lI+LcJZVkmSSIi+/v7RVG1zxezQkQCBxFxzoUQnHPBB6WPKLJcUIGIuOR6Rr4hIDJGDp54CRJy4PF4DAC9vJckCTNroyEBDR0POxL+bUKSJJPJZGtra29vj48XWiAiEUU7BgCKlLIq2rT2ABERFgCIdI0cWyakoMw3iqdKoFoecmDnnA8+SRIA6HjYkfBvPkSkJYn3/tatW48fP86ybDhcaY+ZTCaKFBEhog8eFkEXEJAg7fuc5NWyMUSMH/SECsTIw8Y1ItK4Jk3TSOmOhx0J/4ajpUrw4Uc/+tHW1hYAMHMkTPDBeTc3SgCBA+KcDZEhy07o0ptyS8tl09cy8Dwqxg2nsFiwdV0bbZAwiGitkyRRav4Rx+M1n3b0pnv/joSfPkRkMpk8ePAgMjBJEkQ8ODjo9/rWWlgKtDzfm5/5+AnHO+/i47qumdkyx1Oy1rY87PATRkfCT5eBTdPcv3//gw8+SNM0Gr0QAojUdY2ESqvQhJ/wKUUeKq2Y2UtgDpHAJ3i47Et36Ej48wpE/OCDD27fvk1E0eCEEEIIg0F/Op0671ZWVn4qtwbnnWoUKyYJIRyFiay11NnDn/w66foJXziYmYicc5GBSiki0vrofmeMaR/nWR8WTukn+Vucfu0xZ5XjHlIBAOOcbxzC6tpaTI30+/3BYJDnuUJRpOZhVzyWGun+sp8SOkv44uGcM8bcvXv3/v373vs8z0MIRATHQynxceMaa6wi9Uk2h8+BmPqfTaeISErVdR0raTJrwEDkYfen7Ej484oQwr179+7cueOcS5IkWkWlzs4DeO8BIPIwpijOw3lpwOXfngeBI9oTAoskSaKVYmZSKt44ZkXhQ5A8zSEHAwCqS110JPy5RF3Xk8nkvffeq6pqNBoxMzOLSLSELXgpYd/y8Mm5vhcIQnRNA9YWs5m1NstzZq7r2jknwQFA5CGRXvZIO3Qk/JmGc05ErLX37t378Y9/LCKj0aj1QtM0PZN+LYTlTHf0tH17Gi9x2d2d/5mNBoDlT0BE71xMkxCRdy7L87IoKkDhaV25JEn6/dxaO68dkKep+e40Y57n/TsSvgAURZHnuYhsbW198MEHSqlo/Y5dfuYn0yaGcz5NY0jLi0BEePFBZVkKszYmy3N2vq7reb+iQgA44iF3vRefCjoSvgBEBt6/f//GjRtlWQ6HQ++99751Qc80X/PfyvwYDhwrSIOEo+eXXkhIAMBy9r6RlvjBx+64R88jagBA4vYXSAQAwXsWmU2nK6urSWqapql9BU6gZABAgMTYeDodDzsS/vRx1J1wnFf379//6KOPZrPZ6upqURRa62USPiWYmRR92jvD+OazomifqaqqaZpiNtvY2PjMKy9ra6umrus67gdJAHLQxhBhx8NPA12e8Jnpd3TtEJumMcYcHBx873vfq+vaGLPsdiKiUkop1bY7LNNy0R2PS5Qm7/1oZcSBnXexr6L1UUMIsWmQhTlwCIHFK1JKn0wnGJ3M+xK9N9bEIlXvfNMEABAWFjkc71ZlVdSFtTZ49iE0wTPz1asvffPr30iS5OBgP7UJM/fTLE3TwcoKIpKiJDFPuI2c83y3J3zS+3ckfDYStpcrhBAjMY8fP759+/b+/r73Xmu9TDNjDBERUVsC9gQSIqHRSQghMjm+KnbrWmN5HmY9IiEzi4QQHwUuyiPLVswqH7x33ntvrW2apizLpmmSJJ8T0nutEQC8eER0Ligia63SuqqKixcvfvWrX11bWTk8PFRKucaNRqMkSdI0TbPUaIN0XkVbR8KOhD9BEhZF0e/3p9Ppt7/97el0mmWZiCilYr4hIiYJl99kOVvYWr/2GWts4FAUhbD0+oPgQ9vmy8yBOXjvg2OeU6+sSmYOPgQO3h19LgvLgsHj8RQR490hPhdvHyurKyLBhdA0DTMbo5MkMaSRJQQ/Go1+4atf2djYeLS1FelHhHne6+e5tdYYdaK3uCNhR8KfAgkBYH9//913393b27PW5nlelqVSavmALMtOvMmTSQgAwrK9vR3LO5vaR5ey9T8BOLKamQMHRIzuqCI1nU6Xyd922Y/H42hsY3matTZJEmNU4BB8cOy9D+1JKIEsSb1zQrS2tvq5t9565bOvFkV5eHiYJMlwOMzTVCud5Ym19iwediR8nvfvAjPPxkNhQUJhKcri+vXr3vvRaDSbzQ4PD/M8Z+blutD5H/CJ4RlEdM7lWe68q+saEZ139+7dK2ZFtHeRVNZYAGhco5WOqx8JY2IjdkUgYYh0Impcw4F98My8srISXVDnHCkDII2rGgda6cY1AJAaq42u61oJGGOiaE2SJPfu3ZtVlbJ6c/NSr5eLyMHBQW2T4XDIMnd0FakYSfpJ/QX+ZvYfdiR8WsSVH1Pqzrsf/vCHh4eHWuvo3eV57r2PrRJPSb+IWGg6Ho+10UmSxDyH0SbLk5b5TdPEXt7zb9XzEu3TUApDYOfqWEPXPh9rVuOD2FtskBrvvWtMkoTg+ysjZv6zP/nTL33pS6+99lpd175uZt4DQN6b1x7Mc/0/UR7+DURHwmekIuHe3t7Dhw8fPXrU6/WYOYSgtY4J+vjvafbCWVUs8TEzO+eqqiJHZVE+uP+gaapeL4vcZvaB5+8PAFprAAZEicKhcpSHPFKdIQRgQAZgAN7b24s9HCdMtHOuJXbwIEbEEGmVmHw6mW5sbNR1HThY0u+986PZ4eSLX/zi2vpafLIsy/Z9jDEadMfDjoQ/IQQfZsXs9u3b77///vr6ujFmNpv1+/0YO+n1eiGE0zR7MoioKApSNJsV169/UFXVlSsvRaMaQmD2zOxcUErFIrjlwA/hsR7cM24Zi22bcw4Wff3xQ2PUFACstU3j66YGgH6/L4QuhFkx00rPDsd5vw8A169/YIx+4403tdLjydhafWoZRR52a6Qj4YtGDCcue5XXr1+/efNmbMaN4tbOuRh+dM6d6X+2VNRa13WttY7phizLZrNZMZ4AoQS+d/smBn95c0MDNj6QBgnMLrgQEBEFgvNGKaBlKUSWEFwIzCFNMwAgJA1SO9c0Lk1T3zRZ7yg4JIHruiKtsyyzpECbLMuCc6CFiEhjWc2CF2AOAMGHNE3ZexJQgH/91z8QkTfffOvCympRFE3lCBQwEgsBKAEBjUTwsUTEs6t5OhJ2OGfBINZ1Hcuvq6r60Y9+dO/evY2NjbYq7XSE8DxLSER1XSdJEl/b7/fH43Gsramq6saNG03TrK+vSeDCV1orYBERVMoQxgAmcwCjDR3/k7GmECUquB31khgLiw2bLDXOBxFljFFKIYrWGIKIuBDSNGWOZObWxT2B0Wj0ve99b3t7+5vf/GYMBZezmatrkR4AQAYWAGKatDOIz4juVvQxSJIk+nLvvffehx9+OBgMACCm3SIDY0HMk5l8sqLFmP39/f39fWNMMZ3ev3+/KorhcGi1CQtN0VhFjYhKHWNdvUDTOOd84z17zz4ACwAoRKBjn+VCaH8UYpIkkZxGKU3EHHjh36IACpAAIZIALdxbRmCEqqqUMTs7O9///vf39/eV0ojkvS9ns2lR1GXVeMfeMzN0Sa9nRGcJPwaIaIx55513bt68GXd9UagiUiuy8USp2pmPowB+LG2LNjB23N9/+HB/d3dzczPr9SaTibWWOdRl5UIwAMZaik5sdHRZrD6Kr2hrmVlC8MzBufnHsdSuaRpHpHzTzD1kQmABpYzRRCo4Rwu5DRcCVhURaa0AlPeyyIjystZTWRar6+vAcu/evaZp3nrrrYsXLyJiVRVlO38mkc4ediR8MaiqCgCUUsYYEfnwww9v374dl2asTYPjJWntC2Mh25nvGQOnRDSdTn1VSwiTw/HW1tZ4PF5ZWVHGBOdC8IhJ0zhrbW6tb5pZWfqmWVlZAUIiBQDTorBaJ1lqtYnbRSFUgsrasDgTIpWmKk3Twvs0zyWExnshRkRgYfaNdxhiUlH18xwIowfbeK9JPHPsxIdFvIdI5f1+XddGqSRJmsZ98MH1uq5fee21mEGJrVtpnrch36fjYZfc70h4Dow2cRQEM7/33ns3b95MkiRJkrIsrbXT6TRN01gcExMJT5MPDCF476uqquuaRBDx3r17W1tb6+tr1trgXCC02hTFLK7yVCsR0wNojHYhGNLR94V57YsHFlRKRBAp9r9rPJLNh4VrGllKRKf7GYNIfIkE9ooBQEJoF1AMSrWWUCF65mjJQ/Dbuzvxu3zuzde187EPYzKZRGXHePOKRbHdcupI+DyIQyDquo6pc2stMw8GA6VUWZa9Xi9Od4nZufld/4mI5iKuWkQMIo8fPtrf31sdjaw2TdOgUoholJLAEqJYm48csNpEE6SJrNaj0QgRFSIAeJ57jHJ8H6hkURSOhKgIUCEIIqKKHEOhZVFvFwIGH99QISrEEz2LzIHIoAiL1HXdNM1oNKrr+oc/+pG2+qVLl9I0Dc6VsxlzAABNBHEAW8fDp0AXmDkDMRe3tbX17rvvxrhL3M5lWba6ugoAsVw7xjnP4PDxZTfv35vNiqKI5uXOndsPHj0aDoer6+ue2TNLCDHcooyZlWWepuVsVlVl432MqYgIEMaNHDMfPTlX6aXjP4gLMzgvtT6r3vpIOT+ESH4RCec0TCJS+1ZEqqoq5pAkyXe+8+2PPvoofq+6ruuyqqqq8V7CYnBNF6f52Jt+V8B9Joqi+JM/+ZO6rmNDYFuzcibf4r9a6zZeCgCxKTY455yr67pqau9DCH42Kz766KPBoD8cDsfjcQy0xJedrq1pWRRzCRICLgVjl/92Mb4KAOPxeDRabQ8QEaU0c/A+WJtpRc7X0XtEJEGOuY225sYog4ieGQCMUnVdA0Csd3MhxCeXr4Axqq7ra9euff7zn9fWAkCapoPBwFprtca2l7KlNPJP0DZ0e8KfW0QnMwY/n/UmFZOBceWxc9ELjbUpmujgYLqzs7O5udnLsvF4LIExoWc6Mdc0SwTQbW7QWjuZzWCRHmwRAofQAEAI/vBw32gTILi6joQhJGZomkbF7mGloqFLlI4B1azXq+v64OAg7/eBRWsFAIgkS4NOlTEPHj3yzG+98UaSpcV0GpwbrowgzSxA55d2JHweeO9juOVEf+DToO2Cr+u6qWofO9yZjVKHh4eTycQY3fJkuaL6zKS/ah1LjtaSzHImkEVonqMfDoezsgSAXpY1i6kvgBCCd85rrTwzadKJTsk6bZgdAACRBGwAiEgZY4wxyrTsPUZm52LGUkQAjgoDXAhW67qu79y5fXh4+JWvfGVjY6Npmmkc2d3xsCPh8yHGPKMlfFYSZlnGzFVVTSYTYOGFzGBVVbv7+4i4srI6mUxC8MPhEJGivxfx8VaXZfl4ZYwGEmIiVVTz6b91XaM6sq6efcwjAjAQimgAQDWXxEdEBjBGJ8bGPL730ngngaOtq8saAFZWVsqyBJq7qTGfAQAizMHXIQChUnoymfz4xz+u6/qlS5eappl3OJ7kYbe+OhI+BWL/q4jEgPtkMol9QGERC4HjXl8bIPHeM3PTNOPxOGbYEdGFsLOz0zRNcC5GEfux2ZcFILSR1WUJqTb+iacqYKy1nnkehNRKAmtlFKLNs7quy1kxrir2vnaNJf3qq68myhRFUde10rppGvFNzcjMIYBRCpRSSo9GmVHKe5lOCxEhUu2opphvUEqLiGdm9gDQVtMgYAji6xoAtLXGmEePHhbTaVWVV69ebRqYTIRIEZGJW1lEgJ9kDKKbT/hzzsNYB6OUipVrTdPESOlpexUjMSEEZp7NZlVVVWXlgxdtAKAqiljqHefFBxH2oeWb4JEj2tIPFQGfu1jb7Eh8EDW/tz+60zTN/LO0abxbG64AwGuffaUqK+edd25ndysEDiAAihk1aWWMQowRl6Xvzu3XFBHvg/dhkbUnfX4+pqrKJElE5Pr7H0ynszdefz1P06qq4ktieUNnCTsSPjNiu4NSqqqqZe2zE4wNixxDWZZlWUYCs/fToiimU2O01Tr6cvMs9um/BNEir0BExMgiDPNpSiTEyAiEaZImSQIs06LY29mZTqdbW1t7Bwf94SBJkn7eW19dAxLnXG4TRDnY39fGWGu1UhfWLxRl6YQ5hGgMoy08RUKJJxGtn4QALCKMShmj6AmzYlgQKeb0P/roo36ea2vTNG1daLPQTezQkfDjIdKWUErMTzjnWj21E6uwqirnXFmWVVVx4Kj4BACzWXFwsI9I68PheDwmraNKYnRHOTApwuW8HCGRinaDAc40hlVReh+KYra9vb39eAsIsyx/7bXXPIdIwjRNi2KyeWEj2t5o0suiKMrSWh2z/6yUc47FtybuBNr4p4gE57wPSpHRmkgZpfw5auKkdXTjo7d88/ZtZn75lc+opcuVaNutro6Ez0bCuGfTWud5vru7a4yJXmXMTccdIwDUdR2p6JtGAke+jcfjJEnSNAsiqCgWSYtIWVUhVpnGjHaMAylCpKaZGaWyXu/oVFhAgXM+1gwA8K1btx8/fgQAo9WVXi+3WZokSb/XV1olSZIaK3KBhK02ZTmtmzgdURkTe/8psIPA6yvD6bS8++D+pUtXiFgCI2KaZsjMIt57QAocNCApIpQ8y733oW68SIzTNE2DiFVVta1eMdgbt5qxhO3h48dZlsHmnKIagL2QepZpT38L+g87En4MCeN43RgpjQVrsYk+bsl2dnZio5P3PgoTSmBtbcytDQZ9RHLOheCTJHHOx17bXpbNyrIsi6ZxRilUFIMr0QlUiEfFaCwAYLVm77NeryqKH/34R1VVpWk2GPT7eS/v9/NB7wQJFYiI3Pzgem8wCCEAQAgYNX+ZmdkF5q2treFw+JlXXtne2tWkUSmjDBH5xkGsC1/siqOmW13XRESKFKmiKLz3pMga62GePEzTNF60WFYe96vW2sb7clZYbWIroyaKzm63xjoSPi3aKhatdZqmZVnG5RgXd1VV3ntC8sHHUdhKUV3Xs8kkOBcDJJHMTeMQ0VqDiMoYGwJ7733Q1s4jMQBEKkGMqjPGGESKkydmZdnv9+u6vnXnzuHhYZZl6+trq6tr1tp+v9cfDdM0XSYhBH/v3r3YjuyEiedlMSIcAgsEAJgVE2P06oXNXi+vy+bMLx4rFnBRstP+qmkaEVEQZW9U7DnWWiESex8rWo3RIXgiappmd38vTVNtrVFKGWNVN5K7I+FToLWEy/8ZkxZVVR0cHMRITJZlrbhgjI4aYw8OdoNzeb8/LYpYlg1KjaeTPO9Fe3hwsA8AQNiLuQo6io5qrZyT4JwmIq1RkQTWWlVF8aMf/WhWlhcuXBgNhqPVlTRNY4HYytpar9/r9/pa6yRJEmMOdndu3/gw6+WzslSIXhHzkjQ4AgAkSbJ/cCDKXrt27e7d+xI4BPY+YFsULhJCUEoRoVIUW3g5cPBR6saFAI1rPHPs/ErT1BgirS1AvL8gOhEpy6Ku1bQotLVaK+usKNUZw46Ez4B2zHXs7s3zfDqdxjQgAETVwxg7JaI8z3e3t4vpNMuyJEnY+7jTkxBGo5XpdBqFQI/UyhTEqGlwro12aKI0z2OeAJFQ0/rq6ve///3d/f2rV68miRmujNbW1nu9fDQajUYrvWE/z/LInPXVVef8D3/wg2lRGKWzxKrElrOidpUxGjFGOUFEtNLC9daDh5trG5cubDx48DDRdjqbLZd6R687BonmRQvIMTwMELP5pLWKQsBJkhTTaZKlSmlR1EuS6XRmramqyvuwvroaej0ACMfvbs+ITvz3bzGWvTIiyrJsd3c36gjGIm9jzHA4PDg4KGdF1suTJClns6OqNEIA6Pf77P14PNZEsTMQ2xwdoQaSwAE8KG2UCnLULnzrzp3Hjx9vbGysraz0Br3V1ZWNjY08z/t5rzcYpHmWJInWenV1NTj3x7//Ozc//LCf9wCASLmFPL5zHsBHVsfsYpIkAP7Bw4evvfq6tbYoqjRN4xY38vB0tVDrnKtFY35d14g077SytmmcUZymqQTWRERKAtd1Xbsmbpi7tdSR8Hnod3Q/JIrdg4PBYDgc7u/vR+EmAMiybDqd7u7ueuZMJYjUBKdjkdgTboyLojYiBQQiwt5HHsKihqaczT66fVtb+9KlS2merV5YW11ZHa2t9nv9NEvzLE+SxFhjtBGRd975wR//yR9ZbbCHZVk0TWNzAwgAwTcOAFCRJqs0iUjseXr86PHL117p9XvTaaGP66aeICEStlVnWmkA8MErpTUREC7X0wGAZ0ZFmsiFUBSzuqyapvHckfAMdH75sxEy5gDzPL927VqsUIvyZUR0/fr1vb294XAoIlVR2EUHRhSVAIDpdOpCGA6HsS0w5uL9onomtgjFTWAIvjWDDx49EpFLFy+S1mmaRf4Ph8PBYDDoD/I8z7IsS1Ot1YfXb/z2b/92UcwU4u7+vrEWFoqjANB4V7umTQxqY6qyEpHGVffufzQcDPu9vg8hanbEOO0TLoXS85FsUXNAAo/H46ZprDXa2to1sfwNESWEuqxq17i2w7BDR8JPQsIWKysrn/3sZ+M8pl6v9+677xpjBoNBXddxwlFd18wBkeYhFsTBYBDLR+b7LhbPnKcpIolIVVUiTKTSNE3TrJ/ng17v8PBgf3dXJfbCpc2837v68rX1tfXV1dVe3kvTtN/vW2uNocD+x+/+6L/8L//P1awwxrrgjVJlUYbgmTlOlbHaJCYDUHVZTcdTZNFEzGyt3dnfH66tOG5QASoKCAzgghdEQWTCgIBGy0J5rd/ve+eKWRHVq+ZVplma9/ux06JViBOR2jXWWqM0IsYCgNDx8Dg6d/QZb1oLj7SqqitXrmxvb08mk4cPH8aJ2c45Swq0RqVI61jt5RljTH9+xYlitAYAFGJseiBSyphlKxED/duPt9I0vbC2prXe2NjIsmxlZSWSOc5d01rNiul3v/vdf/U7/2J3d3d9ZTVJklA3DbroOLaJ8bYCBiBmDqPRE6VUUczG44MkSVwIEk4OnzqNsigBIEkSpVUIPszL3NSJG9aZ79NZwjMWVXcJzsR55ZGtJYz5gMuXL5dlGYc9xIaDxjvPjIjG6CitHft6j7ErcOyRjxby7LujxtlsPD7cHw37Kyujfp5eWFsZ9nstA2NV2uRw8hd/+me/89/9cwB49dVXh8MeKQHiEJrgXQh1nGs4nyrqQ/tT1030oqP68HRapnkmwgCsUIBEYqkKLelizHUzMHBQWidJopWe+7eExuiOYB0Jf3L8RMRer7e/v3/58uUkSd56661Y3t3r9fio4UABQBAJwcdQZIto5WAxEyLKTwTnlowVeB+iGRwOh9baXq+vlO718jxNsxiKUerOrVv/6p//8z/8vd/PjO1nWWps0zQKMEmSENj5xrnAPsyH/Ab2zJ7D/Me7RRpQEyjfNHVZNY17miuglbbGIqIPPm5fY6lPtzaeD507egba0u2iKNppmMu3+eiORhHE0WgUQlhdXd3f3z+hp0Q0lyQcDoflbIZKJUlitQ6AhEjMBIiaIMoWKphrvSA7V4uIIPf7eZ4nvV566dJGr9/P8tRYvfP40cHBwd27H73//o1QN6+8/DIRlbOi8a6XZXVda8DVwQgJOIQgAuGEgVIAgKKCE5WgVmp9de1w/yBJksyYgBCPRyStj8RmgogIioAIJ0kSBwQvLhcvvim2KolJklRV1XgHLEctWkiymCLcNfh2JHyRiAVr0UdN8yQSeLFw50swNuNWRdFobZAgZruDl+BRKaMUoo5iZ8wCAMbQyupAXD4c9rJET6fTw8NDjVQUxY0bN6qq6qfZ2nBkjEEFk8kkSZKYi0uSxKD2wbmmCafkGFtZiva2orRmmReLeh/QnG3QFCIgRirGVqjgfWAmk7Rv2E1H60j4wvCEDWH7eDmfFvt3Yso+T9OiqkRYmTS2nB9NZSLCJHmKXBkBcONKpch7Nz7Y3378COhWWToilOCstZsbmyH41eGgKMtiUvTTPATfT/OqmgIyEkNgQBYJSs5oHQoIpHVA0ABGGxAiFStLvV7Mo59TFHHZYBEhAPoQZN7oiK34Wjz+KSOfHV07Er5gtJo0SiltrZTleX16cyou/WeSpRLYhRCdunZ1pmmWaDVp3GQ6GQ6GiArRpGmqAYOIMZo57O3t9/s9RAzBh8DGoNJ5Xdez2ZRIaW20nucPhGF5/68ENBHTnGmk5qMOvQ9PsyDiSG1EIuDYhSwhoCLvQ2wdDMcTpPOr1IVtOhI+E2Ktdjjecn4CsUoGEdM0bZom5garqurneV3XzrlBnvs4Ld47QCRSjXN5ngFACBxt6WxWaK2IlFFmuegkM3ntvfeyvrbRlAUTJEkijJ4ECeuyIdI6SzxDPowNUyUAECidWADihbsIomBuwUCLAgBQKADxpoGgAMBmaQBGxHzY4+VOYg4nDBYKAUAU/I7ud+BgNDXsjdIeQqxDiAXogQgAJrPZYDRkQkFARUAE8fHT2sKfZOywm1n/NwJ1XbPRLgRUqiorANBaaX1Uw4lITdMQkTEaluxDENHHJEMJhAAUCSCiRhJAUPMsAaFSipRSQKRQEDGAFgwx6DIXs1EqhGPxpDkJAQJB1LZBOjbrlwghDgdmFmG1pNrGc4t6pAMQRQZEmNS8xl0TRe9UQiCtKYTYyhzFI+ODboV0JHwqxFa69vERLZbW0HlGkr2HuYQuxYR41IyJrUCxXFNpRYhRhsw3NcKSxOhZsMoIERIhkhAiklYxwX8k2k3WSOQYi02UZ0btVeCwULRRcixRznj0jdrPZQ6RgfFmgUtXAEVEmOMF4PmExo+9jO2DE1L83Z6wI+HH4/QKe5pMdFSzjz11sXIFCQOHGNZHRO/ns+OFhZkbd9RNG46PbTAKEEBJfFtSaBC1EDEuqjuX9PARMTFHY7GddypwHNl5tBNjiekBiOZSqagLfoIP0QbOeavM8vOIKlIRtTqTgc8Um+nQkfBjGEhEbVXkUforjpJGjkQqyxIR+/1+zBnu7u7OJ6jNZgAwHA6rRfE0i8Q8eJblSZK0VWxaaeaAQARIRLw0j8UHrxZWzmitQInWQMg0r/PWbaOj1tHAAs5LcLQIhrgldNoY71zTOOedJjNXuAgcOIAmUAr0MTpZu0S8xiNilLRYanEia61IrDMPLBK97qZpYhiVmdM8t9bEl5x584rX8yc5laIj4c8ZeNFdvny/P7GYYgVpdFw5cHQOY7dhjNCUs9kTXK75/MPASum4yomoXjKMHNgQWWuC90ojUMyUg7AoRa00MBGhIkValEJFcXYNIhKLC14CK2O8r1XTaOfZuRAV/hU17M+b1rQ4AyEiJFSkIhXPJgkiLNQqop4VPsWsuA4dCT8GMe8XYw/nrVHvfVxqIYTAsf6LmDk4p4yxIo33iT738hptAKAOdUBAgIAQg4cqHDmQUdmtmI6ZFAAjBBFCg4vFj0pZpYiQgBTaBJWKgdY0TzCwDYGZlVLeJ7ppuHFVUzZNw40LwYODGC6JgR5YVHgfexwJTjGLeKYyIsLSdyQRpXQ7N0ad2hN25OxI+LRoozJPWDTtgN52TmgUNSrrZmQt2I9R14zLtK4hOMdqIQKjdTuGBREZlaAW1EGImRGZBOYucTSDMeZDCoi0MagItSZFeZp6Zh0CMygkRR5ROaIUgEhprZumOeqoOg+EKiYB1Ty4tPzdYREpXdYUjWkHVGp5bNNyDyF3Tb0dCZ8SaZpXZSOCde1aiQpE5LiwJPJTAyAAxyLsKHSPiIF8EFlbW83z3kcffZQkybx+DeYvLV2TJ0ns5U2SJMnSIBLDISJCWmMQzwxELojNclB6f2eLtE5zlRjNgZko4Dz1JyIiDIKCTEYniUmShEwS7wHIGLwnbZWxqlY1IjjVTF1RVb3BYOmuE7e+0XzFNIYCgMa7xCakNDMHPIoG+7pZHhK+zORYrwcxmGRM07j59yKKnoJqJxZ2aG933SU4E4goLE8+YH4FiZanOGmiEHzkGHsvwqgoDh1rpzjwAiH4xrtoSK02dt5xL9G8MIcgqBI7XF1j4bIoY0CFmWMVdGCOgt+nfUVEVMooa9bW16NohTaJtWnshV9fX3+qxUFq7p0u5WOWg1WkCBWhUkc/iKjmjfmaSNN8cnB01zvunYnOEr4AeO9jAbdSCowJzoXgVWxDQAIWFq+MAaWMUhKC56Uco0SrAwCAShkRB8Dex3puZoeohsOhc74sp0VZaKUJkZUKTIqARUgEhFHg6IeFNCXaaKWm0zLvDbM8L4uCULSmujZFWSyn6Y9P9z56GEcpMfNyvWsUC597pIvJGe1dILZKxJ6JgGegWy0dCT8RlgdZt507sEjc06IkJFaMueDTNI1KR03TJCJx1wdKsfdhUR4d2wujbGmCGN9nHu0QAQYJAYwZDocAPJ1N8ywLTIGZAgsyAHFgPDVlRSFqpbQxa2m/LIu69qQwz9MkGU0mh/tR+PTjgIvi7GirFaJfZBFjRhSODwyHE4OlFmfVuaAdCZ+dbCxIqI3Wi9DffAHFysmFeqRrnDZzV9M5l6apUqoqyrgHrIoybghjo70mSpIECJvGoSLwAQBQUWtkSOvaNUppY4xRqvHO+xBnM4XASqvRaJVI7+3tZlkujGyBSGtNgICBm6bJtRbnhRSQscoYRcASuHJNSYiDXs/75sGDB/v7u+6s5t05naANrhxxJiYPjwQLaR5QbakVSeaZrbWkFfvQBl2ZQ9uWccJzpvOFPjsSdjiHnHNLeGzVxvhEG6XQRD52JDAH5+IzSZL4pnEhGNLWGue8Qob5puvIksQJuBJCEwJpMoZEVGzIUEjKmOFwaIyZFbM4fc1ai4RRaSY475yLG1TvvPMumkcO0O/1mf14PN7b33n44OGsmAyHQwjH6CeL1sd2Ntvy3MLYJwHzzKSKvDpjMRFFvRxRskh1SGzqXb6AHToSPhuexok6Vl+qNSIyhxA8KmIOHsAYDWCZ2TkfdXJZUVy1p4u8orhLCBzZYIzhxiFopRQIrawkIjLxh+PxQeCQZ3me54gINJ9g4b0XrrXRkVRpmjvvDg72Hjx4sLe3o5Tq9fJYLnfkQy5/ESRUBIhuYaLb8zstnt2awfa7K6VjdJQ5nHetOr+0I+ELIyfSGcGGqIQLABI46/Wqqoz2sN/vzWaFbxrmkCQJ8bz6TC2JUkd3VGs0xszHeAYfd1gAEHxoXEMBVlZWVtdGZVHu7R8UZdE0Tb/f642GcTIUEYUgiZtnVu7de7C3u1eU06iPGutHY+Yv8NLA4Ha7G+0ns/detS6lMC7th8+bE9o+qZ6uJK1DR8InMIwB2p+j8APg0n4GiZEJNaJCVLHiRQQ9h+hVxiHbsXAMALwPvSxz1kZOxj6mE0iMFRFE7Vykx7z3h5G9OAAirYCkYY9CKkkvX7q8/PI4zil6pOPxgXMBkWbTKQBopYUltjJGSGBYzOtsGpfnPQCoqio2LYmwUhA4aEIEkBCQgBbSG0rNu0yIkGJslzCePHPgxY0py7LgHBBqOPo5KcPTLbaOhM/P03PC7pqoiXELQg0UFtFCZvYLme1lV2355biYGdYqwSyeJwDA2JS0HI2UozPxPgTmdtRMHCUT26bO3oktpyiWYpvCARYOqgKMuU0JKHA0SenkSCXCxFhrbWzLgK5TqSPhCyfbmY+Pr2daJowSDVFqDYW0jhVquMTDOi70GLpYipC00Z1W7m3x/JH4Uitntnw+IiIgSKhJe+/bY0REnaNE2LaGiIiSec+UOtZNBYgqalIBKs8eAMLpi4NzBpJWxFoTkVZEClyjEAPFDmQCwviDiISd/etI+OL4iXTSEhKpGPmMQZc2Uh8ThszsRJZLK5ctUivQEg8++iOdFb85RicEDRgwFsq0po9O3D6W85xn3mgQcflzDJEiJQCkOPLvNP9bBgKLpnk5uOosYUfCT4hoIowx1lrEefOrtTb4Y9Vbio76YltCaiKe1zGTiY1O3qOixvNR1D4G/eVk8CJuF0Upf5wtbV5RE/lFm5VCXGT856zQACAQdRPbuYKwyPI1jcvzvP2sqAgKCvO858qqaZo0TUlRCIhISikkRAEFKiAgslYWAMK8YzAQqbnO2iIK5ZnVkotutUmSpDio4pDg+JXj1A0Wpm4z2JHwk4OFF7XOQIooFkwiBZF5oQkLKCQiQZTAqKhdjnNqLTUNRSilRcSf0wU7X/EM0GphnNNeFN3f+blpFQNFT8B8GL0iFchHMQ5CRRSY6SyTliSJ96HxHgDSNIVFvWsso5lnC7WOMnBWm261dCT8pDhbGWVp/SulteJoDCX4udiRiCKliUP0MOfHhhMkJDr6E2ilvA/CoY2pLqwZLz04lglYHhQxZ/4ikPNxX4oEFjbKKBQNWhNzNIWgSEgJz+XWZGED2+/bNE5CsNZGFzSaQWVMm6+3WoDQ+xDruY9xvtsTdiR8eohIy7YnVHsQIi100LyXyIFWwzPu0p7wKUfJblKIHEemqZOnAQDAzAoJnhB+PBXzbMdLNI2z2py5LSRSmoImYiKmWC+jADHMs4ZwQvkwOOecmxfiLU6PtGoZqImcUgAQgn/K+RYdCTuchPc+yzLnXOvynehsMsYEH6J8EwBkWRYHRwMAsNSuWXLDgrbaWhtHIwGAAhQRDjx3UBFi4yxzQMI0MSnM2cKLbeTJIC0t3FGWZeIRqVbNKSJuCBEpqqGS1jHrYLWOI9wAABUx4eFsqrW257QjCx6jeq+XA0DjXfyaxui4CWwL3wyACwFYzLx6m9ppVrAs29OhI+GTwcyt7/SERYOIcUuFiCGOH/Tn9s4xR+1cQELguVmjpUro9uMA5gk7EVlkEAHpSJACgAVOdxIeq4uORxqlMPb+zWVp5lmTyA9e0MMYsyzl2CqFts1K8y/Fiw1qPEwrq83i/ed9TE4RMqNSUZOq/ekWVUfCZwYitgGY07+KD+LsaBUUImpHMXIYF19YLPuWg4ASd1qkYoxQYF7jhUQmvi8sDK8QA4DwMTOIiDE12M5yWvC2VeVQyzeO2EIlIVhtEJG0PqFx2kaDo0RV+3zsxI0PjnnjS7eXloFEikg9ITlxtLWmzgB2JHwROLFFjEYjNrwu+lnPvevHED8sWRiIox2WFa+XYjD4dAYkWiFYmNNjGY6WBoQxlLJ8/nGaTRxos6xTGCXkIO5Fl3oLMVa9EQJAy0BNXXqwI+Gnj2Oi8SwQxTYBRAIREIH3ITGWmemUzpoIx0y6Aojy8vNdHwAAxFG6AMQcAnsRabVtzqccihwbdQaxfPx4JU37W5skVVUhQ7R1ce93IvBbVRVRHLgrHNg5FvHW2DTNo4gOAAQfXFUH8AQqSWybnT/xlZ3zcRg4sKRpqj9O+aojYYdnRjt4EBb6n3MNFTli3ZFwxTnZeYD5OCReMIFIAURCPvvfMp4AHZuFdIy3iiCqqC10sufntxDtPUHLbJED9M6naUpIdV2XVaWJSFTcAc4r0U7px6h5I2/XTdGR8Hlx1N1D5w+vX6TOtdbRnRMRWQx+mXOM1BJXj/GwfRIWBWZaqxAYQBGp2N1/3unFTSYu5A9jpVvbiHTEb57zXxOJSJuiWEZUgjuymTDfr0bN+6OForWwsHAIPtWpB9AUd5ekook/TsKjEA4hUBS8UF04tCPhiwfNE+4UScjMgRAlso7OZPXSM0vVM3QUtED4GKG305gT4IkBj+UW/hMF4jEi2uoGxJpvRGyaRittrVV6LoNPSEppIlIiRNRK+uLSWEJ16oM6dCR8ZgRBQeUBgfRy5TQuh0kJOE5eJ6L5eIbgfK01BQTNwiyCjChZliJi7JQH0MzBQ8x2HClex2wktp0KLZ3kiKjHrJ8c8QpOmJ3lly+7psfk1RCRrDXsQ1FVCo+0c2LEllgQwSgNLOwcO6e10Vr5qh71ep4ZmeOsjnZghl+kcMJRhZ10w2GeBl3e5hMB5wKhzDxXo1BKaa2iuTh2oZ8iLn+mguinBE10ouqaSBmlY7oziHhmCUEpSpIkz/MoIbe2tuacGw6HFy5ciLWjLnhrrbVGjs+Ki9vFzhI+1d+iuwTnsuvjxH+X3bl5Rk5pAgiBATyAdq6hY+Us2AZc8BnrJ9v3efpxDvMtKJ0t+ElaxfpPIooyT2EpHa9jRYsx0YYHkazXO9jbA4BerzebTLz34/EEEU2iopBH3CDC0qxskTgsQLXlMtBlCM/843aX4JnJCQDHe/MiCSG2UxCpxb/MwvwTMQVPXNxnpu+IlITAi6IWmqtlH0NMk8xm0/3d3fF4vL6+zhxC4KIo9/f3rTUiMplMb3/00f37949NIOUQ9WnkifPGO0R0lvAZkCSJd84zB++1MbFyBQCMMcYoiaqkYa5luPzCpR75eVnM8uCX9rDlBdvWcMaAanR3ARb15KdYZ4wJIswBWFrRXmhFmRY9FtOiuHDhgoQwz+wtBpjCXE1fvGcRSdN0e3vn/v3706KoqsooNRwOE2MHg0HTNFtbWxcurP/Kr/xKVVVVVTx8/LiczaqqHPT6c4+apXBV1DVOjvGalvM63YrqSPjMmI9yDyEwq6eoP1bqecb9Ph+UMRQCIzrwc/tDGAtZ2oqZJEsb75um2d/djU+maRYbAtt8RuO9b5qqqpqmWVlb29y8VLumLiutVTSM29vbWitjzKNHj+q6ThKzsbFxZzotZ8WwPzgRd20jNx06Er4gEobQznJ58pFx+6eUXqxFbtV1z9OYeDKO9nVL2cXlrGP0LeNg0Nhca60xSrtwlLdkH8qyiO+ztbVFpHpZlvf7aysrpNVSXhGn05nW6vLmZpqmItI0DftweHhojSEBjZSn2eH+AQBMDg82L232816s2wbAU0I1HQk7Ej4XzjNZ87nvx0jIxw84msu3ZAmpVSL7lFBVlWcOwUvgoqqstUmSWGuWy9929nbruv7CW5//zKuvfvjhhw/v39/e3mYOdV0nkEQeJkkSiGazIsuyWVmOx+M4Etw5J8xJkgRmFun1erPZrN/vp6mdTWdE5PzJvsHOBj4lusDMuTDGnJ4opJQiEkAuy2mcTaa1YmbvuWmaqqraNEPc1DVNEwInSRI3gd4H7733XmsVD4jz34kwzzMijA9C8EpRnmfeu6qq0jTr9/uIlCQJkZpMpnfv3p1MJtPpLBaCpmlGWjMH57xnXl9dZe/Lstje3ilnhXO+LqtBrz+ZTIkUKvrhX/91VVWj0WhzcxOiK0skgeuyYt/Udak1uuD2th7fv/fRnVs3r7//3v7+LimcziZJYlYHw8PdPSUg3peTwpLZ29pNVeLrYEgrZbS2g6wfJUkxFhLNwdBl8E+hs4Rn49zp0PNKERJh5gDASuk4KR6QVVDLxS5pmsa6k8lkYoxuu35FpCzLJElia6wIO+eLoozDq6fTab/fL4qyLcQJwSOaEHxRuNu37372s68lSbK1tdU0zcWLF4lUVe0P+4Od6Wx1NHr77bettTdv3xqPx+WsiCkNY0zTNIg4Go2iG1nOZjFgY7UR4WY+SlEtxTNZa8xS60NAxPH4AGCY9/Isz3YnW8YoUimzz3vZeHIwnY03NjZiGam1OniPRE3TsPfH72PdTb8j4YsAUdRAmotfxPh+HIOiSDF7WGyEIq+std6Hopg9fPgIEZ1rYvXJYDAAAO99dB2JcDKZzGbF3t6u1sZay7yulM6y1DmnlI6W9vXXX//qV7/KHG7duv3w/v3Y3DAaDKdFkacpabW9vd14b7XZ3Lx0sLcXU+rKmLIsjdH9fm9aFNYaz6AQ2AfPTITO1RD7BlEEWZABMR/2etj3IdR1XU6mgOyaynk/qwsPIRDneV5NqvF4XDalk4a9BGSLliFoRbWratfMR4XG8oWuqbcj4YtCHDsLAM55WQRrAofAx9RYYsFaUZSTyWR3d2dra2t9fU0pPZtMVtfX424tTlZjltlstrW15X0wxh4eHoqI1irPc62V9yFJ2PswmxVraxi5V1XVysrK4WTM3kc3uDcYWGsns1ld103TaKLxeHzhwgUAsFofTKdJkkQbXtd1arMQgnOunM0uXFgNwTvno/Bhe/6zorDGhBCK2exgfKgU2eEwyzJrJ5PJZH9vP0mSpmmSJEnTtCwLpXVZkrUWFQ2Ncc4551EdZeq7XWJHwk8KvxgPprUJwccW3rjIQgha2YqbNLEhcAhx8qeE4Oq6LsuiKMq/83e+9fbbb5dleePGjbqunXPOORFRSofgJ5Op1uZXfvmbL129evv2revXr5dlFcvgRCSEQIRaK6PU9vZ2rClL83zQ69d1jYp61hJROZuNx2MRqes67/eTJCmqajAYlGWZZVlz2Dx+/OjixYvAEvWXxtPpZDabTqN4Pnkvs1mlELMk393fda5RSjnni2LmnK/6jEXVNM1gZbVu+P6jjy5cuPC5z73B3k9ms7sPHydJktosydIkMaRVmufD4TBqjcbkYRBRsRWzs4gdCV8IjqnQn5qACQDeO0TMslRkpWlclmXT6Wxvb3c4HMaoo1LaeyfCTdMwB63VytoqM2dZ/sorr25vb7d57RCYiNI0tdZ6ZuIgQZWzWV3XaZqmaSbC/bxnrW28q4ry5Vc+s766tr29vb29ba2NEjKoqKqqw/0Da1NENZuV0/HMKGOUmU5nImKMmZUle49IdR2qoqmqmgOrxA5Hq7v7U94Za62nM980fv3CpdHKyvbOZDqd1nXd6/XKkmfFVPYnIv7Vl6/2+3m3SDoSfiKCPaEhVU5O/qIz48y9Xl9EqqoEgDgbdG9vt65rCL4uZojY6+VCGbNEfZeyLB8/flwU5WAw0Fq1EVRiJcwaUCepLCZGCTIqKOti0OvnNtmfjJ1xWZpe3tis6xoRD/b2dra2G9fUdR077o3S48bt7Oz1+/3JZAYAzDIYDCeTcjotRNBojcbMqloRiSS1q10wRKR09tG97V6eI+q6CY0PVemUooPDbWM0i2ilPdccuGmaxjWhabI8u6y1AAWBE+5opzHTkfATghcMXEqUx+g7ozASqAAAjCgUXCBNWZYjUq+Xe+/u3NlOkqScjouiyPN8ZWVlUpQAYIzu9/vMXFVVCL4si8PDw+m0HPQo62WBG2AKzDHIyRyrBkLTNLu7u5ZsXdcB4e7Bvvch1UYbLYxlWX546+arr74GjEXT6MYnSUKkd3b2vAfXRE3H+sHjLe8YAFi4rlySJLsH+4oIUW9sXFgdXdDahuCu9UdJkotIWZSImKRuNBpVVRVNMSL5ugmhzrJ4McLhwXR9fbUb/9KR8LmJ5hUKcFAox6PqAoBRDSIghRCIhXhRD8MoggE0CwckATFIACgCSZIlmm7ful3MxhqHa6sXNjaUMaYs63b0NLOsjtYODg4AILXZynB12F/13gfnnAta6dWVtRs3blx66aU4fWVWVPu7u0mSVb62mDDLtCgODw9D3ShllEryPL2weVlI7Y3H3nnvxTvvPbvAj7Z3FkXnJLBoycXYUY/XXn5ltLqamGQ4HDKqJEl2d/ecc9HaD5IkjnAKzP1ef3XY18ZorYmon6fGmDS1xqj3P/jxZDybFbONjY2AJEAMFJBMFyDtSPgicEzYE4Qk1tGQsDCLZ2EARgSRMBevJvSOL790mXkDUTGza0JZVJ6j+C96LxK8TnVUvxeRpvEuBPaemV1TixEfvFL29u27/X6vruuDg4Ner9/v9wT0vQePiUiZpD9cK2YzY7MrL13RWh0eHt67+4AXm9XYlMwMMQsBMG//76+sWWvSNFNGj3p9bW2SpVoZIrW9vb039qFujMkABDAogf6gTxqtNihAhNqoJEmMNsHVAMDS1A1c3Fw/PCRjTgpqnDeqrSNhh5M4rUZxDKJBcP4DDgAAGdADeBFHJIDgnQ+LIm8MMC4LYwwRheC8ZwngmYEQBCAINw0AzKomfmjdjH1oYm2NBA4upGnqnA9CTRN29g+ttesXL4nQ7sG4ck1iswBhNtsNIFma9hJ9/c7d6WRSVlXaGxASEiqlrVKKyJACktFosLihADfOWmuy1Cgdeep8zcxEZBO92h9opePEKAAmgcFgALDQ+Wb2vp6Ox865EI4q1y5evFiWdj7/kBb/o/nknG6BdST8ZJgLTMQ7egAgnvujQSBO5sXgg4+V0wt9ClSmKGrmgEqBxEAOBRYOwXnfNE3wXoSIFGDgEHwIEkJ8n+AhTUNVVdba8axYWVnROt0/LIpZqY1BnVaOAVGZpGnqnf3DaVn3+v3B6nruvU6sVtZYoyimyyHRRmvqZfOaUuSjgrIAgIRKgSJUxEQw6CVpYifTMSIqAcAgKJNpDYHLqvS+GQ6HIda1C7OERc2qLcppXZciciJB36nfdyR8YWDhsiwReVbMogB+rIQui3J9fcOatCqbpmkQldYaEYuibuq6rMqqdtqkrmm8Dx6kKGYAwIFDEGYgitMiaL7oAQBoPJ4QlVorooCUHRyWAGVAqOsmYUiVTpJEW2vSBADqur548WK74gOI0cYmCQCQACBrQEBOUwvxToBo2slQmhTRaDSq6/rho0cro9FsVnx0++7u7u5wODzc211dW82yJEmS2WRKRMOVQZraLM8UKedctHLR4gHA1tYWABvTiax1JHzhQAYhEZ8k2hjjvLt793GU69WUFnU5GZcAMJ0WSFjXRVmUtWtYqPauruumcUmSKWMJ0XteWb3YNE1ZFkFc1GsraxdCGGR9nhOJ09gopLTWSkS01mmaG4OglVIqtwlpjWqu6pusrx2VnpPIXBdUicjG2lrtKl/VznkfagUcAAJA5L7SigI1nre3S1Jq2MsO93dv3ryJJG+8/tksy94vi52dnV4vG/YHsXGpmBZ5LxcW0hTlaaLDGW8r0ApDLqHL1HckfFE89EoLsghJVdcPH29Ppk2vlytlEWkyHR8eHk4mE6ON865pmiaEJEmyfr66vtHLB/mwPxquJUnivHNNU9d1UZZN04wPpyF47wOxkJoXA1A0prFIXCkkssYkSWISHYKL/isi2kTXtVFyNChqfr+I9jA0gODqsTSNr2vvfJKYyAVEVIrifhUAcpsi4sHBwaOHj6aH41dfvnrt2rXhcPjd735/1F8xpBFld3svz7PeYJDrJDQgKWhQWimZiwsTADD4uaGFOTdJUZeu6Ej4ohAFLAiEyqra2d3d3xuPD8sk6RmdVFXhnIv9hhX6JEvX1ldtng0Gg34/H6yu9Hv9h1uPaucfPHp89+5dZgaedyleunQ5TxKjDSkgBW0MNk9Saps1VDseGBWlSCwiyMLs+sMcAOq6LMvy6HZBSzMnHABBL7OYz0UnIjGIdNur5b179OjR1tZWURRf+8WvffFLb1dF+ad/+ifOyde+9rWimN65fSdJssPDw3p7r+4PsiwDRkRFpDx4WCh5i3QuaEfCTw0BCQD6+UpZFuTD7sH+eDYdDtcODqrBwDAYZejC6srm5mZd+6zfH41GKrF5mtau3N8/+PDmbYU4m9Xs/eXNzaqqUmNjPZrRhuYTXULWV6RQxdkSLMxRn3euRQgA7GRWFu1NAQUqUgoRFWgCojg2VylFWhtjNABIjJPOBeqPyOmDt8Ywc1EW3vm9vZ3Llze/8pWv1bPiX//rf3G4f6Bt+pVf/PLq6uDx4wf743323OsNppPx+++9lw3Sy9eupnlvPB4rfWy06XQyhShnvKSPysIkXYC0I+EnBgrVtSMyjvng4EAbk+f91dWVJMk2N1aZg83SNM289yJSNTV555tmVpYhuAtr6+zchZW12IJgCIwxaZoqY1xZkQKtFCAHLr0vq9obpeqygkW117JKUmI0wNznzGwSDWXcASpFrbjGnBPCOJ9HLwACjMvjYkTEOecad/vO7W9+85tZlt356Nb19248evTw6ktX/nvf+hYi/tmf/cmNGzcQcWVl3Vo1HPWv0UsffPCBIvXNb35TGx1COKqn5a5ztyPhp8lAAHC+VkSEWqnk7S9+qdcbrKxssJeirkMDdeXa5EScskS9REmw1vTz3vr6yuPHj60CbprEpiK+mh0wB+Kox+tFgigwViFi431MsrV6ZXETGJmGiHF4YT/rxcpMz6xpPqcFABghJlDm032pHX7YZvCRkJi5cU1RFv1e/wc//IGwFMXM+/D5tz//8rWX//qd79+/fz9JkosvXZxMptN6PGsmhNpDeP311/b2d27fubmyssLslVKn9f/jR3TWryPhi6YionNeG7158WIIoSim1tq6bFBRYgxpjej7eQ6ERLkmqppyOBiQwlBX777zfVfVo1H/9u3bAJAn2WCQp2laFpM8y0ajlSxPmuCJFBmllV62fpFpUchQIQJhjH/GLHsIXgN4ZpT5wYywLP67PGeGhQFAoWJhQorl1zs7O7du3/rG179x7dq1wWCwt7/3L/7FP+/1e2+99VbsYHTOzWYz733TeNe4ldXh+vpqVVVlWUapDsS5LkHgoxEX8JPVF+9I+DccgoxCMSfR13bYG7zz3rvWmrxn1i+u+dD009QY7ZxnLgBAkTZGa0U+zG7dun24f7CxsfH2l94kDluP7+/t7JTTg/09WVtdSxK7dvUlAGiaqj8aKq1JGSSMpgwW1GnPxDO39XMeHByfUnh0wsf13VpHsX2eA5MmAGBma+362vp0Nk0Ok29/+9tlVX7zm9+4evVqCOHOnTtJkjx+/Hg8Hn/2s58timo4HD588PDS5UuK5kkR51yepY1rAIADK5rrfXA3I60j4TOBFqM2z9VcQwYRAOO8n0ym29vbm5vrVT2djLmXZQyNZ2bwIqyt1SQu1LPJ7NHWVjkdv/rqZ772ta/PZrPf/Vf/UikajPp7e/sifnt/m4ic8MrKypUrl0UkCKMI8ItRRlreAZ53QNM0dV1fuHBhe3v7937v965du/aLv/CLSZLt7Ow8fPjw4salx4+2EdTFjUtN7Xt5bzweX37p8u7Ofr/fHwwGzJzneVEU1logQEKlFS3yFnGy2vLMxg4dCT9+yUbn6gkH1HW9t7eXKJVZ45uZTyBNVjKTxbnT/dW+1no2mxT7+48e3AOAV1959Ve/9auHh4fXb7xv0+TatWvW2r/6q786ODw4nMwA4HBSDofD/mi4urJKgh4ERJQcVXvh836X009GGyUiSMjCTdPENiVSJCIX1i+8/cVfSNP8+gfXkXA4HPb7w7Kss6zX7/e3t7eVMtakZVFnWZZn/bKsB327PEbqBLo2wo6Ez4Cn0WkXESR2vp5OD1kEEfO8/8ZnP8tBZVlPa+2916TEh9293Zsf3lRK/dqv/ZpI+P3f//1bN29po996861f+7Vfu3H7FmhFxpD1de1CVZZ1dePD21/+6lAxau+BkJ61xoTihAxWTyxDPxqKGKOj3sUOYGOMInXlypWVlZVoGIfDIaLa3d1NkqSu693d/QvrF7XR+3v7s2KytrbmvBv0B0qroizyLHfecZwAHvj5xI47EnY4ScjTl6xyjhJQKiD5jbWVpmzQk9G5UgDBh+ARwCTm8d72zvb2latXvvzlL3//+9+/f+/+nY/ujFbWf/1XfnUw6P+3/90/v3XnTtU0Lkia9wY9Usb0897Bwf7dOx9dvXpVjGnKZpDnhDSn0xM90/lcGqKYMXfB4+mwZGRFLCUFQAESqKp62Ov30uxgd983zYULF9bW1vt5ahTG7irvvXMu7/d7g/5kMlWWlNUmtxf7F5lZJPjQaJNaqwM7RBEIAoEUEEGWJUgSBQG6FdWR8BmI92R9vizPEMWzX1pYsTeibb2HKCSzuXkpSZLf/de/OytmWunPv/X5S1evbe/ufOc73yZSl166HELQ2gBAUxR37941o9EvfeMb+7vbdV3rZ98NImKr0v9knc+lHPpcl3E0Wtne3qnrOs/zqip3d/mrX/1a1dSPHj9ChDzPd/Z2B71+kiQuhOnBQXAuzXtKKSKKvRTz3iWl/EJxVCkFnSXsSPgcODHY5DQUKRHWRFmv10wZzlpkWZY75+u6vnHjxt27dzc3N/uDQd7v379/v5wVn/nMK7/+679+4/bNux/dNdaG4C9vbsZJRluPHl+4uJbmmdUmTVPXNG10UX2cayoi3odYEQoAYeEQLnPvRD+RJjImbZpmbW2118v39/fG43GSJOPx+ObNm9G5jQRLEtPrpXVdx2pTTQYWmUCtdQghdvFGDciF6sfR/KlOd/RMdBflDDzNnrBpGucdkRqNRucdMx6PAeDixYsrKysvXXlpdW11PB7fvXvXN821z7z8ta//0v2HD+7c+QgJV0ajvb39w/0Da+3aykqaZyLSNK5pmiAS+2Kfvic9VqLGr3BC6vM89aqoKJVl2RtvvLG6ulbXzebmpel09uGHH05nU+fdpUuXrLXD4bBpmjiQsC4rVPPGK1g4Du0It0i/jw3JduhI+MmuHREBjHp9Yw0RGWsAIIjw4ifm6w4PD513a6tr9+7d297dSdP08pUrVVG88847f/2978Wi0J3dnX6/J8J5vx/7Yuu6lhDaKYVR5Lul1unhu6dXeQjsnFfGRMV+Y/TcV0QU4ZaccTh2UZREikhtbl569dVXtre3Dw723377i6+99lo0aJPppNfv9bMsTZLMWKsU+xBqF61fbN1YPgfvfRSzat3RdphHR8gT6NzRT4ToazGzVlqRkuO9A6gIRUiRVtpaG3xYW1u/evVqOZsNh8M0TS+99NLewX5VVmmWrq+vl5MpsLjgACCWdJ9wHY+W8tKYNJhrgbslQs4nXgBAlBX23uV5nmX5smt6prMdgv/iF7+4v39w8+YtIrW5eREAenlvMpnEwVJ1XY9GI210rDg/MQUtMlYtTSn92JtFh46Ez4ljE3Z9SJKEFIUQ9FI2zGoDAFpppZVzbjgcrq6vb2xsbD3amhZF430/z5smDIejLE2d81nWr6oyamMnxrbVArEvMT6Ik4DD8paVj80/jDeHloqImKapSHKkb08IYWnWLyEEOc5D/ta3fvXGjRuHh4fe+/W1dQDIszzq9itSM5nFb82BrT2SzY+2+klJkVMGvENHwheDwGGpP2hpkdE8PKhIBR9eefWVoiyZw5d+8Re/85d/yUQuhPX1Ned8WVXGaGtNWRbOBa0RUR0N2VYkToSFEvL+aKh2lBVeDoHGJd46sQCwu7s3GPSTJGHm5dcuY5k2iDibTRHx1Vdfm82mznnnXAhheUZF3AbHdP+Z41JDCDFYuhyY6dCR8AUDEeu66vV6m5ubd+9sLXPgCLF9gfDw8GBlZVUrPVwZxWDp5uZLzKEsy7rxSqt+rz8rCtNLQoCqql566bJICIKNdy4Ej0SKdnZ31njN6qM/GZHy3i3s3lFePgTfDojvZRlzlMNBIgUARVHGjahz/sQ5i0g5cwAAisqyJFJJohJIIAZ7QmAEbXT7ZVFhu1PVWp/2dZWaD9mOe9rODHYk/HSxUBY7XmANgIhr6+uTyWRzc7MOzjlfFVUJZZ731tbWJ+VMWA4ODvqDQWCOszuJ1PXrN5IkWVkbra+vw/G5F+37K0QmigYnWrkTq5wI/cIDRMTlqb0nzrx9PFwZ7e3tN1XV6+X0XBqhp3ewHZ6MLjr6nDizEjKmBAiR2tij0orU5ubmaDRi5jzvJUmCSokE56qqKgCgLMtHjx/funlza+vRaDTo9fLbtz/88NZN0urSxYvLfuCpv97cuCHiwcH+ZDIpy8K55pMUfMcAjLU2jk980icv3OAns+70tOMOJ9BZwheAM/t0CJGjvDyH4XDoGnfhwgWTpffu3Rv0esw8nU7v3LndGwxY8OLFi9ODw6ZpBoP8/sP7Dx8/fvvtt69cfinNM0Qq6zPm3c/9vYUxtNbG3IYxljm0UZnYcwhPHZacj6kRGR8cklbLG04RgWdhUdc92JHwJ4c2MomIgICxW4cluqZ5lnvn446IGzfs9YpZhRqTVZvapHaurutRL7u4tlLOisn4QHzzhTc/d+Xll9n78cGhC2FjbW06mXrnm6axeV7XdZROnCv2hhAC13UdC2WIjgVvopCT0qSIYhuRUqQUOedFOIRQVWWcZygiWpu6rldWRnmeo6I2s3+U/WeZT70W0ESAxKSWOk4QEauq6vf7MWWCp9Ctlo6ELxLLkg1Li+zs23+/348ywXmWC+PBwYGI9Hq9gVV1XccGhXI6FZFXPvNKr98L3iNikqUJQFmUZVXWdT2ZTvZ3d6uqqqrKex9V1bwPzCFawphdjMpOSZIopZkDMweey4GLSFRVnEwmZVlGDxYAiFSvlw8Gg6hinNokze0SmSlGmZ7Moki8pmliRjGE0C2SjoTPieeWap+bQgAJHI47Y865JEnibDNr9dWrLzVNUxRFAAihrpsihLqfD1bXVldXRo+3Hq9trMch9XVdk6iyKCeTSVWVrnax9TYEHyfsxqExQEJExhiltFFGGWOttVpv724xsw+OQxiPp1Gun0UMkjEmSTKjtbE2+NCU1ZQl7fWaxhVVBQCxfwIWxW6LAA/FwtRFf+OT7FsbE+osYUfCTwW4FHg8WmQCMZ+uFMUB0fHgWIlGiuKglbqumVkbrYFLxFc+8xkASE2mld4/2B8MBnt7ByLC7EVkNp0VZTErZtba6eE4ktA5X1VNJKFn9r5uFXYVzv+sgkxxBIVGUipNbVR2s9ayq1gkmsmiOHSOEVXTNIfTSZLYCxfWkyRZuo+QPIU+hTEGAMKi2q7bE3Yk/KQEi8w5L9V8QqmlRViUriEAAVlrADg4R0qpNPXBRblBAABmZMl6fUTV7/WrqkLExjVN49M0H/Z6ZVkKyeNHO3Vd7+zuxGH0wBK8b5rGORZhozSkJkEk6qVpKiLFdLqytro4He6lGSKWZTGZTLXShDwrJnv7dVHMlAZAF7zPsn5dMQeNU1UV5WxW/eKXvjwr616WkVYwzyi2PCSFREAgAIRwqmc3TVPvfSsR0q2ljoSfJlEXsoIxXk9IRMR89sqLStuAgIRWWxFmphBYG62dLoqirEpFKk1To00xK+7du3f/wd293b3J9IDIxIJMay0JWKtGK31rLdFRaVsxKbS1MRkYK2liEv9wbz+mB51zdV1MppOyrkXk4PAwyyxgPaurSxevEtlhf7ixeuHBgwff/ou/ePUzn/k3fuM3iChuO9M0rarqWa9PZwk7Ej4/Po3xXSEwAETVo2UcHhwy83Q25cBZ1kN0169/+O6771qrffAhuNXVC4t4ifPB63mXLAT2gb2wONd4z4jmcPdgOi2aphkMeu37Tw73vHOHB9O9/X00YIzKsp4yhoX29meAQSe919/48v/4f/Tvra6s/d6//oNLV6597q23/vw7337jC59fX1/P8gwFimIW058ARwPoIe4Pn9gsv3wZO6vYkfDFo+1SJUXLYu9ngjnExLpGCs4FkRi3JICs3xORLMuyrPeDH/zgBz/4QVFMP/fG59LUbm1tRS3QNE1FfFmWRimR2GMoZVUF78uybGqPhOPDWVVVRDSdzVruu7IaDodZng2HPZvbjY2N4cpav9+/9dH9W7fuANhrV177+je+VTZ867s//Kvv/fXm5oV/4zd+syzLd9555zd/8zfrulYCVhvP/EyWjZ/x+I6EHT4pG6NbyMzLRUjRQwUAVtSULk2VVYmIIDiNCEqDgiYwBeynvVlRHuztffDujyaH+yLh+9//bpbZNE2LsohNUrNZZa3VSLt7e4rIOTc5mIhImqaHh/tJkmxcXKtLf2Ftw9cFkdJaKU2DK5c5dteLlHV97949s7O9Mlo7nM7q2q2OVrVKf+93/7gsy0GWA8CDBw8nk8nXvvb1H/zw+yGI96y10ta6xZCZeVJ0/vhcMxgPi9nRGBbu1klHwk+XhO3KW36+8d4CCLJzXhOpOVHD8ddSnAPRNM39+4+UMd6Hra0tk5jh8GpTh162Qor2dvfqKty4/l6e2qiEba3N0lQbMxwOe71MacizJPgm6ikhEaIAQJx40RRF4xzHzsOqflw9rirnqzLfvPbGG5+vynp9tKY0ff+733nzrdcP9w+Q5OrVq1VZ9fq9RKvZ0pinp0RnBjsS/kS59zQgrYCQOXgf1PGdkmeuXVOWhYgU02p794B0sjJaf+mlVzc2Ln3pS79Qzsr79+8HH/70z/7ggxs/EGLUQEoGq30fvEhTVVMAriry3tVNqaxSCKQQUXZ2tmDuOc/VuxEBMKCElWE/UWhIXXn1tRs3bly/8ePdrcfv+VKTDIfDqqq++OYbriy8UlmWlc/OwxNXqdsTdiT8VPDkZjmrtTImRiljTRkAMIcT85IAwDnfNI5AKaWClzRNfuHLX0+S7NKlK9/4+pf++nu3vvtXP/jiF7/47//7/9P/5D/9X3tfTiaHB84Ne30i6vV6PtR1XWutsl5mFF1a3UBFRumYYAjON00Tgp/NKuecd46IfF1mWe/evY/4T//w0ublN958M3/7TWW+8K1v/crlly79n/6z/+zll19pfJ3YFBFdXeMTJUw7dCT8KUBEiLAtmHTOOe9OrNSAEHxUnSBUGAQAWB3fHYkXRAzOAYDWipnX1tYGgwFzmEwm+3t7//f/+v+39fCRSPjRD/76W9/65W/80tf/H//P/yom3CezcS/Lxge1iLzx+uuD/mA46osIkY7VM8LiJXgfYqmaCE6n0/39/bIo0tQCcJri7s5Ht2/9qKp2/uP/+D8aDAaHhwf/r//6//bhB+9tXthI09Q5L4JGKQXQutHz8tH5Fzj7NlQUBQAYY7rdYEfCT52Kn/gdWNO8HdYzK6V7vd7Kysp0OkuS7Ac//KExOrXJK5957f5Hd/+b//b/s7N/t5fnvX4/1M1gbZ05bKyvXbt2LUmyWJIGAMLS+Kaua0QEovjOzGy0HQwGvV6vrut79z5qmqZpfO1maabuP7j9//1v/t+9Xv5nf/oXZVXVtUsSTQqlEQkMSvklmx+lDLu/fkfCnxoWM9mZnk5a9zQ+bv0yAKyvDi9evEzCPvjt7e13Z8Xmxsbde9sPH9yzSg/zPCRpmqZXX762PlopiqJpmlbfRcR7H7xzSCjzkWnBe1/XB7FsTURWVtZiAXfsn7h79+7+/o5nXllbS9N8ZdDPh4MYRsKnbjptlb+Xy2Xagr44oLRbP2dct+4S/JTBEuaJP9YE3rtZMTs43BtPDr7y1bf/rX/7N/r95PBw7+0vvPELv/CWsBuPxy54AlxfXf3iW5/XgHu7e96H2XRWzIqyKKuqcs6F4H3wTdO4qF7aNN57QoxSF7Ftd2VlZTAYWGsV0fra2mi0MuwP1tfWREIxi1JO/llNfTeE8DnQWcKnu1c99S08hBD1VM57p5McZAYOzEECZ71ekLA66E8m4+9+59tfeOvN3/zN37j+waZr3hj0zJ//2R/8+N13ppODS5c21lbXNi9tTiYzCIwgriyV1lopbYwiOphOASAO9w0MHAIJKFKitYh453wI0XICwGAwcM65prHWpGnalE0vyYumttb4EIgIAP3TiTUtB0JjN9Oy5FSHjoTPjJ9MPHChyESIGEKjNZImZj48PPy//vZvV1UxPTjMjP7Xv/svvvvd7zblLM+zLMustU3ThKZxzot4ADDMrLSIBFIxFckAHDgwiHAk5DzPTqQBPGKsuzFaA0Ds6FWKvBcR4aiVxkxkRJ7hOpwQbutWUUfC5yfGc//2PA7jSTn6+a+UMUYpq3UwpioaS9oqxb5ZHfQP9nb/8//D/1Eg9NJsd28riqMN8nSQZ1apalbUdT3/KyrFIjRXH+XhcFjXdVmUdV0nSSaCLOKbxgsjoiJCIpskcdASt2PlCRGplyfaGFCU5z1SCuQZbkYnUoLtXJ2jRq9uRGFHwhdIxRf2ByBCpVApImIOpEgpEAnMLsuTwK6q6929yf7+7mg0UloNh/1+vycih+OxUSqWpxEpRXNzKiLFrEDEXr8/WhlZk1ZVFQMwjXdaKTBGE7Xq9M45YeZY5EbkQ0CiEPhEZc/P7AXsSPg3EwEBiAJC6RqrLQAE4HbQXzQKjMAIgBDwjJUXg4FnpvJPDM1EgOCc9zWQJEmCKFEflMGnmS0K7uX5QVWurA6NwdFoqBJ9WExMo02ip9Op0loHRUT9/pCAi9mMENfWL5RFOR5PNy9e3N3f8yE0rhGEtdVVFolxmsFg4L1vmiZ4r7ROiBSQ1fZwOgEAYohecgAAYEAQwVhuDgBBkBbtlLRk3FBALWYe1mWlovYcAAEoARTALmTTkfCZoJ7rRm6tjfrT3nutn/XyRtIGUkSIwXsixRyMMdpQlqd5LwEAYQ4huEXjbERZlE3TXNy8+Pbbb29v7x7sH3zj618vy3J1fa0oozRGVVWVVirv9ZjZey8iSZL0er2D/f3KOSdBaTXfbXpJjQUAJBF+ToOGXUKiI+Fz41n9KEIKEuCJc0XbX0Xz+HG7LEZEH4Ixuqw8EQ0Gg7yXAQRSwsGFEGKPglq8rfMuSZL1tfV3333X6OQf/rv/7mDQv3H9xo2bHwZmrXWv1xuPx7AIV+ZZ5ryPwm2XLl8mIt80B/sHQISIgTiOo0EEWNoTPgevnk9BuCNhh2emYhzMAABN08T5E7TQxl6UjJ4b5Q8iKMvynvFVxMEppTmwtTbLMqN141yMcHrvvfdZli2/Txzr+cUvfvHNNz7/6PHjO7dv371712Yp13WUpWHmYjYLzMxc13WsvEmS5OGDB2++9dag10OkOx/dSZJECMuibK/D6VvGUd9z9EvPkULuVlFHwk8R1lpmHx9gnHO02Aq2o2qjptOJ/eGJBS2CwJhlGTYwPdiPT3IQY3TTNI1rRERbbYyx1jjvhQkAkThJkvatRISDXL169e/+3b/7eGvrX/7Lf1mW5crKypUrV+7cu3uwvz8ej2dFwcyTySSxWZZniMrY1LnQ1IU2yUd37q2vrg4HKyvDcVmWzH5ZBCAaRCJq9RxPTv9kgbmi4lyDtJhORcRqoxZTMTq1tY6Eny6WK0Xa2EyckRL3h8sj+069lgEAhYiMUnMdfR9cXLqkaNAfxLglhyBEAKAWY1hajEajl65c+d73vvfB9etXrlxNs/TRw0ePHj16+PjR9va2iKytr9+7d29nZ8e5oJVO0zTN0pcuv7R5aRMRDw8PJofjl166fO3ay/fu3SsP9tZW1058weX/DCJ6MZEXOqPXkfCnjucbgbJUWklACIRKq1hto7Qqy4IDKyKjTVt3Yq09bzM5GAzef/+98Xjc7/XH4/HDBw/H4/GDBw/uP3ronFtbXc3yXJittcFXSisA2Nvd3d/bf/z40euvv56mGQqUZZlmVimIEdSsj4ggAu3It4/9dmfOogA421/t0JHwU0dU/ov7w6eRo15QkBRRYBbhebqCGRASk+RZNh6Pj71GYgoAp7Op9+Hq1SuPHz++f//Go4ePHj9+rI3OsixJkrKq3nvvg/gRxloOfDg7jCNf9g8O/uIv/vLLX/7FzY3N2WzmQ7O+tj4rax88AAg/T7mMiISzXiUiCB0bOxI+BZQALbJebWqLjo3/jDrboASUgHMOEWM7wgkSWmuVUi0DjxuKuOk6egkpFSeKRikMbRQAKJ1qo7XSiFCVTTs8lAhXV9fG46kwjlaH4/E4y/Lt7b1HD7c+eP8DZgYhoxNGcI2z1ooQADjnnPNa6zTteS9KIYjKsvyHP/zx+Nrh5z73xmw2TpLkwoVV73zUMgago/yoACySN60juqTucWx2RRylmCSJtaZLVzwB3aX5tNDGSJ9vWq0ian/OeXNdVXUvz7MsK2ZVmuaK9PvvvffDH747Hk8RVX8wGB/Omjr0en2RuSnOsuzNN980Rp04Je/948ePt7e3rbXCgkRthfeTcaxtgo8eyDmWsFsYHQk/Lb4tP26NQ5uoCCGc3i5GveCo4dmqeh6RUOv250wGaq2884gKgOragdDW1s69ew+mk6LfG4WAisxXvvK19fWNsnTCwAzC8B/9z/7n/+Sf/JPV1fUTJ5Mkiffh7t27gUPjKmsMKXrKvqQTQamjd16SgewiNx0Jnx+yAD9FL/mJJRsT9DFA+jE0luU/hILjlrCV3F9mIAgR6ZhtR8SmcR98cN05t7o2bJpmb3dXG/O/+l/+L/7Nf/M3xuMDloCIj7e2+v1eHEqzTA9mtlZba4piFsu+0yzLs+zJDAzHh2OfSr2cnZLpcBrdnvAZ2HjerwhJUM5zOxGxnbZ7rKQmllmi0YhsfAgKIAZaAABoKaUhPjjnhtmQNSutqrJy3vfyhBmKokhSc/nSxQ8//HBv77GyBrWYTK1nK1k/ES3aYJYZIs7zIaL8b/7T/wRR1XWNqACAGRUpAPSeCQIA7OzsbF66OJlM5sk9QABss3+xqaJN37vgiZQ6JweI2A2p70j4KXPvzINPLLun2Q0iAZFSys6niwIgagQFyC3Lgw8x9R/5aQDG43GeD7TWWunxePzej3+sjREAY3RR1Ih4/fr7//gf/+OdnZ3AnCRJWZbGmLIstbb9Xr8oi+NfjUAAMIiIVoaDIGoAEpH2C53g2dku6NE3n1+K0FnCj0Pnjn4cQ55itt7TtMk9od2eSGutjNHn7aC00j54H7zWmgMnSbKxsUGKQvAxqXj37r1ZUa6MVrOsV5beu0Co8ry/vbVHqBKbh4BKKQ4wHKwkSTIrZnTO1xERpbX34cTZtqekjp+kOn5lWu99fgCh6oxhR8KfL4iwCAOGEwQWFg5MRM67PMuuXLmyvrbOzFrrsqj3dg8Umum0ONgfE6osGwCQNVnM8jOzMWY8Hq+urQKAa5on3GtERCvF3s/7tgRb8454BqOecG/q6NeR8PkREBhAEAKCLH6AMPYQLv+EU/2EzwpEFAlRkjB+YgBggDRLnQvOhTTNAUhrO50WMSs4nRY3btzMst5LFzdfvnI1SZLDgylqK6h7vWH8s2bpYH1tA4DqulZKOee01kUx/R/8D//h/+5//7+9cGFtVhTBB621tSbqZUQowEQbrXXUz0cBYSSaW+mAzCTxXyBBddIGtv8Zxy0uqkYpErjbInYk/BkGS5yd1i7laVnmWZZnWVmUQBhbE+u6jr7osD+YzWYwHxB/zGzGTejW1tarr77yX/zn/8Uv/dI32r6n8Xj81luf//Vf//WXX37ZGGWtibOytdLGKG1IazMcDufSbABW6RMKHSdY1OrWnLO4Oso9FbrAzMdgaZ/2nDesJzQZnsZiTStr0tI5ALA2DQCkE3Bc1j4PQDoB8N5LQPBN3SrNHH8f7vX7v/zNX/7yH3z5e9/7XlVVw+Hw3r17/+yf/bM///M/f//999M0NUalaWKtDkEAgUQBcK+Xxy9bFeXaxWFVu4Bzj3S+0yMUXiraFvDMZjmWe5yTqI7MYGcJOxL+LEHOZiaziAgjzKpy0B8BwGQ6SdMUCUEReJhMJoeHh5ZUnL/bNE1zfI9HBNbYLM///M///J/+03/6Z3/2J865PM+dc6PR6IMPPnj//fdHo74xaCxZC9oggAeIBXqESNZaa81kMtl86WpVu7gXnbMOMapJzXeJixmhzHyaYF07b0fCnyZOW79jIcS5YAQBgHdOG6O1H08bVKQU5f2+391Ke4Pt3b0kSZrG181UoQRmQppVjffswXvvkmQA7Hp5zwcfPzCAElIBIcmzg8PD/8tv/1ejfm84HAKAiPR6mVIGiRHFklVWaaOs1bHMLLNJfzAwRm9ubr76+ueAcDweqyQJVaNELWpHj0q024bDKL6vFl9cRIqqarzrISZJ0jYTAiF0lrAj4c8gksQWZeV9nSQJsytrVzQusfnWzu7K+vorr76ysbHhq3pWltsPH92/f7coxjv7+6uDYZ73qkXz+6A/mFUlAAgQAMQamiRJ0jxLjY5TzbIs874JwSEDKbBWG0NJZowxWkMQyZM0z5NZOfu1X/v1qvbKJKRNXddpmnnnW6s2Fy893r015+FxjnXR0ae9ZXeX4BPiaVrszjsmhADIskhILOf10zT9yle+9vrrbxqdmKwXXMh6+ZUr16xNDw4Oi6Ym0vlw0BsNUUvWT2IDhtZKoYp7MG1tmqZN4wf90aA/ahqvtU2SJE50SjKTJMYYRSRJYqzV1ipr7Wuf/eyFjY3JZOKcW5wLA/Lp+lg42UJxUufiWGKDEJG6NqaOhC8ST66keRo1hyjKFgOeSZLEKtAkSXKb1bV7/bXPsUieZf/OP/x3vvnNX54UxePHO1XjNy5e8g2Xs3Lv8MA5R0T9weD11z+ntY5C+NpqGymFyMxZmsZEf57lo9Go3x/mvbzf6xllWp8ZlTLKoDJKmb//9//t2jUmSy9cuOCCS5Kkqqonx5aO5R74nMvCXd3Muejc0bNW1VP0E8aibg1aHyuqwWOVa0JHQqXHKAqIqDQKKxApptM0T/p5yr5RiEqpz1x5Oc97zawi0n/x59/5q7/8y2paWpv+h//Bf/D7v/t74/F4d39fGXXtpctKA4zhK1/58oPH23fu3On1+9YYH0IsiGGRRJFSJur9aq2UQgAIoUHtSQEI5mlaOt/rDXu94Te+/vWVtfXpdHbt2jWtjbJWEPI8Z2ZABhEOcrI0jzBOfgoAyhgJQVs7295eTAU+yu+LMIjqjGFHwheG85oq2lrnJ5jBxjWwCN4QS97vV1WRJEm/30+M3d0/TNPUaLs32f/j3/+D0Wi0urL+b/39//4P33nn+99/58KFC71+D4HH4/Hdu3evXNl87dXXbt26/YUvvlmW01lRjFZWJ5MpIipFiGhQKa2MNqRIERRlCQB5nogAzkW49framvfymZdf+do3fjU1lpmsTZsQWteSiM78vm152nJP/RMuS4eOhJ8KTldst82E57GQAyMiA8dyGURtlALCrJdfvXp1UlSzYra5eXltZbVs6pcuX/7D3/+DNNHjw9nrr39OKamqyqZJWU6ZsGjqy/38cHZ47dq1z73x2e3tx4eHh5cuXdjb3+PgkyQ1mojQGCRC9mF9YwUAqqJM897u7u5rr30utdnhpPzqV7/6D/7BP3CNn80KIUXG4FHpOcNCWzXybVmIDeDIGJ4Edc2ET4VuT/jJr96xaxhbB5d7CE/XlJAipZVSSsfxD02T9XpN4wDgc2+++eprrwUfkiT5tb/7a9/61rfu37+/vbP9o3d+tLIy+IVf+MLu3rZrakQcrqxwkK3Hu9Pp7O23397d3bNWv/2lL2xeujCe7A+HvbX1VaXJKNAajQKlBJUU08NiegjEWZZ985u/mph0Oq1+6Zd++Vu/+ne0Suqy2dvbjRVnSj3d2lhK3Itw9MlDN6XwWdBZwjMgIlEYBhHbyYTn3M4JoFVbIgAyxrS+qA8NAMxHryzFNpLExDoyABC0ANA0Pk1zo1TTNF/4wufv3Lm9t7tTlrM/+qM/fLj1+Fd+5Ve00r/09a/evnPjj//4D1dWh4gIYHzTNI27d/fx5z//xle+8uUPPnhva+vxlStXRqPVw8P9echHHbElOJdk6cWLFzc3L9Wl29naHfRX//7f+623f/Gr02k5PpikaZ7aDBida0JgZVR7QWAutyZRx3GpfR4QSYhRUAIvlI5D1NiHRSvTXFSus4gdCV8c5t13y2sUzhHhXJ4gvfzbxcFHCqJlWYbA+bD/ta997Xd+53e+8+3vvPHGm7/1W7+1t70/KybvvPODmzdvrq6OhsPh+vrqcLiyMlxNkmR1NBoO+6PV4Re/+Au/93v/6oMP3suybGPjknN+MBhURdHmPgaDgSZyIWw92kuS5Bvf+OYXv/Dlzc3Lrg4oCoCdCysra1VVPIcDiYguBE0kIhL4WBthV0TakfA5EG/2T1iLhMQQ4KlDDssxDGOM9/5kqVfsgiWs63ptde0f/aN/9Ed/9Efeu62trevvffDj9378+c+/+Vu/9VujlQGzd85xgAtrG8BY13VZTg8PJ6PhhX/vf/If3rp9+913371961ZZlpNxZdXRn7guuCG5sH7h829c/qVf+vra2gVCs7Ozp0yCqEFU3ZRpnroQlBejzJlMO32XQUQAEgjMwQMghzjZN1bbqlZYFQAEOmPYkfDTYuyJB08DXBIOjLTWyqrAs7oEgDzJ/97f+3uzuupl2ZtvvXnhwoVXXn1ZKVXXJYuPg3Unkwl7FhEiE8eQNU248tK1z772uaqqPvrozr1796pZ0X7iaDRaW13dvHRpZWUl+PD48Y5rfJpm4p3WCgCaxjNPy9nMKJWmKYM8xbeg9vwlsCCdllrrAjMdCZ8ZTOhBoir20lywk/kxAAoiYUkDSkSIEJBjcjDKVSxnuufSLM7hkmjE0W8BhDBJjPceETlwZnRwTZ7l2dUsDoFBAQUaEEAgsAcEBBJhAQ6BQ1TsFQCAa9c+c+3aZyIlQhyP4b2IeObtvX0AQGVMZgLAIMuK2hVlUbt6pT9cSzcBoHbeGuslisWxMQbmulXRu1ZRKSDWcwMCAKkkBYCAFASAFKACUhwfoBbo9oQdCT81tIEKYXnK/c+ZNtMYAwAsZIwR/gTnE45eHOk3Z47WVVFMZrOqKl+6dLk9ZlZXMY4SQyntDYIREJBIHa9ZIyKqXePqummaC6vri+dxefzbsQqGbk/YkfB5wOfuCecz+4iYkZ56eT394JS4lMNyndfCtMbfL58lAAie5KtbUlicSw+yAACLt9auWwuwejQighfbX3UUCl6+uRARkfY+nHf7aP1qo40PPoQQfNBq/j+t9NExDJ0Sd0fCFwpRAAxAwnOhh3Zwyuk1Ck+xY5zXTM9JRR/Haj6jIDPWyZ0lc3qkWq/Uco0LGSKYT25jYUWqPecAEmdLEdESCTkEttqkNgEAjPY/VqhpFSdYxH9PX4EOHQmfH2dGBQHmvbnWpt57EGWs0frEWD84pj52+p1puc/whPWD0+yV437qSWIHObn027IVPnoHkaOACjPLkXSaWpA/fl8QAecCQGhvCu2MN5GT5xP8XEcj9lItjyVc+KXdUupI+KmDOByt9ydbgGVizy0Pn7RgHytEf+ZHWGtDK9fbElUddR4de37xQS/EXrVFCB06En6KmI+tRZTFIInl3wYObXI8LuvlRXlCojP+P5zjqZ4uj156H4q8glOTMAAgiJwmlYTAS5RWxiy9Fs88w/Men3dfiFY9bizndpC6qExHwk8LDFGacL40eWH9WOSkNYtFpHpprsuyIYqbsfh4EcOYH/ME6xSdQKVO/vli39Cy6gy2EkyEhJ3oS0fCn3MsWwDPIcsy72tAVoans4nzQxFxzi2a3HWsQWXmuq6bplELLLugpyefLRRo5sPg4YTP+cR9VSxViVZufrdYNEMQqScHe07ve+WJR55+DADWWGZuztIX7tCR8AXDWuuaxnlnjH3zjc89ePjAWhN8ZKav63o2mx0cHBBRkiR5nldVZRZYtoqnpzs8/d7saQp0ushkR8K/wWhdUNi8tGmtLcoCAO7du9cu/RhIJCJEHAwGFIdOKLXsgn4MbebpNQSYx3uO9D+fTsbz+DEnj1dzXe1lZh89pKchsBz7LIEjNUTstEY7En6qaJomyzJEdK4pAm9sbACA8+7SpUvLK09rHd3RNE2Z2XvfNE0sTAEAkOep5IobQuw2eB0J/1Zh2VFsH3vvvA+9Xl9CaLMLwUtrHZIk4QAAlNhMGBGUthoAOA6dVwQAy8Wpsf5mObQzZ9pc6Cam0QHnJ6CeRlNw2codGzZKMR2/uBe0NnPp+JjnoFM7wBPa+MtXqcVympCQulGFHQl/UlzlU9IPn9od4WcTZyZUOnQkfC4QPt940CPF+IUYlDqlBv8xSfwnJtYUzluJnzDk6DxLFYOjp2ObwnjONcDzmLb0YccZCB0DOxL+tDGn4t/WAq12OkWHjoTPjGN2j5FAMSPiieuzXPtCwiiCiIqZQQgArTW8iJq05iLA2YmHhWL12fWoi485GYMJyCqxELdzck6+7ri8xtLTCmBuu47ZWzr3osDTFd8tX0YWnk1nS21MxMLCi67DDqfQlfm9aDL/7Zaa7sIvz4HOEp67mJ41wBCDgafX4s/auly2gdFtDud0ED/rmUdt0hPPdGvp469bdwl+KliWpXnOcKLQizzsRTG8i44+OzpLeAaMMWdOvTwBXqw2s1Sraa2FRbD09HJkBBEhOeIhL207aX54gCdYoWOkWo67nhMpxaNWwNOHzEtxPom9Yj7GQBYRaZpmMBhYa7s84dOgs4RnwDnnnPPeLY0He2H4KS5GYy0p5UOo6xqJ8EU0/p12ODtL+KzoLOELACNoRaiUILYtEHJWF8Iil7jMQ15ev8/4ycsbsJ8at2P8c/kLHv1KdXf5joTPheiOam2e4Ke1PYHP1JMu80Kwo7fln6DdcE0DAFoprZREfd4X1AW/zMMOHQmfE8drIINzLlJx+Rg+2d4AAYARaEGk4L3SJy/p8VfhqeWLLRUX1ZvxQ4/IGSCct/iP3vnYs3zyRJdvBEtnsqgFf5HLoCor511bpN6KQXZ5QvjYv2KHZ8KiUDnqJD0bOGotdegAAJ0lfG4s+tCJCBmAiZAwMDzZM8WFdsXSU3H635ydz0rn5fd+imM+9XvuiULZo8RppzRzPjpL+PONtnXoaVnLnzg/2eFFo7OEzwBaNmCLB0EAESlWmp4fyIld9nJOhx6cSi2e7v1rDzvx4GPPeol+0vJw0bt49Ph5bwOLj0GKvcvT2VREtNFGL/Q8rIktH50Cd0fCnyccI96ZByzpXMBT69O0sdxlKr5AdAa2I+FPhB7HRXs/dt2fUUd61jJFRDiV7ZjPiEc4M/zzHDK7iMfmZ7zwygF8mhbEDh0Jf/YRh6vEB0hY+7MLd07YMf4ZaOAQkb/lfSQdCV8MUIAWP/Nnogt3SoU6el9EhDQvjjxDuSn2DfJyJvDoGF70ChIz4GKnh+ACswghsrBaqhFdbl3H4x3xZwo/CfARY4VYZLkLMe5tz+3Efz4Sdu7oM6LbJv+sIOAZNPi5SyeycFc686zoLOEz47Ti2JNBT2dbEAmE8WkPXtrX0WI+6ccdCYAnBNrw0xnecmIWU7dmPmaFdJegwwtE544+BzpL+DFYvpHPt4gxGTBfdEACcSg7AcqzhweXN3LyjOeznMY4ryRF5NTQ0hdk/WTpOiy7oFVVLfUQzvsJCbsm+3PRXZgOHX7K6CzhzzgY4HgnRFTLPqUTE23RGR2MP42Rncen83Z7wo6EP9sQPnss9s/3l1qeAdylDTsSfkpYrphpNz+f9D3nrX48L+l8EnUF2nkST0wJCJ/8LZ4zOfj5MLfAIgBQVVWWZcWsYGZjbVtvEPMWxKrbFnYk/FnEMeu3NED75xGTyQQAAoenma3doSPhzwuiHVuKoeLy7F488fxZLP/pWB/qVNae/lp1l+DnGj9TO67BYJBlmSLFoSuaeQZ0lvDjVvlSi9BCpfOoi0IAhZBFAoiACAieIgU9sdVo+fiz+PSk/Zt3jdJKoSIiH9g7L4TGmDgMOAQfAienNG/ix8inELTMezkiVlXVKo52ecKnQXdhfp7/eGqenGBmRXFWGkYGxr5BrVVXyfmzj84SfgyOqaScaapOKG2etnVPVIZHwuhSPlMAI5oVUhTHHXn21mqlkYisprp2hIhEICTyk9ClX9YHYGFEJEVERIpIddvCjoR/c0FEwODZc+CbN2+GEJRS1lprLRFprYmo3xt+rL/T3iaeSUO1Q0fCTwsiwiBh8UOLHaCcPWPwmMCEWhrTe2KVw1nFzfPtJWEbyUDEGAtl5jRNp7NxlmZE5LzTStd1jYRGmyRJfPD72zuPHz++dff2dDr1TeOc33zpYpqmiTZEZIxRqEXk4sVLFy9eTJJERFwI8WMYJSwsO6JqnMuyrGnc0y+IVm8OlmpH4yyK00ciYjyk2xl2JPy5gbX28PBwfX11Mpn44Pu9fhPDMKS00dvb2zdu3Lh186YEZuJer5fbRESssYk2dV0TETMTOef4/l9/b9DrXfvMy2+88XkiVVVlE4JO7HKCIx7fXfaOhD+LaM0aEZ65Sk+rwpwu12zLVvBUOx8JxE3UCVfQe5/38lkx00bPjZhzeZbv7O7c/eju3bt3q6rKs2w4HA5GfUTc29kSkaoojUISVgIkrIQ8SpLog/H+1re3th49/oUvf3k4HEpVLlurENgY45zTWsNz5Tzm9avA7VyAeZrwePloJ8LdkfAF47y29xOVYs9dQk1I8Y3qus7yLEuzGzdu/PjHP67rOu/lr21+BhEvXboMJFtbW03TGGMaV4lk0aYRM4D3vhmNVpIk2dra+vH7P65d9YUvfGHz8pWydgv5jKjQYTpL2JHwZwUnusKXDdSypAuDAIKXRb8eAiIIiJZTY9zPMYPxV7z0ubDUJh9CaFwz6A9CCDpRs8Pxe++9f/P2rbWVlQurq4PBYDQajYZ9Rer2ndvv/PX3rl69WkyLAH4ymVilETEEj0je+yIwAIz6PeTw4Qfvs2sGg0E+XDuczrxz1hgmCiEYY+R09+FTXK6juwYQABweHKZZesoeAtJxNfAOR9etw/PivNC/HMfz3AgIA4d+r19VVXzm9u07169/MOj1h8PhxYsXL168uLK2ZrR5550f/vEf/SEiVkWJzIYUBG6axnvnffChzjKTZgaJ66Yg4jQzOzuPv/e9v3KuIVJKqS4u+lNHZwnPocHRiqR5iabgck3LXBGUMIRjr8In7nrOcE3nI8pOvipLsxBCCIGZb7z/4x+///7FixevXr1qjLp48WLe75ez2V/++V/cvnNrMOgH5mI6TpJEoRXw4hkY2TdKKUhTaywATCYTltDrZXVd37x58+XX3lq/uImomAMLM5NSHQl/Ougs4ZPwU+wAqOsyy5JeP/vg+nvvffDehQtrL7/ycpqnl69cyXq9O7du/c7v/M79+/eyLIvnWZYlMxME8SzCkb/e+6aqkTBJkixNtdbOOUQU8O+9+w4JW2sRibgzhj9NdJbwTLAga60AABG9cwCQJImwb49AJG2Ua7z3Pu59tD77jvbkwMxySSUd7cgCKgRx199/9/7dW6urwytXLq2tjRBxPD64devmvXv3QuBev+ed9wQQWFvrgldeEwshIRIIIDAzH+4dWGuG/YFzvq4cs7dkHj34aLK/s7p+IbNJUZcKURBBFKOH41M3nuWqsfNORJIkMYthFNro6JVjlyTsSPgciCYlEsmH8JOMrw9XBjdv3nj48F6a2vX1deebmzdvHB4eOsfModfrW2tcWdVYC3hEBBb2IdQOtGp1DYUpBCYKzIqZlVakyAdEEfFuPDlYvbDG4nEeM1HdIM+OhD9DaNex994Yg4jMDPMJ7LGjT4HQUaMAxX9f2L5qOp1dv379/v37K6urt27fNlrHXWiWZUhGmBtXp4lBEiRArEPduOABIFWpMKMCRBJhCqIQRGEgSGyOMBOpAaAJsrOz88prnw0+zOPAAIDhWc/zyZWxHToSvgAw86LqinFOwk/LqRIJuFDFf/To4f7BwWg06uW5NSaGaABARBJjRER8CMxEKkksIlbMLngXPDWNMYYAhAQAJLBDr1gjk4horZWjwEFExuMxzPe9zyZnfM7Jd1R8TnRO+jnXhZQySmszHh+U5QwAwoKNrZyMCL/wldc0TZIkSZI8ePAgS1NjjA8BAitAS8qSUgK+rsWHJEmIRULwPsRtWJqmRKrxLt47JDAAeGYJXNd1VZRN08RBThxYRKaTSfDBe//cFGpbK2PzRDz/xjXd+nkmdJbwzLVFqMhaa5LaWuucc01jjFn8PhqrT+XGrwiZfVUVk8k0SRLvPYew7OL2+v0QvHM+BK+MRiYgUorEBUgijecjnEQEAqM6+hMTorW2cda5QkSMSQEI8cVk0LvgakfCF0tCNEqJsU2SpHkym8wqwrXeeu0DnNoFHWshJ4RPoDdBpBHFex6PxyIMQEgkS4lIQizL0midpqkiEh9c8P//9s79OZLquuPnnvvqx0w/5qXVrljAUGCDYxfgShVlnOLHOP7XzA8u/2S7iH+JF6hK4QoLJsExDhUwm9jY2KmKiRPCArsSK2kkTU/3TL/uvfnhjnpHWmlf2l1wqk+ptF2j0cxsqz99zr3nnO+hSqm6Lk3BAYyjDFFqaWnHQCy/hZSyKLgxRmnt+O4dUIjb74dsrYXwjnO4cIa+6yZJYtNr9+B9EVGpKstmZVkR5BTRaN14XW1M4PvaGK210pohCsIBCSISgAIKqpiUUFX18msuF+4YY5AipYIR8L2uEAIA67tQNdrU37VrxRbC2zFKiAHgBA1lrttZGZJPPvkky9JOJ0ynU8fBWitKqDEGjWbEEAJoNAVCNCyrSRyXITwwT2KpntKAAkJc1/lsc30+Tyl1mesgBdfxm+fUShFCOGeIlBCq6hprY7QRDiMUSAF5rjhnzbsYAhoJIaAIMACtFGeO5ynkstfrVUoTiqCvlsXeUobQGKOUqlWNiFmaxb2YkIVjRMRFa0Ur+tRCeBvW1G1TSl3XzbIsDMM0zTh3pJRw93YCtYH9HIf1dYcivWZPqKpqRI1EAwDnTAiR53NCFGVUSmk9IVKbN2HGGEQrBqU4ZwwoUIFGhWEIAGVZGaQnOVeIOJ/P/Y6vavXrf/81UmSUMcpabYsWwpNyaIubPY8LITzP3d7ens1mw+EwzzNjFBA8cm/mTs1+UFprrWpVG2NqcjW8pBQRqZSSEOI4Xl1VRVEURcUYR6RAK8DK0HpRlg0gKavqWmsFAForKSUyZGUV9fqD0UpdK60VwUVtEEAjQHyzVtWV4KIX92bz2Ws/e+3jix8/8OADnW6HMkopZZRRRqG161qbojgWQtj3PJ7nci6EEJO9PUS0SfCrtNw5r7j8sloprbTW2qYTGivLygLGGK2ryhjDOHc913N91/Vd1+90Op7rOo4jpRSca2OMJkpBnudKaavZb4xZW1sTQmitKWUn0fA32pRVWav6l7/85bvvviulzPOcIrVfSLGVOryhtZ7wSBgWyjGMsXlRSSk9z62qYGtra339035/4LqeMQZA7z/z6OusqqrmeCnDcYO3NsY4QuZ53g28qqqEEEVRMEallJQyGycbY+paaaUoo9yRjHFEQgw6WgPoLEuLoiiKQhnturykaj6fWZjt5moURWtra7PZXAEeihdvhkYb55ZVpZVyPZcQ8vrrr7/11lvD4bDT7fTinud7rucKqwBHCCK2MWkL4e0bIYRSZlPhruulaRpF0QHqtAF67MXaXNZm0bKE130vBG2M0YPBgBAynU6llIiUATPaVFVttKGMNZyEUQgANh3hSg8A7D4nYzTP86Io5vPc1Hr/NoGEQJqmvV68urrKOVfGUEpv75wkScI4931flcWbb775xhtvjEajKIq63W6n23Ecx3VdKSVllBBCsR0F00J4AkMkiNRx3Kqqg6BK03Q6TaMoOk4M4kCn+TWX+PX9DKHxvlk9AAAPk0lEQVSo69oYs7K6OhwOt8ebAIBIBQrOOWVMG7P8ipRSgAXWQggAQDAAII1kTDKWI9AknVZGKQI1mCovOh2vv7KysrKiDNEHuxhvbk2oAaCsasZprxdVVfXOv1145ZVXTp853e12e3EvDMNOpxNHsed6Ukq7Jmzd4A2usfYUXN8aWWvrDHu9eHt7uyyXKrOO15M/VOZ2Q2uuViH42toa50zbirM8L4qiLEu1n7i3FXNZmhVFAQC2xLwxW/gmBLcRbFM/wDn3/e7ambO9wegk50Rr5ft+VVUXLlx46cWXzqydGY1G/V4/CIIwDF3X7XQ71g0iYusGWwhvH7z9IhgKAIiEc8YYpZwLIXZ2xo7jNORorRijlDK7CdnYcpb8ZlBUxhBKjVF1rR596BFf+lVeCxRKqaIo5vN5ns8tikppY4zWSuu6UlWt61prZMzGgZQL6XpMOIQJ1+9opOlsXindj4ePf+Vrg+FqWdYAiOZwHv+Y1IsG0JRCkk4oRaVqm6h87733Xnjh3HA4DILAddwojoIg6Ha7g8GAc+66ruCCc47t5mgL4YmBBDsElFIWBEHQ6TqOk+f5bJbZPRJlDOeiLKuyLDkXJ+ffbreORquPP/YX3W4ohEMp1wrKsi4LVVdKK6M1aGWUAq1Aa2OU0XW9XOAGALahFgCQoOBiOBx+/etP9fsr87yoq1tOoDPGe1GktWGMh2H029/+9ty5c8PhsD/oR2EU9+J+r9/r9waDQRAEdm+Wc05ZG4m2EN4ZCAkAUIqe5/u+1+n4ADAe7wAAIppbqQi5vj80iy8EwEmWPvToV9buu3+SpAYQGa80zKu6KCqlwGiiNbUo6tpUylTKSqUhIZRRhoiUUs65EMLzvVOrpx5++OHBytAgaKU1gVv9zFrroiiUqX3f/dOf/nju3N+5rpCStwSe3NqNmZvkEAkBrRWlrNvt1rXa3NzsdjuUMqXqqiodx6GUVVVJqTj5OxoAAOx63te+9sQsL3fHY2MMp1jXqigKKSWlSAjR2iiNoDRVyvY0odJ2DAvUAACccd/zfc8PgiCKoul0KoRwPLdW6laLfhDRJvr/84M//ugHP5BSRlE8XBnF4YLAXty7SiBrCbyVC6ytr72+qf3TYwxoraqqTtM0SZKPP/7Y7sjboFRKuWjVW/KLR05lOHSM1xtdhkKI6XT6+z/8fmN9I8/zKp87PqXUSCk9z+8FISIHisgZEuF7Xc/3rFy33RFRWknp2i3KJul/QD2VHP5UtnZ0/5EDn00IcfHih88//zwAhGE4Gq2EcTSI+v1+P45juyCUUgohOGuXgi2EdwFCANDa1HWd5/l0Ot3ZGe/s7MZxxIRg1kssrju8ExBipWqkVNV1EASgzUcXP7p06fKnn15UVW6gNAQYY6dPrUqro+b4nLmcS845IhpjHMfxPR8pEkKNnWCoF3O2bw/CKAo/+OC/nn/+R2VdDYfDXhSNRqMwDPvxwBLoe75N0LcE3qq14eit3LEIoRSFEFLKOO7t7OwmSeL7HXAdtr8yxNuqHd1v/Lk6D9h1u0rVeZ7P5nOj8UsPPXJq5VS/17t0+ZMsm2ZZBoZM9nIpjSx04YDvo1JGa42IruNSpABAkVaV0lrbtnckaIyB6+cq7a3BTia2YTESAPjwww9ffPGFoih6vbjrd1zft18Nga0PvP3rqvWE1zd18PQsO8PJZLKxsW6MWV093YSjnMvmyTfvCa+FUNWGEHQ9MZ/PCTDGaJnP4jie5/Pdnd29vZ1slmmlbZsCo8wY4/lex18k6K7ObDPYvL4t41welH2tJ6SwDKFqIPzud58bj7fjfjwajXpRFIbhaDQK43gYDyyBlFHP9VoCWwjvrhkNxoDSqiqroij2JntXrlzZ3NycZbMHHnxg9dQqFzxLM6TIGW8a8I8L/wghaOC4Deqm2lKbI+b42qDRLP1IKXVovbf8Ogfgv2aI4kJpbTkoRQIARVE4jlPr+vvf+16SJK7vDwaDfhzHca/f78X9fhiGoRdYHyilRFx+l/Z6uVlrT9Ut3rSIbWRHKaXv+b24F8cxF/z9999///33tdZBENx8z6E+2Q6iJid9hetbp9M1xjz33HObm5tHEtjpdBoC2+3Q27Z2TXgrBCIYDYQQyijUIKX0fK/X63U6nbqqr1y58va/vv3444+HYXit6tG+97t6bG25v0B/AaIS683sJyyK4oc//OHly5cfvP/+MI6PJpC1BJ74nLen4JZRJIAErZq1lNLzPELI2fvPjkajNE0vXLjw6aefaqPvWTOr3XQ5ybKiSccv3y8A4Mc//tuPP774yMMPD4fDhkBbIGoJ5JS2BJ7cWk94C9ZkExAJaFyEndogQUaZGRnK6Obm5m/e+82j00cfe+wx2+HKuJ0WqGFfLBEPaMwsz/c7wuwcz0MSb824eVvuWdQ3pUN17WrQGqVoP15VlVqbfr8/mUx+8pOffPCnD2yDUhAEURT3enEYhmEc+64rGHOE5JwhEtOKyLQQfi6GSACo5RDpAXwEF3/4jz9sfLbxrWe+FcXRzt5et9tVd03v6IQDBpsbBAAg0k7Hm06nL7/88nvvvffQQw+4vk85D4Kg14ujKArjOOh0pesIxoQQViSqtRbCz59DurQxb9vJHdcZj8dv/PyNp59++pEvf/nKlc9sv19z3S8dL/cH60No3TxIJ2FYa2X73xFJXs5ffvnv33nn7TNnVqNez3GcXhRFvd5VAqWUXBCKhCK242NaCL8gHBJBPPDsI5RRG5QSQnbGO7/4519c/OSTZ599NsvSL+z/QmuFSBENIp7/h1ff/tWvhsPh2tpapdRgMDh96pTr+w2ByOhJNGlaayE8kS07rUPrQ8aZYxwAkFJmswwRbSkzAPzvf//PLE2ffvrpbrc7Lworl6ZUDQCUsuMcXnOVm6PyhHaJaIwxWhM72cyYGwq5WIkN24tvq9u0rjzPT5Lc7/pS8p/+9OXf/e53g15/MOgTQk6fOtWPY9f1wjAMw1BKKRjnnEkuAEDbRWy7tXdia0/hnTiJSChSIYTtqfU9v9PpRFG0srJyZu1M3IuzNDt//vx4PPZ9n1JmOw85F7Yv/nMx24zvul6SJHEccE5//vPXX331PCAMBv0gCAaDwWg0iqI4jCOb/LQEUtreuO+wtRUzt2nXbglqbZRWADCfzefzeTbLqqpKp+neZG8ymSRJsrG+8dRffuOb33ymqqokSeywweO6Lsz+DxZlN0v9782B9YTX/u4Rf+ajKmZ8z0uzKSIORv2fvfrKuRfPnTmzGgRxEATD/ugQgV2/Ywlk2N6477C1d7U7ZnZ9iEjAc+0j2SzzOz7jzHXcoijuf+D+d959dzqdPvnkk2EYVVV12/2Hx0tR3IIlSeL5ruM4//T6P77w0kv9/iDoREEQDPuD0WjkdToNgZxSSyC2BN4Faz3hHTBzwJstDqq6StO0KAorx5RmaZIkVz67sj3eJoR852++c/b+s/k8n6SZEIJzbrSu6vraP4fR2lhdp4OLw2X1mqt/zv1KF0YpZYwiNsrBACCEsLo0WmshBCEkDLvnz59/7bVXHMc5c2ZVus5osBL3+3ZH1BJoFa4WyRhb3r3U49RC2UL4hYNwGUU7MbOqqqIokiSZzWZpmk4mk4sfXZzNZ89885mvfvWrmmCe51opyhgAXKuk2EB4iL2Db3cgNGWcw1E7Ot1utwFV1bXjOP/y1psvvviS58m43/d9Z9gfrJ657wgCuVgWlcMbFRi01kL4+UNoObRC9lYofpbNZvNZlmZplmZZtn55fbwzvu+++575q2eDIMjSdJ7nUkqtD0//NfrYqrTlHVS9FKA6joP7WQQhRFXXZVlWVbW7u5skyXg8TpJkc3NzY319kuz2+wPGSNzv+747GPRHg5VrCWSI9dLgjRbCO2vtmvAuGhIEBECQKI02iMgoswpoD37pQSnlxY8uXrr8wl9/+9tnz55VWptrytOORA4OFqBdG45maZpm2d7ubpplG+vraZaNx+MsTZMkUVrXVaW0FkLEUeT7HSnlYNR3HOf06VOO4zQEckobAi14Gtr79V2x1hPeI5tleVmWVV2VZTmdTtNpOp1Ot7a2dnZ3ZtnsqW889eSTTxJC0mlq508cyhMCgO3f9VxPm321GKXTLN3b3Uuz9PLly0mS7Ix3kiSZTCbzfD6bzTjjSNHCjxSt4AWli1EtvudzwT3Xcz0Z7Fu/35dSSuE6juM48uiLpnV/d9RaT3iPjAuOiFhZMbT9iUUUPd/7bOOzCxcuXLp06dlnnw3DcGe8Y/0h48wKRlR1led5mqZ5nu+Md/Yme9tb23uTva2tLSsKXJblLJvZQWRIUQjR6XT6/b6dA9GAR9niu/0Mnu8JIVzX9TzHEuj7/iIKlYudmNbugbWe8B6Zqg0hpFa1ldCfz+fT6dS6xK2trbIsNzc3gyB44oknHvzSg3t7e1rpnd2djfWNnd2d3Z3dJEm2x9tJkmTZzDJkAZNSup5rxxU2yEkpBRdNtSoiWvxcz228IiL1fU9w4XouIlgCOeeLdaBwkcJx7RGtJ2wh/PMzq4tBCBBc0FgUxWw+S6fpPJ9PJhNVq/WN9UuXLnX8DmV0Y31je7xdVVVZlnVVWxfHOGOMEUJsaY4QwmhjpTTsgF5YWh8yyoQQ9nFEm61Aq8W2DyH6vm8hBNCdTodSSgjxPK/Ry2khvDfWhqP3wsh+Zs1oQCTGAOPMA68RCJ1MJr2457ruNJlub2+7nts3faWVqpXSSkrJGLOwqVo1ns1xnAZCAKBIGWcUKRe8CT7tcxYx8FI4CgBSStdxbbvj1edL5zr43chu5tdaglsIvwhMEqBIgYPv+VYxTQgRRdHW9pZdpGWzLEszC6HW2gpqWNiWvZkQwvo3SqkQooGQEGIHx9vV4OJg+fGFMBy3BFrVHPvPjSQRW7sL10Mbjt4bOzKhr7SiSPM8z2ZZmqYUqd3b3NndAQC9GJitrKihDUcFFw1g1r8xzmzw2QScVn2UMooEG/CafIb1ePZ4IYVoETyQ6rjuRXOsM2s9YQvhnxWEsF9Yo7Sqq7qqq+l0aucQzmazsiy10rWqtdZSSjvdpWHPHlh+7OPNMSKWVWmfQ/ZVm+wTbB7STs9dAEGW8403fdG0ELYQ/n8CcplD+302n+V5ruoDc86aMHJZSsP3/Oa4ySiQ/fiy6fc/OCPxhiCdxFoIWwj/DCFc5lBrrZW2KNaqXkZo2fs1ZpMQy3UzjWe7oVtrIWwhbCE8gkNj9me3KN1wZYtj7NLOLt7gcKnabf3hWwhbCFsIj+QQjupRKssSFyU25Dh4bjWp0EL4xbH/A91+yfMeFYLtAAAAJXRFWHRkYXRlOmNyZWF0ZQAyMDIzLTAzLTI4VDAwOjU4OjU2KzAwOjAweC2VewAAACV0RVh0ZGF0ZTptb2RpZnkAMjAyMy0wMy0yOFQwMDo1ODo1NiswMDowMAlwLccAAAAZdEVYdFNvZnR3YXJlAEFkb2JlIEltYWdlUmVhZHlxyWU8AAAAAElFTkSuQmCC;rotation=90;clipPath=inset(1.33% 27.67% 0% 27.33% round 30%);fontSize=24;" parent="1" vertex="1">
          <mxGeometry x="1367.27" y="-40.3" width="164.46283783783784" height="360.6" as="geometry" />
        </mxCell>
        <mxCell id="MYPHkp6U98748ym2PTXX-9" style="edgeStyle=orthogonalEdgeStyle;rounded=0;orthogonalLoop=1;jettySize=auto;html=1;endSize=12;" parent="1" source="6ErnAcqJb4fMDTbfA62J-2" target="6ErnAcqJb4fMDTbfA62J-3" edge="1">
          <mxGeometry relative="1" as="geometry">
            <mxPoint x="810.090909090909" y="370" as="sourcePoint" />
            <mxPoint x="710" y="590" as="targetPoint" />
          </mxGeometry>
        </mxCell>
        <mxCell id="MYPHkp6U98748ym2PTXX-12" style="edgeStyle=orthogonalEdgeStyle;rounded=0;orthogonalLoop=1;jettySize=auto;html=1;exitX=1;exitY=0.5;exitDx=0;exitDy=0;entryX=0.536;entryY=-0.002;entryDx=0;entryDy=0;entryPerimeter=0;endSize=12;" parent="1" source="6ErnAcqJb4fMDTbfA62J-3" target="MYPHkp6U98748ym2PTXX-1" edge="1">
          <mxGeometry relative="1" as="geometry">
            <mxPoint x="710" y="690" as="sourcePoint" />
          </mxGeometry>
        </mxCell>
        <mxCell id="MYPHkp6U98748ym2PTXX-21" value="Pulsni signal" style="edgeLabel;html=1;align=center;verticalAlign=middle;resizable=0;points=[];fontSize=22;" parent="MYPHkp6U98748ym2PTXX-12" vertex="1" connectable="0">
          <mxGeometry x="0.1367" y="4" relative="1" as="geometry">
            <mxPoint as="offset" />
          </mxGeometry>
        </mxCell>
        <mxCell id="MYPHkp6U98748ym2PTXX-15" style="edgeStyle=orthogonalEdgeStyle;rounded=0;orthogonalLoop=1;jettySize=auto;html=1;entryX=0.602;entryY=0;entryDx=0;entryDy=0;entryPerimeter=0;exitX=0;exitY=0.5;exitDx=0;exitDy=0;endSize=12;" parent="1" source="6ErnAcqJb4fMDTbfA62J-1" target="MYPHkp6U98748ym2PTXX-1" edge="1">
          <mxGeometry relative="1" as="geometry">
            <mxPoint x="1170" y="1019.8571428571427" as="sourcePoint" />
          </mxGeometry>
        </mxCell>
        <mxCell id="MYPHkp6U98748ym2PTXX-20" value="Analogni signal 2-5mA" style="edgeLabel;html=1;align=center;verticalAlign=middle;resizable=0;points=[];fontSize=22;" parent="MYPHkp6U98748ym2PTXX-15" vertex="1" connectable="0">
          <mxGeometry x="0.4067" y="-1" relative="1" as="geometry">
            <mxPoint as="offset" />
          </mxGeometry>
        </mxCell>
        <mxCell id="6ErnAcqJb4fMDTbfA62J-1" value="WT-1 (pojačalo za vagu)" style="shape=image;verticalLabelPosition=bottom;verticalAlign=top;imageAspect=0;aspect=fixed;image=data:image/png,iVBORw0KGgoAAAANSUhEUgAAAkMAAAExCAYAAAB/O6bMAAAK2GlDQ1BJQ0MgUHJvZmlsZQAASImVlwdUk1kWx9/3pYeEkkAEpITekU4AKaGHIkgHUQlJSEKJISGoiA0ZHMGxICICNnRERMHREZCxIBYsDIK9T5BBQV0HCzZU9gssYWb27O7Ze87L+52b++679+V93/kHAHIoWyzOhtUByBHlSWJC/OlJySl03BCAAAwIwA7YsTlSMTM6OgIgNjX/1d7fRqIRu2GnyPXv3/9Xo3B5Ug4AUCrC6VwpJwfhDmQ854gleQCgDiF+k8V5YgX3IqwpQQpE+HcF8yf5o4LTJxhNmoiJiwlAmA4AnsRmS/gAkGwRPz2fw0fykBQ9OIi4QhHChQj7cARsLsInEbbNyVmk4CGELZF4MQBk5HQAI/1POfl/yZ+uzM9m85U82deE4QOFUnE2e+n/eTT/23KyZVN7mCODJJCExij2Q87vbtaicCWL0udETbGQO1mTggWy0Pgp5kgDUqaYyw4MV67NnhMxxRnCYJYyTx4rbop50qDYKZYsilHulSEJYE4xWzKxLxFhuSwrXukX8FjK/AWCuMQpzhcmzJliaVZs+HRMgNIvkcUo6+eJQvyn9w1W9p4j/VO/QpZybZ4gLlTZO3u6fp6IOZ1TmqSsjcsLDJqOiVfGi/P8lXuJs6OV8bzsEKVfmh+rXJuHXM7ptdHKM8xkh0VPMRCCSMAGHLraFAGQx1uSp2gkYJF4qUTIF+TRmcjTxqOzRBx7W7qTg5MLAIpnd/I6vKVNPJMQ7cq0L7cDAI9SxMmf9rFNADjxFADq+2mfyRvkKm0C4FQvRybJn/ShFR8Y5NdTA5pABxgAE2CJvB2cgBvwAn4gCISBKBAHksECpFYByAESsBgUgtWgBJSBTWArqAa7wF5wABwGR0ErOAnOgovgKugFt8ADIAeD4AUYAe/BGARBOIgMUSEdyBAyg2wgJ4gB+UBBUAQUAyVDaRAfEkEyqBBaA5VB5VA1tAdqgH6CTkBnoctQH3QP6oeGoTfQZxgFk2BNWB82h2fBDJgJh8Nx8HyYD+fCBXAxvAGuguvgQ3ALfBa+Ct+C5fALeBQFUCooGsoIZYdioAJQUagUVAZKglqBKkVVoupQTah2VBfqBkqOeon6hMaiqWg62g7thQ5Fx6M56Fz0CvR6dDX6ALoFfR59A92PHkF/w5AxehgbjCeGhUnC8DGLMSWYSsx+zHHMBcwtzCDmPRaLpWEtsO7YUGwyNhO7DLseuwPbjO3A9mEHsKM4HE4HZ4PzxkXh2Lg8XAluO+4Q7gzuOm4Q9xGvgjfEO+GD8Sl4Eb4IX4k/iD+Nv45/hh8jqBPMCJ6EKAKXsJSwkbCP0E64RhgkjBE1iBZEb2IcMZO4mlhFbCJeID4kvlVRUTFW8VCZqyJUWaVSpXJE5ZJKv8onEoVkTQogpZJkpA2kelIH6R7pLZlMNif7kVPIeeQN5AbyOfJj8kdVqqq9KkuVq7pStUa1RfW66is1gpqZGlNtgVqBWqXaMbVrai/VCerm6gHqbPUV6jXqJ9TvqI9qUDUcNaI0cjTWaxzUuKwxRMFRzClBFC6lmLKXco4yQEVRTagBVA51DXUf9QJ1UBOraaHJ0szULNM8rNmjOaJF0XLRStBaolWjdUpLTkPRzGksWjZtI+0o7Tbt8wz9GcwZvBnrZjTNuD7jg/ZMbT9tnnapdrP2Le3POnSdIJ0snc06rTqPdNG61rpzdRfr7tS9oPtypuZMr5mcmaUzj868rwfrWevF6C3T26vXrTeqb6Afoi/W365/Tv+lAc3AzyDToMLgtMGwIdXQx1BoWGF4xvA5XYvOpGfTq+jn6SNGekahRjKjPUY9RmPGFsbxxkXGzcaPTIgmDJMMkwqTTpMRU0PTSNNC00bT+2YEM4aZwGybWZfZB3ML80Tzteat5kMW2hYsiwKLRouHlmRLX8tcyzrLm1ZYK4ZVltUOq15r2NrVWmBdY33NBrZxsxHa7LDps8XYetiKbOts79iR7Jh2+XaNdv32NPsI+yL7VvtXs0xnpczaPKtr1jcHV4dsh30ODxwpjmGORY7tjm+crJ04TjVON53JzsHOK53bnF+72LjwXHa63HWluka6rnXtdP3q5u4mcWtyG3Y3dU9zr3W/w9BkRDPWMy55YDz8PVZ6nPT45Onmmed51PMPLzuvLK+DXkOzLWbzZu+bPeBt7M323uMt96H7pPns9pH7Gvmyfet8n/iZ+HH99vs9Y1oxM5mHmK/8Hfwl/sf9PwR4BiwP6AhEBYYElgb2BFGC4oOqgx4HGwfzgxuDR0JcQ5aFdIRiQsNDN4feYemzOKwG1kiYe9jysPPhpPDY8OrwJxHWEZKI9kg4MixyS+TDOWZzRHNao0AUK2pL1KNoi+jc6F/mYudGz62Z+zTGMaYwpiuWGrsw9mDs+zj/uI1xD+It42XxnQlqCakJDQkfEgMTyxPlSbOSliddTdZNFia3peBSElL2p4zOC5q3dd5gqmtqSert+Rbzl8y/vEB3QfaCUwvVFrIXHkvDpCWmHUz7wo5i17FH01nptekjnADONs4Lrh+3gjvM8+aV855leGeUZwzxvflb+MMCX0Gl4KUwQFgtfJ0Zmrkr80NWVFZ91nh2YnZzDj4nLeeEiCLKEp1fZLBoyaI+sY24RCzP9czdmjsiCZfsl0LS+dK2PE1EJHXLLGXfyfrzffJr8j8uTlh8bInGEtGS7qXWS9ctfVYQXPDjMvQyzrLOQqPC1YX9y5nL96yAVqSv6FxpsrJ45eCqkFUHVhNXZ63+tcihqLzo3ZrENe3F+sWrige+C/musUS1RFJyZ63X2l3fo78Xft+zznnd9nXfSrmlV8ocyirLvqznrL/yg+MPVT+Mb8jY0LPRbePOTdhNok23N/tuPlCuUV5QPrAlcktLBb2itOLd1oVbL1e6VO7aRtwm2yaviqhq2266fdP2L9WC6ls1/jXNtXq162o/7ODuuL7Tb2fTLv1dZbs+7xbuvrsnZE9LnXld5V7s3vy9T/cl7Ov6kfFjw37d/WX7v9aL6uUHYg6cb3BvaDiod3BjI9woaxw+lHqo93Dg4bYmu6Y9zbTmsiPgiOzI85/Sfrp9NPxo5zHGsaafzX6uPU49XtoCtSxtGWkVtMrbktv6ToSd6Gz3aj/+i/0v9SeNTtac0jq18TTxdPHp8TMFZ0Y7xB0vz/LPDnQu7HxwLunczfNzz/dcCL9w6WLwxXNdzK4zl7wvnbzsefnEFcaV1qtuV1u6XbuP/+r66/Eet56Wa+7X2no9etv7Zvedvu57/eyNwBsXb7JuXr0151bf7fjbd++k3pHf5d4dupd97/X9/PtjD1Y9xDwsfaT+qPKx3uO636x+a5a7yU/1B/Z3P4l98mCAM/Did+nvXwaLn5KfVj4zfNYw5DR0cjh4uPf5vOeDL8Qvxl6W/EPjH7WvLF/9/IffH90jSSODryWvx9+sf6vztv6dy7vO0ejRx+9z3o99KP2o8/HAJ8anrs+Jn5+NLf6C+1L11epr+7fwbw/Hc8bHxWwJe0IKoJABZ2QA8KYe0cbJiHZAdDlx3qS2njBo8v/ABIH/xJP6e8LcAKj3AyB+FQARiEbZiQwzhEnIrJBEcX4AdnZWjn+ZNMPZaTIXCVGWmI/j42/1AcC1A/BVMj4+tmN8/Os+pNh7AHTkTmp6hWERLb+boqBugxXg7zap9//U499noKjABfx9/ideLhfkonZsxwAAAFZlWElmTU0AKgAAAAgAAYdpAAQAAAABAAAAGgAAAAAAA5KGAAcAAAASAAAARKACAAQAAAABAAACQ6ADAAQAAAABAAABMQAAAABBU0NJSQAAAFNjcmVlbnNob3T+mxHeAAAB1mlUWHRYTUw6Y29tLmFkb2JlLnhtcAAAAAAAPHg6eG1wbWV0YSB4bWxuczp4PSJhZG9iZTpuczptZXRhLyIgeDp4bXB0az0iWE1QIENvcmUgNi4wLjAiPgogICA8cmRmOlJERiB4bWxuczpyZGY9Imh0dHA6Ly93d3cudzMub3JnLzE5OTkvMDIvMjItcmRmLXN5bnRheC1ucyMiPgogICAgICA8cmRmOkRlc2NyaXB0aW9uIHJkZjphYm91dD0iIgogICAgICAgICAgICB4bWxuczpleGlmPSJodHRwOi8vbnMuYWRvYmUuY29tL2V4aWYvMS4wLyI+CiAgICAgICAgIDxleGlmOlBpeGVsWURpbWVuc2lvbj4zMDU8L2V4aWY6UGl4ZWxZRGltZW5zaW9uPgogICAgICAgICA8ZXhpZjpQaXhlbFhEaW1lbnNpb24+NTc5PC9leGlmOlBpeGVsWERpbWVuc2lvbj4KICAgICAgICAgPGV4aWY6VXNlckNvbW1lbnQ+U2NyZWVuc2hvdDwvZXhpZjpVc2VyQ29tbWVudD4KICAgICAgPC9yZGY6RGVzY3JpcHRpb24+CiAgIDwvcmRmOlJERj4KPC94OnhtcG1ldGE+CnSEm70AAEAASURBVHgB7Z0HmBNV18cPLMvu0nuV3qVXQUCqHSuC/VOKosiLFURRUBFUBFGKIlZUbKhYUJrii9JsCCr1VaR3lraFZSnf/d9lZifZbDbJJpNJ8j/Pk82UO7f8Jps5OffccwqcUSIUEiABEiABEiABEohRAgVjdNwcNgmQAAmQAAmQAAloAlSG+EEgARIgARIgARKIaQJUhmL69nPwJEACJEACJEACVIb4GSABEiABEiABEohpAlSGYvr2c/AkQAIkQAIkQAJUhvgZIAESIAESIAESiGkCVIZi+vZz8CRAAiRAAiRAAlSG+BkgARIgARIgARKIaQJUhmL69nPwJEACJEACJEACVIb4GSABEiABEiABEohpAlSGYvr2c/AkQAIkQAIkQAJUhvgZIAESIAESIAESiGkCVIZi+vZz8CRAAiRAAiRAAlSG+BkgARIgARIgARKIaQJUhmL69nPwJEACJEACJEACVIb4GSABEiABEiABEohpAlSGYvr2c/AkQAIkQAIkQAJUhvgZIAESIAESIAESiGkCVIZi+vZz8CRAAiRAAiRAAlSG+BkgARIgARIgARKIaQJUhmL69nPwJEACJEACJEACVIb4GSABEiABEiABEohpAlSGYvr2c/AkQAIkQAIkQAJUhvgZIAESIAESIAESiGkCVIZi+vZz8CRAAiRAAiRAAlSG+BkgARIgARIgARKIaQJUhmL69nPwJEACJEACJEACVIb4GSABEiABEiABEohpAoWcPPrk5GSZMWOG2cUCBQqY28HcCFW9weyjp7rY75xUyCQ6mITyPoay7pz0g3eE/c7JkkxcmUQCjwYNGkiPHj1cO+6APUcrQx988IHMmTNHunTp4jOqSPgweBoM++1KhTxceYR6j7xDTTi7/lCyDmXd2SMI/hb7HXym3moMJe+86r7ttttkx44d3roXlnOOVoZApFevXjJo0J1hgcNGSYAESIAESIAEgkdg9uzZwassiDXRZyiIMFkVCZAACZAACZBA5BGgMhR594w9JgESIAESIAESCCIBKkNBhMmqSIAESIAESIAEIo8AlaHIu2fsMQmQAAmQAAmQQBAJOFoZyssrPYgcWBUJkAAJkAAJkECMEnC0MhSj94TDJgESIAESIAESsJEAlSEbYbMpEiABEiABEiAB5xGgMuS8e8IekQAJkAAJkAAJ2EiAypCNsNkUCZAACZAACZCA8whQGXLePWGPSIAESIAESIAEbCRAZchG2GyKBEiABEiABEjAeQSoDDnvnrBHJEACJEACJEACNhKgMmQjbDZFAiRAAiRAAiTgPAJUhpx3T9gjEiABEiABEiABGwlQGbIRNpsiARIgARIgARJwHgFHK0NMx+G8Dwx7RAIkQAIkQALRRqBQtA2I4wkxgTNn5PSpU3Lm5En9Hle4sBSMjw9uo6qNHFKggIj7cRzzV9zrwPXe6vG3vL/9YXkSIAESIIGwE6AyFPZbEDkdOHH4iCy49rocHU6qUF6K16olJWrXlhJ1akvZ5s0lsWyZHOV8OZCZkiLzr7zGpWiz+++VEnXrytJ7/uNyvPXjI6VKt64ux/La2TjzHdn0zntmsbiEBLls3lxz333j92efkx2LvjMPF69ZU7q++Zq5zw0SIAESIIHIJ0BlKPLvYdhHkL5vv+C176efdV8Klyghbcc8KWWaNgl739gBEiABEiABEsiLAJWhvAg59Dz8qQoXTpD4+EJSqFAhKVgwTk6fPiUn1fRVZuZJOXEiQ80qeZhusmE8J44elZ9GPCqdX54qxWpUt6FFNkECJEAC9hLA925h5SYQF5f1HYzW8f2LF75/Tyl3AkrkEKAyFDn3yuxpgpraKVasuPonjDOPZW3gnzNBb+If8dixY/qf0q1QcHeVUnZOzx5yYNUqOX4w2az7ZHq6bHh7prQZ/bh5LD8b8E0qWrWKSxVxSUku+9whARIggVATKFiwoPr+LSaJiTm/f+JN/8nikp6eJikpqepH6elQd4n1B4EAlaEgQLSziqJFi0rRosXybBKKUqlSpbRChH/KUAksVC0feVi2fjVX/pj0kkszqdu3u+xj53RmpqSo41CWilWrJphS80VK1K4lXd96w6VogRzKoEhmaqqk790rBdQXVtGqVX127oYV7di//ypfanVdtXOkoPrV54/oqcK9e6RIpUqSWK6cd6dsfypmWRIgAccQwPdq6dJllCU+74XYSUlF9I/TQ4eSldWeCpFjbmIuHfHvGz+XSnjYHgKwCPmiCFl7U7x4cWWuhdn2hPVw0LeTKlTIUeeZ09nTdBnJyfLnlGnar+jU8eNm2TKNG0vNq66QKj26K0Uk99VhhzZs9OpAfWzrVtnwxluyZ+kys244R1ft2V1qXXO1du42T7htQDn7ddSTgjogcAhv//xzWllzK+qye1qZw3d+u1j++Xi2HNuyxTwHC1aNK66QGr0uk0JFipjHuUECJBC5BPD9VLJkKZ8UIWOUUJ5wzeHDh8LmtmD0he/eCeSt3nq/nmdtIgCLRfHivllR3LuE67wpGu7lg7V/Mi1VV5Vx6JAsu+8B2b3kB7EqQjiZvHatrBr3rKyf8XrAze7+can8cMddLooQKjuVkSHbvp4nP951j+z/7TeP9Z9R04mrxj5jKkIoBCvPX5OneixvHIQi9NPwR2T1+OddFCGcT925S9ZNf1V+eWy0oByFBEgg8gkUKVJU+2f6OxJMnRXhjyJ/sdlensqQ7cgDa7BIkSS/fpFYW8Gvk8TEROshW7bjlVUKsvmTzyR1x06vbcK6cnTzZq9lPJ3E9NaaCS94VTqgkKx+9nk57cE6hnNHNv0vR9XJf62VM15M2zsWfSsHVq/OcZ31AM5vn7/AeojbJEACEUgAPybzo9BAkcIPWopzCfDuOPfeuPTMk7OeS4E8dhIS7FeGStarp3u1/9dfXXoXX7yYdJo6WTCNZYpSavYuX2nu+rpxZNMmyVSO4lYpUrmSNBzY33pIOXcflEPr1rscM3bilR8W/JesAqsSYh7lJru+/6/LKSh+F0x/WU3H1XI5vneF/2NyqYA7JEACYScAF4X8WNdxbWKi5fsu7CNiB9wJUBlyJ+LAffyigHUnP4JloKEUOEa7S1UVEBHWlaN//+Nyqvqll0jpcxvl8KeBwuKveLLqtHlitFTq0CFHVZ6mrOAoXaZZU6ndp3eO8t6+/FJ37HApX1yFEChZv54UqeK64u34Af/H5FIxd0iABMJOoFCh/EfZD0YdYQcRxR0I7RMyisHZObSCBXN3LPa1H76sfvC1LpdyyqKz+dPPZPd/f3A5XO+Wm6V82zYCn5wc8Y5yMRe7W3hcKsxl58RRV6sQikGJ8TTFVaBQToUSK9LajR0jW+d+nUsLng+rYbuKatOTZB476ulwwMd++ukn+c9/hprXn3POOfLZZ5/q/SeeeFK++eYb89xFF10kTz89xtz3ZaNTp87a2b6qcgKfM2eO10umTp0m77zzji4zceIE6dy5c67lVygL2b333uvxfK9el8uoUaNk4cKF8sMPP8jKlT+pWFmZco1yfL/mmmukRo0a8u6778qUKZ79uAYM6C971QrCuZZ7iFWX9ZVyeuutt0qnTp08tsuDJOArgeB8B3v+jvC1DywXWgJUhkLLNyi151AmAqg1GHV4ahb1rp32ij6lTcHly0uhokVk78qV0rD/7Z4uyfWYu3N1rgUtJwol5Zz+Q582qbQb7lJABaa0W05aVs4Fo+3jqr6tZ1e9ob7taiVciprOQ9yTlYq59dyBAwf8bnLbtm2SoaYIfRGskDHaS1ehErzJMaUUGmXdy2GpMpSlW2/9P31KK7PqHj7zzLMyYcJEWbz4OzmorIa5XV+9enVZt26ded64Hse+/PIrpWQtkKZNm7o3y30S8JlAML4/g1GHzx12cEGncqAy5OAPjdE1xKjAKz/WHURFDbXgQ56+b59upkK7ttqpGQ8md8Ey+8MbN+VwekYCWH+lprIe1LjyCvOyk2lp8scLL8qeZcvNY8aGp74Y5/L7jrhJGJO7dQuWsVAKPhd//PGndOjQXv73v5yO4EbbqSr+0mrl0I2VLQ0bNpQSlvhOO3fulB1q2q9mzZpGcZf3oyqi+MaNG+XIkaPSvHkzKa8UXn/FGtqhbdu2StEZZ1ZRTflrTZkyxdx/8MEHtWIze/ZsbSF6++23Vcys0ub5Sy+9VB588AFzv57yTZs/f765P3DgQGnVqqXcffdg/X8zXzmxUxky8XAjAAInT+b//9iO7+AAhsZLzhKgMhQhH4WMjOOCIF6BCsLDh0SUslPlgs6yR/2yt67W2vfzL7J93nypftmlOZrFSiy83AWBEv0VKDgFzvpD7f7hR72kPW3PXs/VqLKhEvhF/Xj3PTmqt8Ma9ccfa9RUUnVtIcrRAXVgvFr+P23aNIFVCQKFaMCAAfLkk0/IPqW8tm3bTqcOgF+ZewqBGTNmyNix48xrcX3Hjh3V9NhMbPosmPYypEqVyjmUk8MqCbAhhQvHS926dYxd2b9/v4qvVdTcr1evbo7rzZNqAz8afv45K08ejmOMFBLID4Gs78/i+anCZ4trvhrhxQET8P/pE3BTvDA/BNKUxSNQ86K22OQxjRFo36CMtFYpNxrfNShHFXuWr8hxzNuBuACX/yPq9K9PPKVfuSpC3hoO4blAx+RPl9as+UNZbjZ5vGSTWm03ceJErcxACalfv762tkyfPl0wJXbjjTeZClCvXr1crI/4JTtu3DP6WuRgatOmjW5j2bJlLr5JHht2O3jiRLYyhMCh6PNy9fk4pGJQQTDVZ0haWrr07NlT3n//fWXN+l0mTZqk/Jiyr8eU4C+//KLOrXFR0ozr+U4CwSaAHwnHj3ufCvbWJq51/6HhrTzP2U+AliH7mQfUIv6RMNWBB4G/kpJyLOTh4JMqVczRrdx8gBCVOb5Y9i9940KksvBXsELs5xEjdfBG41ooaFW6dZWdi783DmW9q2m8UElBZW1JKF0qR/XFVGqPUAssQ5i+8iR///23ebhPn77qc3BKoCBB4FNk9Q+aPv0VmTdvnvmlDT8dwxeoXbt2ctVVV8qvZ8MkHDmSbckxG/CykZmZHQH9448/1ooOipcuXVo++OB9l35MnjxZXnzxRV1bVZVS5ZtvvlYKXPb1zz77nPl5xv/DggULvLTMUyQQHAJQ2JH70V93BfzPWZX94PSGtQSbAJWhYBMNYX1pKqIzpjL8CaCIh5nxQAth1/SqMff6cwsyVuOKXnLuoDvci+t9b7F9PF2wT608QhRrq5Rq1FCqqeX77spQoJY1a925bZdq2EA6vjQpt9MhOY5UK0jGu3nzv/Lb2QjbmE6C0uxJ8vKZ8nbe2zlPbbkfc7fslCtXVv5WU4uwDL355lumAuZ+HfyZcD4zM9vnDavLDh8+rK/FQ4bKkDs17oeCAPzzjhw5rP3XfP1/wHcOpoBxLcXZBKgMOfv+5Ojd0aNH1IPjZJ45yvBPiIciFCg7xF8lBn369ckxLg7HFZT1ofpll/jV3RPKudddGt8zWOBI7S5n1C+0UMvGt2cKolcbAmtX84eynX2N48F4b9WqlSxZskR/0S5cuEhX2UzFTMLKrGALrERr164LuNomTRorh+a71XRXhmzZskUveb/99n66PiQStj5c4BwNJej99z/Q59F2N2XpQwRg+M51795dKX+rTOsRFEIKCdhBAL5vUOCxACGv2G0oi1WUdJy2487kvw0qQ/lnaHsNUHLgDJuUlKScYQvrf0o8TKAAnTyZqX1CYA2yc47a6jxtADkj3qelktUqKOQtMwTTZ/4qQ56yy8epKatsO4JRu8iZIKwIya7N89ZRZaU5sOp382SCmgYKlWBVFpQhiOEc3aJFy5AoQ1imjlegsmvXLmUJ+p++HKvBrIK+W62dcPDGZ9sq//67Rf75J2vKD/5LcLKmkEA4COA7Njn5oP7MYtoMSpGhGEHxwXlMP1unoMPRT7bpHwEqQ/7xckxpKDrWeWhDGQpXB6GIucuZU/6ZhkO+DF19UdktoRxT69attf+C1QTfsmWLkAyxUaNG0qdPH7WM/w9dP3yHsCTeV1mlFMRFZ1cQ1qxZU8qVK2e5FKkKXJUfy0m9uXz5chVvaLHevuyyy9xPc58EbCcAJd74EWJ742ww6AQcvZrMajoP+sijrEJPyoidQ/RkofFXEfDkVB3MMXhKGaIjVXtQ5ILVLvKwhUpKlCiuYwYZ9SNlS6ji6UB5Ka7G8vnnn+tXnTp1jWZ9evf2+UxSgTMxFm/i7Xpv1/EcCZAACfhCwNHKkC8DYBlnEMAUl7sgACHSXbifO4oVTkoBqXvTjS6XFFWpJYIhP97zHymqViG5i6epPChIf740RfyNceSuuGUcTNbNVe3R3aXZolWDMyaXSi07mCozBMEH85NZ26jHl3d/0xNUqFDBrNZ9+hYRqPGyilX5wY8irDqzivt56zlsI46SIdYpOOMY30mABEjASoDKkJUGtwMmULhkyRzXGv5AiEZtlQO/r5Zvb7xFpfF42XpYyjRp4rLvy07lLhfkKAYr1ZKBd+Y4nttS/y0qZcOaCS+4lIdy5C1GkPuYUpVPDMa06qmnXeopoxyHQyltVf43QzxNkVWpkq0UYmrLmj8MS4SRjduQuXPn6rxkxj4UEPjvQOCv8/vv2b5QSIHhjzRunM3h66+/kY8++ti8vHLlSiqqdfa02XvvzVLL6eeZ57FSrk6d2ub+888/Lx9++JG5v2hRlvO4cWDp0qVyxRVXGrvy119/mtvcIAESIAFPBKgMeaLCY34TSLI8zIyLscLslHIkRI6yOMtDF1NTRtoOo2xJFVW4TFP/laGM5EPiPkWH1BhJFbMtEUYbnla8FVTOuGUsD2qjbFEVHwixg3KTujdcL0kVyrucTlfJQq0Wi3gVA6faxRe6lAn2DuL/GNK8eU5/IcQfuvJsuhIoCX37Xq+Lt2zZUk+pzZnzmRk3ZcCAgabyg0JwVL7nnnt0+V27dpuru84991xBgEZ/pItSWnv37q0vQVJVxDOCtGjRXPWpr1x99dVmrCQEg9yzZ48+f/75HVQC1q+kX79+5pQg+oKcbLAYDRo0SNX1jS5r/FmrQi1gxQ/6/8ADD8gnn3xinOI7CZAACXgkQAdqj1h40F8CRdS0VNunn5JfHhvlcmnyn39J+Tatpe1TT8hqZX05rlIruEv51q2k5aMjtFLj7+L3IsqqULVnd9k+f6FZbREVALLliOHyw6DB5jFsZKaqJdwFC7gcwwO1ydAhsnTIUDF8iqBc1XObwnO5SO3Eqxg/56n8WqvGPiNHN292Py1Fz6kqrR9/TBIDyOOVozLLASgxCEIIadCggQ7CaezXrVtXT5MZ+7DsYHyINj18+HD5888/dcwpKDNNlBUOPkZYIvzbb78KFKWEhESBdQnpL6BIQEaMeFhuUIof8p8heCfabNasmT4PBcVYGZaXDxHamjZtqjz00IO6H1BWGjZsJK3VvTesT19++aWOKr1Z8Txz5rRKyVFX5RjLOo/4Sd9+u0jnX9uwYYMex/nnny+1atXS/bz//vvl//7v//S28adKlSpSuXJlY5fvEUgAnw1YL7Fq1t9gh8EcLhYpIL9eoJGk8X+I/ymMIz4ej13X76Fg9tVbXfixhtAscPy2psjxdk2snCug4ORcBuSQ0eNLHF/MgwblnPJwSBdjqhuI9nzIEkPHGHxZ9esegmXlmW5xf4qoFBBJZ/1F4FCdsm27HFEJRTNU0LziKnhecfUw01Yl9WUBQRkoUFaBlaaQWmp9ZFPW0mzjXLGaNSShlIr6rD7CB9XDer+KPQMLE5QrlD+oUj5YJVFZcpArLP2s1UGfU1NFZVVsHihpu5cuE8QtqqQesqgHkrJVZXFXD25D4pSzbymlEJii2k5Vlgr4QaXu3i1F1cO3eO1a2mfJXz8ks05ukAAJ6Fhq1px0TkCCx+Xhw4f8UiTwQ6BkyVLm8nsnjAN9QIon/MCxW3r06Kl/ENndbl7tURnKixDPkwAJkAAJ2EoACwGKFfO+wtDWDlkag5UIcYasIS0sp102YREqU6astsK6nHDIDoJC2pGhwDpcpypDnCaz3iVueyVw5513Cvw1KL4TwEqmTz6Z7fsFLEkCJKCCbuZcneoULJiug8XKl8jnmHqGZcipAoUTU2YOniCyDR2VIdtQR35D8Bv5999/I38gNo7ArqXuNg6JTZFASAkUKhTvaAUCg0fkaZG8p5gSE7NXa4YUWoCVG75MjJYtwtVkAX6IeBkJkAAJkEDwCeAB7XTx1Zk7t2TVThpfQeVHSRGhZYifAhKIIAKI9fPBBx+aPUaOrvLlK8jFF1+kl55jGvPFF1/U51u0aCE35bEqbsKECbJvX9YKv/Hjn9PXoY0sP4ICgqXtvsjUqdMES+IhY8Y85RK/yP36F154QS2d36sPP/vsMzrFh5GUFQdvuukmveR+1KjR2oSP5fc45k0effRRlRPqlPLPKKNXwHkr+80338h//7tEF7n99tsEq+vcxV8GWOo/ZcpUXU2hQnEybtw49yq97r/22mtqpZwKRqpk5MhH5fnnJ+jVS6VKlRSMLb/y119/ydGzixsQqNNYwZffenk9CUQLAUcrQ5HwCyFaPggcR2QQwLLzmTNn5ujs+PHj5b333lWKUXnzPB5+eSlDn3/+hV6ujgoNZeiee4aoIIv/6NUvO3fuyNGWpwNQMBAcEfK4CilgDeboXn7lyp/MBLPDhj2kt61jqqdW8tWqVVNeffVVfWnRoq4hEtzrwz4CNcLUX0OtUEQ4AG+yatUqk1HPnj08KkMGA/h77Nq101t1+tyBAwfMOjF2f5WhhQsXyQ8//KDreuCB+1VMp/cFCZmrVq0SFGUIiuWyZct0/QhCic8JhQRIIJuAo5Wh7G5yiwRIwJ1AnTp1VJyfSwRWGWTLfvbZZ2XWrFny2GOP6aL169dzvyTH/t1336VWxmSHDshRIAQHzrGkXdm9e49pETGa2rFjp8pwn2UlwbGaKoSCVeDs6f5DCQrQKZUYOK8cZ9Z6nLw9fPgwtXz7pI4j5d5PT+M3yng7Z5ThOwmQQE4C9BnKyYRHSCAiCGCqo02b7HQcUGpgoZg6dap+wdoAa8nEiRN1sMTWrdvINddcq7Yb6tcaFYdp1qz3zfKY5sK5LVu26PFDwcI+ptIgyDp/+eW9VDDEeipoY1PB6kL3VBi6YB5/qqm4UYbs2bNbKUObjF39DmuUMWWEA7D24CGPtv7zn6G6Tx07dlQBHIeZ5aZPf1WP491339OK4ciRI1VwyOYqqjWmCm/S12As77zzjktbL700WZdp0aKlPPLII3qqz8oAedSsDFwu9rKD/uM6vDp16qSDR4Ib+nLkyBG9LNtg2b59BzUO1xhaM2bM0OMxLGbr169Xyu5z0qVLV6ldu46KKn6Vth4ZXYAl6eKLL1FpS7ICVQ4dOlRgAcP9Rx9+/vlno6h07NhJhg0brvcXLlwo/fsP0HU2anSu3HzzzfLLL7/oc5dccqk5hgsvvFDfd3BfvPh7sy47NxBZvEuXLtKtWzc9fYq2MeWKY/fdd5/uCj6T2Le+EK8OQT5xDKlcDHnuuefU5+k/ehdTkUOGDDFOqajnc3X55OSsnIPmiSBu3HDDDXLdddepIKpZEdR37Nih93EMK9WQFBnb1tett96qe4D/aURfN/L8YVoX5fDZgoUR2xgzBBZG7ONeU3InQMtQ7mx4xo3AsmVLHbcEc+PGTWoa4RH1cDmjpibGSqNGjdx6HTu7sJZAgTmsAlpC8CUIhWn8+KwHQFxcIVm3bq06f0SfRyRaTKUZ5TG9A38STKcgIBvqw/4551TTStZtt92mv3yLq+jb8Cn64osvdQ6x339fpevz9Y+rZWi3sgL943Lp9u1QhrIVJChD7733nlZ+ULBmzZqyVQXDxHWrV6s8dyoyNcaAB39JlSMPD/7XX39D14n91avXmGNEGasg7QfSg0DZ+vjj2foBkxsD63V5bZ8+fcpsEywRYgEPuO++Wyz33nufIHEtcsVB4Oe0b98+lypxj3D/ihYtouo5Ipdddrm+J1jSjajhP/30k37B3wn3/P77H9DXl1JBSHG/kPsN+d2uu663vodoy3g4wpcMud5wn2+9NStqdxUVHBXXffvtdyoH3WqlEP2s+pv92cBnAf3HCw9h6/1x6XgId9A2HvToy4oVK7RSBGURkdWN5etQChBZGZ9VQ5AXD9GjcS2uu+yyywTHNm3aZFogoWgdPHjQuER2qwCqKA9lCPcnFDJnzhzdV/zfoU9Q9j/77DP9WcQU8caNG+XTTz9Vymp/s3lj+nnlypU6zUzTpk21EofPMcpOmzZN/W9s1dtTpkzR12HsOHfBBRfIRRddZNbFDVcCtAy58uCeFwL4wilUqJAjXvgHf+aZZ9Sv4YsFPih4AOKX7JgxT+tfjU7pJ/oRToESYQjyjBnpM4xj1veKFStqvyMjhQXuN/yQkI4DfI1foeXKlRNYCiB48Lg/yK11etquVq26eRjWixSVw84qO3fuNC0+6AOUJ8NahXJw0EZKEIiRYkTvnP1jTTOAvGfIT5abPKNSqjQ9mxMP/Sim8slhzAYDrBoyGORWR17H4dxu+GOhLBQRgyX2p0yZrBUWbHuStWv/0ooQziGlg2EFwT7Gb/hqYR+fN9wfCJQHKAXov9VJHGlR7rrrLqUMZFujhgz5j8kBSgF806zy3XffmgpH2bJlrads34Yis3jxYp2dAOM3PgtGR+rXr6+Uw/vNlzU5MRSpwYMH+/yjzvpZMuoP5nvDhg31WKCMY0zYtwr6+8Ybb5ivl19+2TyN/w1MiUNx80WsnzlfysdaGSpDsXbHo2C8MCt36tRZTSNM0w9jY0j4hQyTOM7BakFxJWDkG3M96tsept8MQX6y/Ih1muzHH380qzKWK6MtrH6CVFU572DdcpeEhKzcaTgOy4s3wYo7bxLqSMd4oOWVVsLXe9OpU0cX53SkKzIsfRgjHLcN6wH28T/hqyBAoCHwv7IK4mUZ98d6PBzbsHBAcfj++++1lax169Yu3fjiiy+0QgilEC+UM2TYsGE6D58x/Wgcz+091D9munfvrpMSr1u3TvcT+1aBkgRF1nhZp/JQtlKlSl6VfWtdUJ4ouRMI78/W3PvFMySQgwB8WjC3D98Vb4JfSvAdgDMxfvnD0ZiSPwLwvxky5B5dSalSpdX0QrZVwd+a8QWOhwwe1Dt37tKXJ6lccpgOQxJWPABgHYLgmLscOHBQTYmdMA/DShjL0rlzJzUNlDX9h7xZoQr02bx5c3XPMqVKlaphxQ1lCKEIkNgXPkzuiuR5552nwhOMNPuIqSTDKoLymOZD4mIk+s1NLrnkEn0K06yhFPQNK/teeeUVbemCfxmmuqwCXzZDrFPMUHphKerZs6dpyTTK4R0WMlgHDcsr/scouROgMpQ7G55xCAGYqvEFMWnSi6bjpC9dW7JkiXTt2k0wPXTfffdqvw1frmOZnAQQ66dixQrK8vCMuhcv+zzNkLMm0dMtmIZCbB5DkH0eLyhDVvGkDGEKJJbliit6mfGfSpcurf2koGA++uhIbS0NFZuvv54bqqr9qhcKBCxtH374oYwdO1bgeGwVsMD0uVXgF2YIVl1CkcLLmELD9Ch8dKCIw5IHfy1YUkI9JYi2unbtqpW7du3a5bAg4rzhNG303/oO6xCc3g3/IOs5KIwQQwmCrxkldwJUhnJnwzMOIIBplBEjRuRwsvW1a7AaTJo0STsm4ovzwgt7+nopy1kIYJXKunXrlZPxxzr2DawPWDEVqGCqzKoM1a5dW8cWcq/PkzKEaRE4IBsSKkuIUb/T3vfu3accgZfrbrVs2VI7/iL5JaYLMZ2CBKLuSqXTxpCf/kBJgQUFK75gJcJn0ir4EWSdbmrfvr1yWr/XLAKlACsur7nmGvPYjTfeqFfnXX755Urph+/ce9p/x46pJfR19uzZLn02OgblDCsDrWKs7jSOYWXZ119/bTrIQ6nq0aOH9qlEiAo4ZcOK9NFHH8n1119vXMZ3NwJUhtyAcNcZBOCUO3r0E/ofORg9wgqLW265RTsQP/30GO2UG4x6Y6UOrEQyokDjQXTiRGa+lCGsXBJZYeKrXTvLMmQeOLvhSRmClQ+rxbAyCIJf8bEkcGZHWAHIww8P11OGht8UVoWVKFEyKpWh6tWrK0f08XpaCdNcUISgGGOFIBQeCBQHrKyyChRtrIDEtYa/29VXX60+Q6+blphevXrppexLly7Vl2LJ/oABA6zVBH0bjv2YeqxSpYq6nw+Zigq2Yc3BdB+23QXWoiuvvNL0l8QPg3fffVdFVf+vHg+UOYwVkeiXL1+uHcwxnWYwcq+P+1kEqAzxk+AoApjbf/vtmTqAoJE+IJgdnDdvno54jKkWBBz05JwbzPYisS7DURYWBkxRgpE1XQZiGy1fnq3IBDJGq+8Drq9Vq7bUVEvm3cXTMZTJzDyhl0tj2/AHwXasCZKaHjuWYg4bCuvcuV+b+9G0AaUBDtAQTG8ZU1yYZjLE25SSca1R1l3ZueqqqwQvuwSrYQ2xxj8ytjEu69iMsnh3HycsWngZ0qpVqxwxtYxzfPdMoKDnwzxKAvYTQIwQLP2Gk3QoFCFjRPgVjSmzbt26mykKjHOR9A7HSGsMFGucFE/jQMyUpk2zlqR7Om8cM+qEMjRhwkRlgVmpf1kb519++RWXKS7juD/vmCazCn69wzrkLoZlyFDQcH7Xrl3mtAccsfFLODdBPCRYsgIVMEDOMTAIlcDnBdau3MS6Ogwrx849NzuWFpxvrQo9cr7l9gA16kcMG8Q7UgYGU/7552+XGDROz7ZudpwbJBAkArQMBQkkqwmcAL7gsSQYpl48fOwSRP3t3fs6ufbaa+WJJ0a7+KHY1Yf8tIOHKCIRQ7CiZvr0V3JUlzUdlXUYpn9fpE2b1jqgH8rC1L537x4dFM649t9//xW88iPVqmGaLFtq1aqp+cMx1pj2QpJSvCD41QslDCvQHn54hD6GP127dsmxmgh1YCoB/hbw/bDGWjIvzGMDlivkZ0MdTz/9tNx44w3SoUPWVEwel/p0Gg7pRr8GD85apZfbhZhKgdMwYurAhw6RpiEYJ6IqIziiIbkldX3jjdeVD0yWEgXl7s8//1LRmyeqHwXj9A+PN954U8WyeVNXgyklp67AxNSo4RhsjDmU7/hegkN2KAR1wxfPDoE1t0+fPnY0FbFtUBmK2FsXHR3HNMwXX3yuVyo99NCDYRsUYpNgVYbTnXHhIIu8VVZJTEwSrDCCTwV8rYzzCODWrVtXHfAPvhA4jwB9VisHpgqSk7Mj76JeTCFiZZcRTLFJkyY6yOLkyZNVgMsVylE3XUfwxVQVBNaJW265WTltdtf7VkuGPuDhDyKFG/2E1Qd+D1BgEETu0KFkfYV1JQ+iJi9YMF9bNBB1GueaN28m8P2APPjgA1pRgr8Mvvhh/cDqJ0TdRnTfgQMH6nJFixZTCkRDc4UNHvpIi4D4PRDj/s+c+bZWVgwLJRh4EzwwjfHA6RbxbYz9+vUbaOXC2EeEa0zxoK8LFixQD9uKanVYR1mzZrVuAiubEFgRfKGYwPLz4Ycf6HQKiDx9/PhxbeFDkln4CMEXDhYwxGZCWhHkpPvjjz90XYbVDOPCKirjXsPihhhOixYtVDF7vtdBNVEWyhWUPrQ5YMBA814YK5K8MbDjHBTUt956y46mdBsPP/xwyJQhLKd3XwkXqoHdfvvtVIbygFtA/fI5k0eZsJ3GFxq+kAcNujNsfWDDJBDpBO66626dVgBWN6RlwIMTigemmHbsyF7eHunjtPYfVjBEJoesWZOdjgOK1+7dWbGNrOW57RwC8fGFBSEDPMn8+fOVFfcJT6dCcgwr1fAjwl3w2Ny/3zWFinsZ7JcuXcZlGtNaBnGO3J29reeDuY3cZHCq9iSIRZSe7j1wqafrAj3WQ618hJXTaULLkNPuCPtDAkEmsHnzP+pLNyvOCpYVw4qBlTjWFBFBbjLs1SGYo7G8HJYqPNCQmqJlyxZh7xs7EDgBBEM0AiIGXoszrsRKL4pzCFAZcs69YE9IICQEYjFb9cSJE0LCkpVGHgHkWcPijN69e0de59lj2whQGbINNRsiARIgARKwkwAWAIwePVqHYUDwQcQWcoL/E5yn4ftk9YsLFZctW7Zox/t69eqFqomoqJfKUFTcRg6CBEiABEjAIIDwC3Cch1UIPjGQTz75RAcmRJJW5PMKpxgRohGFHUEjQyWJiYk6vx/S31C8E2CcIe98eJYESIAESCCCCGDVHEIRYEWdoQih+0jNAyUJS8yxCtEI4RCOoSG69OHDh2Xw4MEuscKC1RcsjsCKxrffflv7zmGFIsU7ASpD3vnwLAmQAAmQQAQQgJUFIRAQUBUBRnNbKA0l5JtvvtHhDhBSI1yCEAxY9bhs2TKpW7eumRokv/0pWbKkDjSKMATMReY7TSpDvrNiSRIgARIgAYcRgNLz1FNP6Txf69atE0Rmz0sQ3wyZ7LHC8MILL7Qt+KGnfiEe2MaNG2XIkCH5shIZ1iDEL/r+++9VHKsSnprjsVwIOFoZQiwUCgmQAAmQAAl4IoBI6AjgiXxeSCacmzXI07U4hgjQSHAKy8ysWbNyKxby44h/hem9lStX6mSy/k5rQfFB3CJkqb/xxhtD3t9obIAO1A69q/v375etW7eFNEeXQ4fObpEACYSZAFZc1apVM2TRl/M7PCg9iFYOKwiUoPwIUrwcOHBA++8gu/tXX32VLwtNfvqCFV/r16/XgSWnTp2qp/u81QdrUKlSpWTSpEk6Erm3sjznnQCVIe98bDuLEPuIrrp48WL1S2WJNuEi3xTMuf7+2rGt02yIBEggqglg6Xe7du10WhcEOzTSe4Rz0MgpiJViu3fvDqoTNFKvIN0JFBJklL/zzvBkPsCMyJNPPilIodGrVy/Ztm2bx6k/WIOaNWumlTcoRJT8EXD0NFn+hhYZVyNFwgcffCjt23dQaUfuko8++lgrQug9Vj8YGcQjYzTsJQmQQDQROHjwoMybN0/lWXtY50+bMWOG/oEWrjH27dtX5V6rr6eDQrEa7NSpU9oag1VesI7ZlUjVE0/kB0S+ueHDh+t4RIbbCByvoaTCcoTEvVSEPNHz/xgtQ/4zC9oVyLuGvFFYTWAIPuRYdtm+fXuVMLGD/pVCy5BBh+8kQAJ2EICVZNOmTXp5OpLJ/vzzz9o68fjjo1QC21nq9a7HnF2h7huS3MJyg+mhUAtcFaB4hFOgAD3++OPa0RtWIihHeD7MnTs31/xt4exvJLft6ESt+BUCj/9oTNSKpZ+XXnqZIDooBL92sCT02muvFTjTUUiABEjAKQTgZIxEn7ASQRDEb86cz5RfUa2gd9FbotagNxZghfiBmt9Erf42jTbhSnHppZf6e6nX8kzUmoWHT12vH5PQnITD3sCBd2hFCJr/vffeq7P4IrMwFaHQMGetJEACgRPo2rWrjs2DFBKIagx/ndtuuz2oPjuB9y42rsSzItiKUGyQ822UVIZ84xTUUlOmTDGnxrAiAvlz4CxNIQESIAEnE4BTL9Ja4EcbYuM8+eRTIejumRDUGdwq4evpmzh/LGfO+DoW30YcqaWoDNl85zZs2CATJ76gW0VcCCQRpJAACZBApBC4/PLLZdiwYbq77777rqxatSqoXYfl3Ol+kljl64v4Ws6XukJVJhL6GKqxW+ulMmSlYcP2+PHP69UY+GWFGBnhdtCzYchsggRIIMoIYOn3ueeeK7CQjBgxIqjKCxShtLQ0xxJD/1JT845yjQGkp6c7dhzoGJLEYgUdRYTKkI2fAmjgS5Ys0S1iiShiRFBIgARIINIIJCQkyEMPPaS7vWbNH7JmzZqgDiEtLVWHFglqpUGq7Nixoz4rEFA0UlKOBanl4FYDRdapfQvuSH2rjcqQb5yCUuqXX341g2fdcMMNQamTlZAACZBAOAj07t3bbHb+/AXmdjA2YH05fPiQzjp/6tTJYFSZrzqgOCAwLqJd490fgZXr0KFkOXnSt6k1f+oOpGyWgpai4ikd9FmpC6SdSLsm9MEaIo1ICPu7cuUKs3ZahUwU3CABEohAAoiAXL58ebXEfL+OQxSKIaSnp6mppjQxAg6Gog1f6syvDxNmBRBOBe4R4RyL0jHV1CanxTzdcypDnqiE6Njff/+jay5SpIjUrFkzRK2wWhIgARKwh0Dt2rW1MoTcXqGU/CojoeybP3X7vgrNn1ojq6xT7yWnyWz8HBlmUgQqC+evAxuHzKZIgASimECdOnX06GhtiOKbHCNDozIUhhtdoUKFMLTKJkmABEgguAQwTUYhgWggQGUoGu4ix0ACJEACJEACJBAwASpDAaPjhSRAAiRAAiRAAtFAgMpQNNxFjoEESIAESIAESCBgAlSGAkbHC0mABEiABEiABKKBAJWhaLiLHAMJkAAJkAAJkEDABKgMBYyOF5IACZAACZAACUQDAUcrQ4zFEw0fMY6BBEiABEiABJxNwNHKkLPRsXckQAIkQAIkQALRQIDKUDTcRY6BBEiABEiABEggYAJUhgJGxwtJgARIgARIgASigQCVoWi4ixwDCZAACZAACZBAwASoDAWMjheSAAmQAAmQAAlEA4FC0TAIjoEESIAESCD6CMTHF5bExEQpXLiwxMXFhW2Ap0+flhMnMiQtLU1Onjzpdz8KFiwoSUlJehyFCsVLuFZKnzlzRvc/PT1Njh8/7vc4ovkCKkPRfHc5NhIgARKIUAJFixaVokWLOaL3UGYSE5P068iRI5KR4bsiAeWnVKlSgjrCLVDC4uPj1aukJCQkypEjh8PdJce0H/674xgU7AgJkAAJkIATCEDxcIoi5M6jRIkSUqiQb3YEKEBOUYTcx5GQkOBYxu59tWOfypAdlNkGCZAACZCAzwQwpeRUgXXFV0UNU3xOsAjlxhLWNyf3L7d+h+I4laFQUGWdJEACJEACAREoWDBOT+UEdLFNF8GHyRcpXDjBl2JhLePrWMLaSRsad7QyFC4nMxu4swkSIAESIAEPBCLhex999KWfvpTxgMDWQwUKOFoNsI0FKdiGmg2RAAmQAAmQAAk4kQCVISfeFfaJBEiABEiABEjANgK+ucTb1h02RAIkQAIkQAKuBA4dOiQHDhyQGjVq6Fg9OIuYPzt37pSqVatKkSJFXC84u/fPP//oOEUoY8ju3bslJSVF7xYrVkyv9jIcto8ePSp79+7Vq8Vq1aqly+zfv18OHz4sJUuWlAoVKhjVhOx9z549kpqaKnXq1DHbMMZavXp1tSQ+yw/p77//ljJlyghiByUnJ7twwDmMyTpuszJueCRAy5BHLDxIAiRAAiTgFAIDBw6U+vXry/vvv292afny5frYDz/8YB6zbvzxxx9St25dadasmUuAwXvuuUcaNmwoTZo0kSpVqggUoptuuklfOmfOHF1ngwYNBIoR5Oabb9bHRo8erfdD+QeKzQUXXKD7vWrVKrMpjBHj37Rpk3msUaNGMmXKFK28NW/eXPcTJ999912pV6+eLFu2zCzLjbwJUBnKmxFLkAAJkAAJhIkALDVfffWVVK5cWV5//XWfe4GyuAZWpc8++8zlunbt2mkFCQEUv/nmG/nggw9k/fr1ugyWm0MpWbJkiS6zdOlSQWwhO+THH3+U//3vf7rfr776ap5NZmZmyrnnnivjxo2Tzz//XMaMGSP33nuvVu769u2b5/UskE2AylA2C26RAAmQAAk4jMDMmTP19NSECRO0tWPdunV59jA9PV3ee+89eeCBB6RTp07y2muvuVyDVBSbN28WTIFB+UEQxbJly+oymHJr3bq1LFq0SKAIYR+WJDvkrbfe0m0/9NBD2gpmWKdya9tYrTZ06FDp0aOHjBo1So9n6tSpuV3C47kQoDKUCxgeJgESIAESCC8BWGhg4bnhhhvk2muv1T4yvliHPv30U+0XdOutt8qAAQO0lQcWF0NWr16tp6IwjXbHHXfIO++84+IP1K1bN/n222/1q2PHjj4tozfqDvT92LFj8sknn+jpLvT7xIkTMmvWLJfqMKUHOXXqlLZeGTGCEDgRyhCkbdu2Urp0ab3NP74ToDLkOyuWJAESIAESsJEApqqgxMBXCH4xsOjAJyYjI8NrL6AwwWoC/5snn3xSKw5vvPGGeU2bNm1k7dq1cuGFF2qlAxYgq0AZwrQZps86d+5sPRWy7dmzZ2sFbtKkSdqahYbcp8rOOecc3T6m96AQGcoRrFxjx46VatWqCfye5s6dG7J+RmvFXE0WrXeW4yIBEiCBCCcApaZly5aCaSMIVlo9+OCD2j/GmNbasGGDaQmBpQTTXnA4fvjhh6Vp06b6Oky14QWfGgimxeBrA18iKEzz5s3TK7j0SfUH1iDUtW3bNq0MwWITasEUWffu3bUlC21BGXv66adl5cqVUrFiRd08+t+vXz8xpgpfeuklue+++2TQoEF6TFDq+vfvL3fffbcel12+TqFmY0f9VIbsoMw2SIAESIAE/CKA5eKY7nrqqafM1V6oAFNa8AEaMWKEru/+++8368VScqz+gsUE/jPGknkkS7388su1I7ZZWG2g3CuvvCLnn3++PPPMM3oVFs5DoYKT9e+//y6tWrWyXhKSbawSw+ov+DkZK9vgHA1rFqxDb775pgwZMkQ7ShsKHRQg9P3tt9/W03nggqX3L7/8sraigQ+2Kb4RoDLkGyeWIgESIAESsJFA8eLFdRwhvFsFSgP8aaDIHDx40HpKJx2F/8yjjz5qKkIocMkll+iySJx60UUXyenTp83rzjvvPH0O02o4f+WVV+pzsBadPHlS50lbuHChxMXFmdcEe6NmzZo6jpLVkhMfHy8bN27UfUXfsIweCh7GDCUPMZcg1113nVx11VXanwr7WIKPFXiYRqP4ToDKkO+sWJIESIAESMAmAlAGEFTQXWC1wQvi6bx7eexDQfJWFpYjQ4yghoY/Do5blRSjXDDfMSXnqX/uimD58uUFL6u4l8G5UPfX2n60bNOBOlruJMdBAiRAAiRAAiQQEAFahgLCxotIgARIgATsJoCpH8Onxo62+/Tpo6ehQtEWnJzhF2WHdO3aVTtV29FWpLZBZShS7xz7TQIkQAIxRgBxhz7++GPbRo0VZ/DJCYVg+fuOHTtCUXWOOhE4EsoXJXcCVIZyZ8MzJEACJEACDiIAR2IsP7dLjGStoWgPK9iQfNYOQR4zincCVIa88+FZEiABEiABhxDAiq7vvvvOIb3JXzc++uij/FXAq4NKgA7UQcXJykiABEiABEiABCKNAJWhSLtj7C8JkAAJkAAJkEBQCVAZCipOVkYCJEACJGAHgZEjR+pAiJg6M16IwJySkiIIYtihQwcdeBBBCitUqKAjUCNYI8oijcXAgQPN64zr8f7333+HpPtYOWZtx9jGdNmCBQv0uRkzZphtI8/YuHHjdM4xo6z1fdGiRTpytvUYtm+77TZdB2IXWc/BbwhJaSmeCdBnyDMXHiUBEiABEnAwAawsQyRmq+8NIkgjWOLUqVPliiuukBdffFHn+EpLS5Np06bp0RjRp4cOHSrXXHONzhSPvGVfffWVPl+5cuWQjRpto11EwTYEudf+/PNPHWn6kUce0X1CYEWMD6++fftKixYt5Mcff5TnnntOp+hArjIcw/mGDRvK+PHjjeoEKUkgaOvWW2/VL+Riu/POO80xmoW5YRJwtDKElQMUEiABEiABEvBEAJGl69SpY54yIi/36tVLECPoscce0xnuJ0yYoK1FsAwZ0qxZM8Hrr7/+0hnukbvMDoGiY+0zrFaGIP3HsGHDdL4x41i9evV0zrTU1FR9CKvpYPkyBAqgtT6rMtegQQPp0aOHVoygGBqpRoxr+Z5NgNNk2Sy4RQIkQAIkEEEEjh07Jpj+MV5G8lYMAXm8jh8/Lki1gSSnTpHHH3/c7C/6bQ28OHbsWJ2IdsmSJT53d9WqVS71zZkzx7wWyWeR5gNTZgMGDJD/+7//M89xw5WAoy1Drl3lHgmQAAmQAAlkE4AlaPXq1eYBaz6xZ599VuckO3TokE5y+uCDD5rlwrkBBeX66683u1C2bFlzu3fv3oKksIMHDxZkrfdF2rRp4xKIsly5cuZlt9xyi3Tp0kX7HrVu3VpPsZknw7SBqT0nCpUhJ94V9okESIAESCBPApgm8xQYEdGdZ82apafJkPkd1hhMg9WuXTvPOkNdANNknvqMduEaAt+mxo0bC6xevggSy+ZWH5ywoXgdPnxY7rrrLuncubP069fPl2pjrgynyWLulnPAJEACJBAdBPCQxxSQ8UI2+yNHjujUE23bttVTZVAuYDG6/fbbBT454ZZBgwaZ/UW/4extFSgwY8aMsR7yur18+XKX+uAv5S5wnoa/0AMPPCDbt293P819RYCWIX4MSIAESIAEIo4ALB1YMWYVWFYwvYT8ZXAqjo+PF1hiVq5cKXv37tVL7aE8WB2Qjakkaz2h2MaUHtp2F1h14ASNc8aUGXyc2rVrJwgVYAgcoVHG6iD92muv5bAgwUcKsnTpUoFiBQGXd999V9auXaunDvVB/nEhQGXIBQd3SIAESIAEIoEAFAWrsmDts9VvBscxPWZMkSH+kFWwFN1Yjm49HuxtLG93b9vahvUc4gNZ91EOipL7sSZNmlircNlu3769yz6UMffrXQrE+A6nyWL8A8DhkwAJkAAJkECsE6AyFOufAI6fBEiABEgghgk4c3WX3TeEypDdxNkeCZAACZBArgTOnDmd6zmnnEB0Z1+WiPtSJtxjMiJyh7sf4W6fylC47wDbJwESIAESMAng4ZyZmR0p2jzhoI2MjAyfepORcdyncuEqBNbWqNzh6ocT2nW0MsR0HE74iLAPJEACJGAvgbS0dHsb9KM1WHuQ68wXQQRsJ1te0tPTfbJw+TLWSC/jaGUo0uGy/yRAAiRAAv4TgEXF16CD/tce+BVQbI4cOayW6PsWrwiKEyJgnzp1KvBGQ3QlFLrU1JQQ1R551XJpfeTdM/aYBEiABKKeQHp6mp7CQWZ6LEtHtOlwCZSfEycyVdJX/y09uDY5+aCKJZSkgyPGxWEc4UlCnjUFmanGkuFzuo9wMbe7XSpDdhNneyRAAiRAAj4RgCKRkuJbWgqfKgxTIViIoNzhRXEmgfCp2s7kwV6RAAmQAAmQAAnEGAEqQzF2wzlcEiABEiABEiABVwJUhlx5cI8ESIAESIAESCDGCFAZirEbzuGSAAmQAAmQAAm4EqAy5MqDeyRAAiRAAiRAAjFGgMpQjN1wDpcESIAESIAESMCVAJUhVx7cIwESIAESIAESiDECVIZi7IZzuCRAAiRAAiRAAq4EqAy58uAeCZAACZAACZBAjBGgMhRjN5zDJQESIAESIAEScCVAZciVB/dIgARIgARIgARijACVoTDccCTLo5AACZBApBNwYjb2SGfK/oeHAJWhMHA/cOBAGFplkyRAAiQQXAK7d+/WFe7cuSu4FbM2ErCZALPW2wg8ISFRt7Z582bBL6q4uDgbW2dTJEACJBBcApmZmVKtWjWpXr16cCtmbSRgMwEqQzYCr1mzhm4tPT1d1q9fL02aNLGxdTZFAiRAAsElsGPHDtm+fbt07do1uBVbaitYsKAUKoRHVQHLUbs3z8jJkyclPy4OBQoU0D+A8R4uOXNG1A/xk3IGGxQXAlSGXHCEdqd9+/ZmA4sXL6YyZNLgBgmQQKQRSElJkbVr1+put2jRPOjdhxJUokQJKVw4Ieh1B1IhFIiMjAw5duyoX8oElJ+iRYtKUlIRCaciZIwZ4zh+/LikpBzzaxzG9dH6Tp8hG+/seeedJxUrVtRGug5aAAAedklEQVQtzpkzx8aW2RQJkAAJBJfA+++/r5UDWG0uvvjioFZesGCclClTxjGKEAYHRSYxMVFKlizp81hxTalSpaRIkaKOUISMcSQlJalxlPJ5HLFQkMqQjXcZXxr9+/fTLS5ZskRWrFhhY+tsigRIgASCQ+Do0aPy1FNP6cquvvpqKV++fHAqPlsLLClQiJwosFRBmfBFYA2Kjy/sS1HbyxQuXFhbq2xv2KENOloZcoJJMdj37Y477pDKlStr82T//v0FXyoUEiABEogUAphmGThwoOzcuVMrBSNGPBz0rickOGNqLLeBQcnxRXxVmnypKxRlihTxbRyhaNtpdTpaGXIarGD0B794nnvuWV3Vhg0b5KqrrpLU1NRgVM06SIAESCDkBB544AGZPXu2bmfUqFF6NVkwG42LK6SsQs5+NGU5dHsfNX7MO33FMPrn9D56pxy8s87+xAVvnI6qCfPrd955p+7Tf//7X+nevbts2rTJUX1kZ0iABEjASuDw4cPSt29fefHFF/XhPn36mNP+1nKxsh09MxfhW93mpM8KlaEw3Y3Ro0fJDTdcr1v/+eefpXHjxjJ8+HBhQMYw3RA2SwIk4JEALNfPPfec1K9f37QI4QfcpEkveCzPgyQQiQS4tD5Mdw1m1pdeekmaN28ho0ePlhMnTsjzzz8vEyZMkIYNG0qrVq2kUaNGevVZ9PwCCRNsNksCJOAXgWPHjsnq1avlr7/+0jHR0tLS9PX4LoLf46hRjyvH4Hi/6mRhEnAyASpDYb47/dXqsrZt2yhFaIIsWrRIB/VCQEa8KCRAAiQQDgI1a9aULVu2uDR9/vnny2OPjZTWrVu7HOdO6Agg0CP8p5zuQxU6AvbVzGky+1jn2lLTpk3lnXdmyo8//qh9iTp27KidErH0kUICJEACdhPAKiMoPf363a6nw77/frHMmfMZFSGbbgSCItarV09b3xDbCP5ZhgvF0KFDpVy5cvLrr7/q3mBFctmyZeXrr7+2qXfR2QwtQw66r3Xr1pExY54ye4QlrMwKbeLgBgmQgE0EsMKI0/M2wXZrBi4TUEavuOIKeeWVV/QzYPz48XLTTTfJggULVOToFDl48KDcfffdsnLlSj2bkJycLMgTRwmcAJWhwNmF/Ep8GfmyhDPkHWEDJEACJEACthCAiwTiE2FRTc+ePXWbe/bskdtvv11WrVql9xEFG5YhKEu33HKLLf2K9kaoDEX7Heb4SIAESIAEIobAY489pt0kxo0bZ/a5a9euenvv3r36vXnz5lK9enXlw/WYqTCZhbkREAH6DAWEjReRAAmQAAmQQPAJYIps//79LklU4RMEqVSpktngpEmTVO62woIgmJT8E6AylH+GrIEESIAESIAEgkLgkksuEfgAffzxx7o++BBhcQ0SvjZr1sxsA07UCIA5b9488xg3AidAZShwdrySBEiABEiABIJK4NZbb5XBgwdrh2n4DWE6DLGdPv/88xw+pHCqvuyyy4LafqxWRp+hWL3zHDcJkAAJRBgBrLDFiip3admypbambN261eUUckF27txZr7pCOhFDypcv7xIm4PTp07J8+XLZvHmzFCtWTC666CL9bpS38x2LZqZNm6ZXi/3000/ambpXr15SokQJ3Y0BAwYIgmIa8vrrr8vChQt1oF7jmJPfcQ+dKFSGnHhX2CcSIAESIIEcBBBq5NJLL81xHFaTxYsXy+TJk13ONWjQQJAQG341K1as0OECMN106NAhrfBAscI01DvvvKOtL2XKlNGJs6EsIW6PdVrKpWIbdpo0aSJ4uQvi0FmlcuXKctttt1kPcTsAApwmCwAaLyEBEiABErCfAKwmsOLgtWPHDqlataq0a9dOKzboDfaN83i3RvK/+uqrdcwe+ONMnz5dW1Og7MAahGkpWFcQv2fXrl0C6wuS0jLOm/33OFwt0jIULvJslwRIgARIwG8CiL+Wnp4u1157rU5TAasQ4vJAEJAQq6wMwRL0Hj166N0jR47Ib7/9pqfTcD1WYiFJ9nXXXaeVqAsvvFCXg3WoTp06snHjRh3L57zzzjOqC8n7xRdfrNsKReXr1q3TARxDUXe01UllKNruKMdDAiRAAlFMAD4n/fv3l7Vr1+pVVpgmMiQ1NVXgQ2PIDTfcYCpDy5Yt09tIX1GlShVZsmSJINUFIjdD+bFKt27d9C4UqFALLFHuvk7BatOp/jnBGl8w66EyFEyarIsESIAESCCkBMaMGaOXnX/66acCx2mrVKxYUWAN8SRYdTV79mxtCcJS9YSEBF2sWrVqenk6psSQhgRiKCfIDxZqGT58uJl3LNhtMb+l70SpDPnOiiVJgARIgATCSAAOz0888YTO24WVYosWLdK9qVu3rn7PyMgwj+FAfHy8GNGbsQ+fo5kzZ2rH6Jtvvlmnt8A02Ztvvim9e/eWIUOGyL///qunx+BjVKtWLVwWUsFSekr4CVAZCv89YA9IgARIgAR8IPDPP//o4IOw7OBlyKOPPqp9Y2Dduf76643DuiwcpIsXL24ulUdeL6w669evn0yYMEGntHj77bdl1KhR2hEbTthQinCOEjsECqg5RWcu+lf34K233tIrBgYNujN27ghHSgIkQAIxTCAurpAY6SfsxgDLEqxJBQvmvdB6//59Likz3PsKR+/y5Su4H3bcPlbQnTp10rZ+de3aLdepTNs64aEhR1uG8GGikAAJkAAJkIAdBAw/Ijvacm8Dithdd92lA0SePHlSR5a+77779FQdVrbBkmWVRo0aaWdx97hDKIPpRFjDKL4TcLQy5PswWJIESIAESIAEIpMAlB8oPN9//72MHDlSO3c/++yzOhgkjmOVHIJGYvoOgSQhcBbHxA6Ow7/JCCGAc3ScBgX/hMqQf7xYmgRIgARIgASCSgDKEGIiwcqDPGQQ7GO13HvvvWc6gbsrPQgsCcF1UJQogRPIe2I08Lp5JQmQAAmQAAmQQB4EsOQf8uGHH5oloQwhAOTOnTvNY0i7geX+eC1dutQ8/txzz5nHX3vtNfM4N3wnQMuQ76xYkgRIgARIgASCTsDwVYLfkCHY3rt3r9x///3GIbn99tvNfGVGOAGcRBRrJHOFQImi+E+AypD/zHgFCZAACZAACQSNQPv27fUKNuRMGz9+vE4oi9xrUHi+/PJLsx1Exrb6BhnTZC1atBBE26YEToDTZIGz45UkQAIkQAIkkG8C1atXl6FDh+rYRo0bN5YOHTroaS/kXzMsPvluhBV4JUDLkFc8PEkCJEACJEACoSeABLNwgl6+fLmkpaXJq6++KlCMEGLmnHPO0Qlo3dOD4Byu69y5c+g7GOUtUBmK8hvM4ZEACZAACUQGASSMdU8ai55XqFBBEHPIXaAMeTruXo77eRPgNFnejFiCBEiABEiABEggiglQGYrim8uhkQAJkAAJhIaAgzNZ+Tlgx2bk8nMc+SvuaGWI6Tjyd3N5NQmQAAlEGoHTp095zfnlhPEgIWxeAmXJ6QoT+ufLWPIaazScd7QyFA2AOQYSIAESIAHfCeABfeLECd8vCEPJ48fTfWrVGjfIpwtsLpSRcdzmFp3bHJUh594b9owESIAEYpJAamqKY60qsKRgtZcvkpJyTGDpcqJA6UTOM0oWASpD/CSQAAmQAAk4igBydR0+fEjw7iSBxerQoWSfFTUERTx06LCainLWOKDQYRycIsv+dHFpfTYLbpEACZAACTiEQGZmpiQnH5TExEQpVKiQircTvt/uUGagCAWinOHa5ORknYk+Pr6wjjQdLsRQfjCOzMwTPit04eqr3e1SGbKbONsjARIgARLwmcDx45Hv14IpKYwjGsbi842LsILhU7UjDBS7SwIkQAIkQAIkEJ0EqAxF533lqEiABEiABEiABHwkQGXIR1AsRgIkQAIkQAIkEJ0E6DMUBfe1YMGC2ikPKxfwopAACZAACdhDAMGB8R0Mwfcv/IMokUeAylDk3TPd4/j4eElKKqJWKBR2WWWRFbAsQ8fBwGoMSmAE4uLwrxFZ0VnxpRwXF6e/kCNJKcaDBCuFnLb8OLBPDq+KBQL4X8P3r7HSzTpmfO8imGF6ejoVIysYh29TGXL4DXLvHv4Jixcvrv4Jk9xP6X2cT0hI1C+sXDh27Cj/IT2SynkQCia4JiYmmAomlIq0tFRHf7ElJCToL+XChdHvAnpgWEKbkpKiv5RzjjT8R4zPaVJSkoA7BKyzVtykB7SEOfyjYg9igQD+z0qUKGFag9zHjM8zXkWKFJGjR486Ppq2e/9jdZ/KUATdeTxASpYsJYULF/ap1/jVEhdXUAUvO0yFKA9ieCgXL14iRylYLYoVK65jhDiRI/qMvrsLLEQlS5ZUSly8UoiPuZ8O+36pUqXUA8P1cwzWeIDghYBwtGyG/TaxA24E8MMD38G+SMGCcVKqVGkdPNLp6UV8GU+0l6EDdQTd4aJFi/msCBnDwgOnaNGixi7fPRBAQLfk5EOyfft2l7O///67/PLLL7J48WJ1bod6SDuH44EDB2TLlq2mIrRz5061v8Wl/+vXr5dNm/6nFTn8Ql29erUO/uZSKAw7Bw4clH379uuW9+7dK6tWrTJ7Ad5ff/21HDly1LRymSe5QQJhJIAfGCVKlPS7B7gGihHF2QSoDDn7/pi9wwMbv5gDETzEcT3FMwHwmThxokyePNmlQM+ePWXQoEEybdo06dKli5x//vmOeUCPHDlSunXrppSGI7rPr776qowdO9al//3795e2bduq6acz8tFHH8nFF18iCxYsdClj9w6sPy+++KJMnz5ddu/eLR06dJCVK1dqy+W+ffvk7rvvlpkzZ0qzZs3kmWeesbt7bI8EciUAC7ExDZ1rIQ8n8JmHawPF2QT4hHT2/TF7l1+rBJz94D9EyUkApu/c5KWXXpJKlSop35sMbXmBL0C4Td4HDx6UZcuWS7t27eS9996Te+65J7fuS+3atWXFihWq/DKpW7dOruXsOmFM8cJSdfnll0ufPn1k8ODBWqk799xztYIExl988YX89NNPdnWL7ZCAVwKwCnn7nvB6sTqJa7Eog4sE8iIVvvNUhsLH3q+W8/OPiIZwvQNdR/xiEIrC+KXn7dde3759tTMkFBA4JWOFyP79+0LRFZ/rhJXnyiuvlAsuuEBeeOEFr8pQjx495Ntvv5XfflslF154oc9thKogfiVDXn75Zf1r2fB3+uqrr7SlC4oQFND58+fr/VD1g/WSgD8E8vv9i7ZQR1qasxK2+sMg2stSGYqAO4wHiLcHti9DMOpgDAxXWuDhbRn6vHnzpEWLFjJlyhR54403tDO6aw327qG/s2bNUhaUPdqXCb5CP//8c66d6N69uwwYMEBgdSlSJKejda4XhuiEkSX7qquukscff1xPPV5//fVyzjnnaAUISmevXr20Fe7PP/8MUS9YLQn4RyAr1IZ/17iXpquCOxFn7VMZctb98Nib/CpCRqVYXYQVURRXApgCg8ydO1d27Niht4cNG6bfR4wYoRXR3377TZo2baqWfIc3dtOKFStVH07J5s3/SOnSZeSRRx6R1157TSpXrqyVoxtvvFH325g6a9iwoXag79SpoyPuPaYYodA1atRImjdvLv369dN+WXBSv+iii7RvVuPGjWXhwoUyatQoPZZo/JOmlNkilStF49CickxnI1bka2z8IZovfCG/uIC6QY4NlwlHym3btqkvyztDDsLJDUAZKl++Qr67iOkdB9/ufI8v0ApgNUtJSRWs0DKkXr16aiXWJh1LBMvAy5UrpwMaIuZQOAWrr1JTU7UvEPxv4By9a9cuKVOmjH43+larVi21Ymuf1KxZU/766y+1HLiEvg7TUigbTsFqMijmVatW1bGQNmzYIE2aNNGxkjZv3qzvQ4MG9bVvVrR+Xn8e+bi0GzsmnLeBbftBAM7TgS5gMZpJSTmmg+Ea+7H63rVrN1m3bp3jhk/LkONuSc4O4YFw8uTJfK0Ig0UjWh8sOYn5dwTTZKVKlZQaNWq4TEdiJZYh8BVyggN6xYoVjS5pZQFhE6BIQKpUqWKew0bZsmX1l2+NGtX1cSh1TpBy5cpqqxb6UqxYMWnTpo3ZLTh8Q5FDnKFo+7ymbN0mxdS9SN25S/YqC9+xrVuluPrMGe8mBG44jkAwYl5lZJxw3LjYoWwCVIayWTh66/jxdB38L9BOHj+eNRUU6PXRfh2mb5KTD6oppWLa0dGYmsSXYHp6mo6M7EQGsBJlZp7USoXhkwAlAukAEM053CvfcmN2+PAhzRkRv40VZlhpkxWB+rh2Vs/t2kg9vvr5iZKglO7CZ5XSv9//UDJVlPD0/fuly4zpkTqsmOj3iRMZ2rfQWADg76DxY5YryfylZm95RytDxgPJXiTObA2WCSyPxxJPfyVrFVSav5fFXHlwOno0K24PvvSgVESCdQJf1MnJGXpKD/3GF6/TBVwNxQd9xv+64Vzt9L4H2r+S9erKli++NC/fsehbvV398kvNY9xwJgF8XvHDI9B4QWlp/P515p3N7pWjlaHsbnIL/4x4UCO8u79KIvOT+f/58bbCzP/a7LkCfY7UfttDKDytpCs/ryQ1vQllyJOUVk7uEKOcpzLux+BzMferLMVqyH+Gyq8qcvfKlSukQYOGctXVV8vUKZP1FOm11/aWv//5W/5Ys0ZUEAlp1bq1lCtfXhbMn6erbKqCW1566WV6e+bbb+u8fIhptn79OrVgoJmcOn1Kn+vV6wr9Dp+uT2Z/rKO1o+5uarXilyom1IYN66WzCvWAqdivvvxS1ZOkHeLnq3buu/8Bmf3xx/Lvv5vl/I4dBVO936go41Daq1evIdepWFOo99NPZuvrht57r27LaX9gIUZibOQm80dg1ceL4mwCVIacfX9ceocpGwSrQ5JAXxUiKFBOnSpxGRx3SCCKCGQkJ0s8knmqyO+/PvGUtBzxcK7KUKkGDQT+RL+NHaeny84oC2XG4SOSWDZ3R/ftamHJp598oon17n2dLFywQBYtWig9VNT0iy6+WGapYJywItdXda9fu04+/3yOtGrVSubM+UwrJ7j2uj59pYxakWjId999q6db4WC/SK3m26LSu5QvV16fNpShsU+PkcOHDkmFChXkidGjpKuKgo661591iG3RoqXuF76f4IP3xeef6/Y+UYrONuUjdUqthGx/fgd5X4WHQNDQj1XMrMpVKsuePXu0EoXvuLtVEE7Em3KiIOI7fpD62j9YbZ2YGzCcbJ1qbWc6jnB+KgJoG74gcC7NS8ExfGAwFUEhARKwl8DRf7fIouuulzXKTwgO08sfHCYFVH4qKEdWiVOB+ArEF5IVDw2T1B075Y+Jk2RRnxvksMor54tA4cEKw3+3/CvFlfIFwQpcTOdAqdl/Ngccjrc7r72eisR0DwRBOM9r315vu/+B8/02paC5C6xLqPfcxk30NCcebGivgrL27FLjhGDVFZJE4zgE0587VcgKlNm9Z7c+hj+tWmc5ziPcBxSlmmrlI+rbr3yonCroH75/sTLM20MdFlpY5J2Y3NmpbMPdLypD4b4DAbQP8zIcUOHwi384mGDxiwrv2MdxnI8E35EAhs9LSMDxBMo2byZn1ANx27z52kkalqKVDz8i8W45quKLFZWVwx+R4weT5ZT64bL162/kpPIPLN+mtU9jRLDKXbt3aWUCK/Eg27Zt1dNVmO7at29vrvVMnPC8fK4sRZ6kTt26KsTBfknNJZTELbfcIh+qqS887I8pazUUmZ07d+iq4AOGvqAfkF27durvJ5TZqyxAngSKV5UqVfWp/SokhNMFPkAIxXHkyGHtS4Qfn3hB0cR378GDB3S0eqePg/3LJkBlKJtFxG1B2YFjNabO8GsF79inEhRxt5IdjiICmcdSZN0rr0qx6tVcRgWFKENNMVkFStBxN0vIKRUEdN30GWqqLO8AqbVq1ZbVq37XliCEWYDAyoI4TkWKFtGxpqztWbebNWuulJha1kPmNixD8P/Zvn27ecy6UVpZh9A22oJgSgxTXafPnNb7UKYMy9BWtzLiIbLd1q1b9HQZLkZ8rEiQM2qsCNiampqiFSAoQdiGUuTNahQJY4vFPlIZisW7zjGTAAmEjEB88WJSuXMnOW4J4ulPYwlK0ah4fnu1DD/vuFC1atdS6Vh+0o7IRhtQPtauXav9ePapKbTc5EIV8btFy5a5nRYoNJje8iRwoh7Yv79sUUoMZM5nn2kl4MBZxa5OnTrmtVu3ZClMKINpe/co+CdU/B0oUoYPlDdrlm6Mf0ggBASoDIUAKqskARKIbQJlWzSXLq/NkCpdLvALRMUO7aXL669KBeVc7IvAOgOn3moWKxSUoZ7KH6hjx04u/jeZmf4F/atbp66e3vLUj+3bd8iff/4hW5WTdb169aVf/wG6GHLlQaBIYeoeAutRpUqV5M5Bd+n93buz/IaM/iAFDnxsHh81Wi8M2Wfxc9IX8A8J2ECAypANkNkECZBA7BGAhaj16MelxfBhUjCP1VEFlCN00/uGSrunn/LJImTQrHXWTwhL1A2B8tFYOThXVf5EWMlk+P1geTuWy5cunWVxGjf2aXnj9deMy3K811bWHXcpqYJGIk3NN1/PlXOqVZPt27Yrx+gKSiGqp4siNQwEipQh8B2CD5FRxvAbQn+wKqtb925aCerYqZNezUbLkEGO73YScHRusnfeeUfwKyfWc5PZ+YFgWyRAAsElcExZT5bcoawiyvqRoHxxktSy9BPKv6+wUpZOph+XNGUpOa38TDpNmyylzsYcyqsHWEGGWECw/ixbtlQaNmykrEDIPSh6AUUTpQylqOjWmMZCQl/4FMKnqFGjc/Uii40bN+omKleqLA3Otvnbr7/qlD/xKuddwQIFdDygNX+s0e+4DgKfxFUqaTFWiLVR6Wo2qFVviSrfHRIFr1mzWoqrHF7paiFHp06d5YclS9QKugKSoOLylFRTfiizatVvZn8SExKlrlKiMHWGGESdO18gK1YslyIquGzzFi10e/wTfQS6dOmqPru+rZa0c/RUhuykzbZIgARijkC6mvY5o1KNJKpgh8bS+g1vviXlWrWUcnjoKw3m+MGDqswpHZwx5gBxwDFFwKnKkGvQi5i6JRwsCZAACYSeQFKFrMCFubakrDCJ5crleponSIAEQk+APkOhZ8wWSIAESIAESIAEHEyAypCDbw67RgIkQAIkQAIkEHoCnCYLPWO2QAIkQAIuBGpe0UsKnQ2S6HKCOyRAAmEhQGUoLNjZKAmQQCwTgDM1hQRIwDkEOE3mnHvBnpAACZAACZAACYSBAJWhMEBnkyRAAiRAAiRAAs4hQGXIOfeCPSEBEiABEiABEggDASpDYYDOJkmABEiABEiABJxDwPHKUAEVkIxCAiRAAiRAAiRAAqEi4HhlKFQDZ70kQAIkQAIkQAIkAAJUhvg5IAESIAESIAESiGkCVIZi+vZz8CRAAiRAAiRAAlSG+BkgARIgARIgARKIaQKOjkAdHx8vkydPlrlz54b8JtFR2xUxebjywB6ZkElOAjmP8HPiyoQ8XHlgL5aZHD16NCcQBxwpcEaJA/rhsQunTp2SvXv3ejzHgyRAAiRAAiRAApFFoFixYlKiRAnHddrRypDjaLFDJEACJEACJEACUUeAPkNRd0s5IBIgARIgARIgAX8IUBnyhxbLkgAJkAAJkAAJRB0BKkNRd0s5IBIgARIgARIgAX8IUBnyhxbLkgAJkAAJkAAJRB0BKkNRd0s5IBIgARIgARIgAX8IUBnyhxbLkgAJkAAJkAAJRB0BKkNRd0s5IBIgARIgARIgAX8IUBnyhxbLkgAJkAAJkAAJRB0BKkNRd0s5IBIgARIgARIgAX8IUBnyhxbLkgAJkAAJkAAJRB0BKkNRd0s5IBIgARIgARIgAX8IUBnyhxbLkgAJkAAJkAAJRB0BKkNRd0s5IBIgARIgARIgAX8IUBnyhxbLkgAJkAAJkAAJRB0BKkNRd0s5IBIgARIgARIgAX8IUBnyhxbLkgAJkAAJkAAJRB0BKkNRd0s5IBIgARIgARIgAX8IUBnyhxbLkgAJkAAJkAAJRB0BKkNRd0s5IBIgARIgARIgAX8IUBnyhxbLkgAJkAAJkAAJRB0BKkNRd0s5IBIgARIgARIgAX8IUBnyhxbLkgAJkAAJkAAJRB0BKkNRd0s5IBIgARIgARIgAX8IUBnyhxbLkgAJkAAJkAAJRB0BKkNRd0s5IBIgARIgARIgAX8IUBnyhxbLkgAJkAAJkAAJRB0BKkNRd0s5IBIgARIgARIgAX8IUBnyhxbLkgAJkAAJkAAJRB0BKkNRd0s5IBIgARIgARIgAX8IUBnyhxbLkgAJkAAJkAAJRB0BKkNRd0s5IBIgARIgARIgAX8IUBnyhxbLkgAJkAAJkAAJRB2B/wcuOS4Ly+V69wAAAABJRU5ErkJggg==;clipPath=inset(8.86% 6% 10.76% 6.33%);fontSize=24;" parent="1" vertex="1">
          <mxGeometry x="1160" y="630" width="579" height="279.59315589353616" as="geometry" />
        </mxCell>
        <mxCell id="6ErnAcqJb4fMDTbfA62J-2" value="SE-1&lt;div style=&quot;font-size: 24px;&quot;&gt;(Enkoder)&lt;/div&gt;" style="rounded=0;whiteSpace=wrap;html=1;fillColor=#dae8fc;strokeColor=#6c8ebf;fontSize=24;" parent="1" vertex="1">
          <mxGeometry x="620" y="60" width="320" height="160" as="geometry" />
        </mxCell>
        <mxCell id="6ErnAcqJb4fMDTbfA62J-3" value="&lt;div style=&quot;font-size: 24px;&quot;&gt;?&lt;/div&gt;&lt;div style=&quot;font-size: 24px;&quot;&gt;(Pojačalo za enkoder)&lt;/div&gt;" style="rounded=0;whiteSpace=wrap;html=1;fillColor=#dae8fc;strokeColor=#6c8ebf;rotation=90;fontSize=24;" parent="1" vertex="1">
          <mxGeometry x="695" y="550" width="170" height="90" as="geometry" />
        </mxCell>
      </root>
    </mxGraphModel>
  </diagram>
</mxfile>
